<?xml version="1.0" standalone="no"?>
<!DOCTYPE svg PUBLIC "-//W3C//DTD SVG 1.1//EN" "http://www.w3.org/Graphics/SVG/1.1/DTD/svg11.dtd" >
<svg xmlns="http://www.w3.org/2000/svg" xmlns:xlink="http://www.w3.org/1999/xlink" version="1.1">
<metadata>
Created by FontForge 20161013 at Fri Jan 18 11:58:20 2002
 By ,,,
Copyright (c) 2000, 2002 Adobe Systems Incorporated. All Rights Reserved. U.S. Patent Des. pending.
</metadata>
<defs>
<font id="MyriadPro-SemiCn" horiz-adv-x="300" >
  <font-face 
    font-family="Myriad Pro SemiCond"
    font-weight="400"
    font-stretch="semi-condensed"
    units-per-em="1000"
    panose-1="2 11 5 3 3 4 3 2 2 4"
    ascent="750"
    descent="-250"
    x-height="484"
    cap-height="674"
    bbox="-128 -250 1059 876"
    underline-thickness="50"
    underline-position="-200"
    unicode-range="U+0020-FB04"
  />
<missing-glyph horiz-adv-x="500" 
d="M0 0v700h500v-700h-500zM250 395l170 255h-340zM280 350l170 -255v510zM80 50h340l-170 255zM50 605v-510l170 255z" />
    <glyph glyph-name="f_f_j" unicode="ffj" horiz-adv-x="759" 
d="M664 687l-23 -65q-40 24 -93 24q-113 0 -113 -138v-24h262v-445q0 -137 -55 -195q-50 -50 -137 -52l-10 67q62 7 87 37q17 21 24 58t7 116v350h-178v-420h-84v420h-189v-420h-84v420h-66v64h66v18q0 101 56 157q44 44 118 44q42 0 80 -20l-24 -62q-26 15 -56 15
q-38 0 -61 -26q-29 -33 -29 -108v-18h189v28q0 90 51.5 146.5t149.5 56.5q69 0 112 -28z" />
    <glyph glyph-name="f_j" unicode="fj" horiz-adv-x="490" 
d="M162 0h-84v420h-66v64h66v28q0 90 51.5 146.5t149.5 56.5q73 0 114 -30l-22 -64q-42 25 -96 25q-113 0 -113 -138v-24h262v-445q0 -137 -55 -195q-50 -50 -137 -52l-10 67q62 7 87 37q17 21 24 58t7 116v350h-178v-420z" />
    <glyph glyph-name="ff" unicode="ff" horiz-adv-x="543" 
d="M433 0h-84v420h-187v-420h-84v420h-66v64h66v17q0 107 51 159q41 43 116 43q33 0 63 -14l-17 -65q-22 11 -47 11q-82 0 -82 -129v-22h187v25q0 110 52 162q43 44 111 44q41 0 71 -13l-12 -66q-24 10 -52 10q-86 0 -86 -135v-27h108v-64h-108v-420z" />
    <glyph glyph-name="fi" unicode="fi" horiz-adv-x="492" 
d="M162 0h-84v420h-66v64h66v28q0 90 51.5 146.5t149.5 56.5q73 0 114 -30l-22 -64q-42 25 -96 25q-113 0 -113 -138v-24h262v-484h-84v420h-178v-420z" />
    <glyph glyph-name="fl" unicode="fl" horiz-adv-x="492" 
d="M162 0h-84v420h-66v64h66v23q0 104 64 161q55 47 146 47q80 0 137 -30v-685h-84v637q-26 12 -67 12q-59 0 -85.5 -38.5t-26.5 -99.5v-27h105v-64h-105v-420z" />
    <glyph glyph-name="ffi" unicode="ffi" horiz-adv-x="764" 
d="M664 687l-23 -65q-40 24 -93 24q-113 0 -113 -138v-24h262v-484h-84v420h-178v-420h-84v420h-189v-420h-84v420h-66v64h66v18q0 101 56 157q44 44 118 44q42 0 80 -20l-24 -62q-26 15 -56 15q-38 0 -61 -26q-29 -33 -29 -108v-18h189v28q0 90 51.5 146.5t149.5 56.5
q69 0 112 -28z" />
    <glyph glyph-name="ffl" unicode="ffl" horiz-adv-x="764" 
d="M332 686l-23 -64q-25 14 -56 14q-38 0 -62 -26q-29 -33 -29 -107v-19h189v23q0 104 64 161q55 47 146 47q79 0 136 -30v-685h-84v637q-26 12 -67 12q-58 0 -84.5 -38.5t-26.5 -99.5v-27h104v-64h-104v-420h-84v420h-189v-420h-84v420h-66v64h66v13q0 106 55 161
q47 45 122 45q41 0 77 -17z" />
    <glyph glyph-name=".notdef" horiz-adv-x="500" 
d="M0 0v700h500v-700h-500zM250 395l170 255h-340zM280 350l170 -255v510zM80 50h340l-170 255zM50 605v-510l170 255z" />
    <glyph glyph-name=".null" horiz-adv-x="0" 
 />
    <glyph glyph-name="nonmarkingreturn" horiz-adv-x="333" 
 />
    <glyph glyph-name="space" unicode=" " horiz-adv-x="196" 
 />
    <glyph glyph-name="exclam" unicode="!" horiz-adv-x="222" 
d="M144 192h-66l-13 482h92zM111 -10h-1q-24 0 -39.5 17t-15.5 43t16 43t40 17q25 0 40.5 -16.5t15.5 -43.5q0 -26 -15 -43t-41 -17z" />
    <glyph glyph-name="quotedbl" unicode="&#x22;" horiz-adv-x="329" 
d="M50 689h83l-16 -238h-51zM196 689h83l-16 -238h-51z" />
    <glyph glyph-name="numbersign" unicode="#" horiz-adv-x="464" 
d="M175 254h96l18 147h-96zM141 0h-58l26 197h-77v57h86l19 147h-82v56h90l25 193h57l-26 -193h97l25 193h57l-25 -193h76v-56h-84l-19 -147h81v-56h-90l-25 -198h-58l26 198h-96z" />
    <glyph glyph-name="dollar" unicode="$" horiz-adv-x="475" 
d="M262 -85h-61v100q-83 2 -140 41l23 65q60 -40 130 -40q50 0 80.5 28t30.5 71q0 41 -25.5 69.5t-79.5 52.5q-74 33 -113 72t-39 99q0 62 38.5 105t100.5 54v99h61v-95q66 -1 119 -32l-23 -64q-53 32 -114 32q-49 0 -74 -26t-25 -61q0 -38 25.5 -62.5t89.5 -53.5
q73 -33 107.5 -76t34.5 -105q0 -64 -39 -110.5t-107 -58.5v-104z" />
    <glyph glyph-name="percent" unicode="%" horiz-adv-x="748" 
d="M177 660h1q64 0 102.5 -51.5t38.5 -142.5q0 -98 -42 -150.5t-104 -52.5q-61 0 -101.5 51.5t-41.5 143.5q0 94 41.5 148t105.5 54zM175 609h-1q-38 0 -58 -43t-20 -105q-1 -62 19.5 -104.5t59.5 -42.5q40 0 59 41.5t19 106.5q0 64 -18.5 105.5t-59.5 41.5zM214 -13h-54
l372 675h53zM575 390h1q64 0 102.5 -51.5t38.5 -142.5q0 -98 -41.5 -150.5t-103.5 -52.5q-61 0 -101.5 51.5t-41.5 144.5q0 93 41.5 147t104.5 54zM573 339h-1q-37 0 -57 -42.5t-20 -104.5q-1 -62 20 -105t58 -43q40 0 59 41.5t19 107.5q0 63 -18.5 104.5t-59.5 41.5z" />
    <glyph glyph-name="ampersand" unicode="&#x26;" horiz-adv-x="571" 
d="M564 0h-99q-7 8 -25.5 28.5t-32.5 35.5q-75 -74 -181 -74q-91 0 -143.5 55t-52.5 133q0 121 124 196v3q-55 73 -55 144q0 66 44 114.5t118 48.5q60 0 100 -38t40 -103q0 -54 -32 -97t-106 -84v-3q12 -15 69 -86t84 -103q40 68 58 196h76q-26 -167 -90 -247
q14 -16 48 -54.5t56 -64.5zM240 54h1q78 0 126 60q-140 168 -176 213q-79 -56 -79 -138q0 -58 35.5 -96.5t92.5 -38.5zM255 625h-1q-36 0 -56.5 -28t-20.5 -69q0 -58 47 -122q52 32 77.5 62.5t25.5 69.5q0 35 -18 61t-54 26z" />
    <glyph glyph-name="quotesingle" unicode="'" horiz-adv-x="183" 
d="M50 689h83l-16 -238h-51z" />
    <glyph glyph-name="parenleft" unicode="(" horiz-adv-x="275" 
d="M187 694h66q-119 -168 -119 -409q0 -233 119 -405h-66q-124 167 -124 406q1 242 124 408z" />
    <glyph glyph-name="parenright" unicode=")" horiz-adv-x="275" 
d="M88 -120h-66q119 171 119 408q0 234 -119 406h66q124 -165 124 -407q-1 -239 -124 -407z" />
    <glyph glyph-name="asterisk" unicode="*" horiz-adv-x="402" 
d="M261 684l59 -33l-93 -123v-2l147 19v-66l-146 18l-1 -3l94 -118l-61 -35l-60 138l-2 -1l-63 -138l-55 35l92 121l-1 2l-143 -19v66l142 -18v2l-90 121l58 33l62 -136h2z" />
    <glyph glyph-name="plus" unicode="+" horiz-adv-x="596" 
d="M267 532h62v-236h227v-58h-227v-238h-62v238h-227v58h227v236z" />
    <glyph glyph-name="comma" unicode="," horiz-adv-x="203" 
d="M76 -117l-59 -7q42 111 59 237l95 10q-17 -62 -45.5 -133.5t-49.5 -106.5z" />
    <glyph glyph-name="hyphen" unicode="-" horiz-adv-x="298" 
d="M30 299h238v-63h-238v63z" />
    <glyph glyph-name="period" unicode="." horiz-adv-x="203" 
d="M108 -10h-1q-24 0 -40 17.5t-16 43.5q0 27 16 44.5t41 17.5q26 0 41.5 -17t15.5 -45q0 -27 -15.5 -44t-41.5 -17z" />
    <glyph glyph-name="slash" unicode="/" horiz-adv-x="324" 
d="M66 -40h-64l260 724h65z" />
    <glyph glyph-name="zero" unicode="0" horiz-adv-x="475" 
d="M234 -10h-1q-91 0 -145 87t-55 246q0 160 57 248.5t153 88.5q95 0 147 -87t52 -243q0 -166 -55 -253t-153 -87zM237 58h1q59 0 89 71.5t30 197.5q0 124 -29.5 194.5t-89.5 70.5q-56 0 -88 -72t-32 -193q-2 -124 30 -196.5t89 -72.5z" />
    <glyph glyph-name="one" unicode="1" horiz-adv-x="475" 
d="M222 0v569h-2l-111 -61l-17 65l141 77h71v-650h-82z" />
    <glyph glyph-name="two" unicode="2" horiz-adv-x="475" 
d="M425 0h-384v52l65 69q117 121 168.5 196t51.5 148q0 56 -28 90t-89 34t-125 -49l-26 60q71 60 167 60q91 0 138 -54t47 -132q0 -84 -50 -162.5t-154 -186.5l-49 -52v-2h268v-71z" />
    <glyph glyph-name="three" unicode="3" horiz-adv-x="475" 
d="M38 30l21 65q62 -36 129 -36q69 0 103.5 37.5t33.5 89.5q-1 63 -45.5 97t-111.5 34h-39v64h39q50 0 93 29t43 82q0 45 -26.5 72t-79.5 27q-59 0 -115 -39l-21 62q62 46 154 46q83 0 128.5 -44.5t45.5 -109.5q0 -50 -29.5 -90.5t-84.5 -61.5v-2q59 -13 97.5 -57t38.5 -111
q0 -82 -59 -138t-163 -56q-92 0 -152 40z" />
    <glyph glyph-name="four" unicode="4" horiz-adv-x="475" 
d="M371 0h-79v178h-276v56l266 416h89v-405h85v-67h-85v-178zM100 245h192v207q0 36 4 110h-3q-27 -56 -55 -104l-138 -211v-2z" />
    <glyph glyph-name="five" unicode="5" horiz-adv-x="475" 
d="M403 650v-72h-226l-25 -168q18 3 44 3q77 0 135 -40q81 -54 81 -161q0 -96 -64.5 -159t-163.5 -63q-92 0 -147 37l21 65q55 -33 125 -33q60 0 102 39t42 105q0 68 -44.5 106t-130.5 38q-48 0 -78 -6l42 309h287z" />
    <glyph glyph-name="six" unicode="6" horiz-adv-x="475" 
d="M386 659l1 -70q-31 0 -61 -5q-91 -17 -143.5 -81t-64.5 -150h3q51 71 143 71q80 0 130 -56.5t50 -150.5t-54.5 -160.5t-145.5 -66.5q-97 0 -154.5 75t-57.5 198q0 181 102 293q74 80 193 98q31 5 59 5zM244 55h1q51 0 82 41.5t31 115.5q0 70 -32.5 109t-87.5 39
q-35 0 -66 -20.5t-48 -56.5q-8 -18 -8 -39q1 -87 35 -138t93 -51z" />
    <glyph glyph-name="seven" unicode="7" horiz-adv-x="475" 
d="M51 650h381v-54l-261 -596h-86l259 577v2h-293v71z" />
    <glyph glyph-name="eight" unicode="8" horiz-adv-x="475" 
d="M244 660h1q82 0 128 -46.5t46 -110.5q0 -100 -101 -153v-3q122 -56 122 -171q0 -82 -58 -134t-147 -52q-92 0 -146 50.5t-54 122.5q0 119 122 178l-1 3q-48 25 -73 64t-25 83q0 75 53.5 122t132.5 47zM237 52h1q52 0 84.5 31.5t32.5 84.5q0 55 -32.5 88.5t-95.5 56.5
q-51 -19 -79 -55.5t-28 -82.5q-2 -52 30.5 -87.5t86.5 -35.5zM240 599h-1q-46 0 -73 -29t-27 -73q0 -86 111 -122q40 17 64 47.5t24 71.5q0 44 -24.5 74.5t-73.5 30.5z" />
    <glyph glyph-name="nine" unicode="9" horiz-adv-x="475" 
d="M87 -9v70q28 -2 64 4q73 11 122 59q66 63 83 176h-2q-54 -65 -140 -65q-79 0 -128 56t-49 142q0 93 57.5 160t147.5 67q93 0 146 -74.5t53 -196.5q0 -192 -104 -303q-71 -76 -178 -90q-45 -6 -72 -5zM236 595h-1q-49 0 -81.5 -42.5t-32.5 -114.5q0 -64 31 -101.5
t83 -37.5q37 0 67.5 18t46.5 47q7 16 7 35q0 91 -30.5 143.5t-89.5 52.5z" />
    <glyph glyph-name="colon" unicode=":" horiz-adv-x="203" 
d="M108 347h-1q-24 0 -39.5 17.5t-15.5 43.5t16 43.5t41 17.5t40.5 -17t15.5 -44t-15.5 -44t-41.5 -17zM108 -10h-1q-24 0 -39.5 17.5t-15.5 43.5t16 43.5t41 17.5t40.5 -17t15.5 -44t-15.5 -44t-41.5 -17z" />
    <glyph glyph-name="semicolon" unicode=";" horiz-adv-x="203" 
d="M75 -118l-58 -6q39 111 59 237l94 10q-17 -62 -45.5 -133.5t-49.5 -107.5zM116 347h-1q-24 0 -39.5 17.5t-15.5 43.5t16 43.5t41 17.5t40.5 -17t15.5 -44t-15.5 -44t-41.5 -17z" />
    <glyph glyph-name="less" unicode="&#x3c;" horiz-adv-x="596" 
d="M66 240v52l464 240v-68l-390 -197v-2l390 -197v-68z" />
    <glyph glyph-name="equal" unicode="=" horiz-adv-x="596" 
d="M556 337h-516v58h516v-58zM556 143h-516v58h516v-58z" />
    <glyph glyph-name="greater" unicode="&#x3e;" horiz-adv-x="596" 
d="M530 295v-57l-464 -238v68l396 197v2l-396 197v68z" />
    <glyph glyph-name="question" unicode="?" horiz-adv-x="377" 
d="M205 189h-75l-2 23q-11 89 56 178q35 46 50.5 77t15.5 64q0 40 -23 62t-66 22q-54 0 -91 -27l-22 62q52 36 130 36t118.5 -42t40.5 -103q0 -32 -13.5 -65.5t-27 -53t-42.5 -57.5q-56 -74 -50 -153zM165 -10h-1q-24 0 -39.5 17t-15.5 43q0 27 16 44t41 17t40.5 -17
t15.5 -44q0 -26 -15.5 -43t-41.5 -17z" />
    <glyph glyph-name="at" unicode="@" horiz-adv-x="693" 
d="M418 248l24 123q-18 7 -44 7q-63 0 -108 -57t-45 -132q0 -33 15.5 -52.5t43.5 -19.5q38 0 71.5 41.5t42.5 89.5zM478 -24l15 -41q-72 -39 -169 -39q-120 0 -202 82.5t-82 223.5q0 162 98.5 276.5t252.5 114.5q120 0 193 -77t73 -197q0 -117 -49 -185.5t-121 -68.5
q-32 0 -52 21.5t-18 64.5h-3q-49 -86 -133 -86q-42 0 -70.5 32.5t-28.5 88.5q0 95 64.5 168.5t165.5 73.5q56 0 97 -19l-36 -187q-22 -110 27 -110q40 -1 72 54t32 142q0 110 -57.5 175.5t-163.5 65.5q-121 0 -205 -96t-84 -248q0 -123 66.5 -193.5t174.5 -70.5q81 0 143 35
z" />
    <glyph glyph-name="A" unicode="A" horiz-adv-x="559" 
d="M384 209h-212l-62 -209h-86l207 674h99l206 -674h-88zM188 275h181l-58 187q-14 50 -32 132h-3q-18 -84 -31 -131z" />
    <glyph glyph-name="B" unicode="B" horiz-adv-x="504" 
d="M71 2v663q65 14 145 14q118 0 174 -48q53 -43 53 -119q0 -50 -29.5 -89.5t-81.5 -58.5v-3q57 -14 96 -57.5t39 -111.5q0 -82 -55 -134q-63 -63 -216 -63q-62 0 -125 7zM155 608v-220h66q62 0 99.5 32.5t37.5 83.5q0 54 -35.5 82t-100.5 28q-41 0 -67 -6zM155 325v-260
q20 -4 63 -4q71 0 116 32.5t45 99.5q0 65 -46 98.5t-117 33.5h-61z" />
    <glyph glyph-name="C" unicode="C" horiz-adv-x="518" 
d="M472 87l16 -68q-52 -28 -153 -28q-134 0 -217 88.5t-83 250.5q0 166 89.5 259.5t227.5 93.5q90 0 137 -26l-20 -69q-48 24 -115 24q-103 0 -167 -71.5t-64 -205.5q0 -131 61 -201.5t167 -70.5q71 0 121 24z" />
    <glyph glyph-name="D" unicode="D" horiz-adv-x="599" 
d="M71 2v663q72 14 160 14q159 0 239 -74q94 -84 94 -251q0 -175 -92 -269q-88 -90 -265 -90q-69 0 -136 7zM155 605v-538q19 -3 70 -3q120 0 185.5 71.5t65.5 215.5q1 124 -59.5 192.5t-179.5 68.5q-49 0 -82 -7z" />
    <glyph glyph-name="E" unicode="E" horiz-adv-x="450" 
d="M388 387v-70h-233v-246h262v-71h-346v674h332v-71h-248v-216h233z" />
    <glyph glyph-name="F" unicode="F" horiz-adv-x="444" 
d="M71 0v674h331v-71h-247v-228h229v-70h-229v-305h-84z" />
    <glyph glyph-name="G" unicode="G" horiz-adv-x="583" 
d="M530 353v-327q-85 -33 -181 -33q-142 0 -224 82q-90 90 -90 256q1 163 92 256.5t239 93.5q86 0 147 -27l-20 -70q-55 25 -128 25q-109 0 -175.5 -70.5t-66.5 -202.5q0 -133 62.5 -203t167.5 -70q65 0 95 15v207h-121v68h203z" />
    <glyph glyph-name="H" unicode="H" horiz-adv-x="596" 
d="M71 674h84v-284h285v284h84v-674h-84v316h-285v-316h-84v674z" />
    <glyph glyph-name="I" unicode="I" horiz-adv-x="227" 
d="M71 674h84v-674h-84v674z" />
    <glyph glyph-name="J" unicode="J" horiz-adv-x="338" 
d="M190 218v456h84v-461q0 -121 -50 -172t-140 -51q-45 0 -80 13l11 69q27 -10 63 -10q57 0 84.5 33.5t27.5 122.5z" />
    <glyph glyph-name="K" unicode="K" horiz-adv-x="501" 
d="M71 0v674h84v-324h3q21 33 50 75l181 249h101l-220 -287l235 -387h-97l-196 329l-57 -71v-258h-84z" />
    <glyph glyph-name="L" unicode="L" horiz-adv-x="434" 
d="M71 0v674h84v-603h258v-71h-342z" />
    <glyph glyph-name="M" unicode="M" horiz-adv-x="742" 
d="M607 0l-15 294q-11 202 -10 283h-3q-33 -122 -75 -250l-109 -323h-60l-101 315q-47 150 -70 258h-3q-4 -150 -12 -290l-16 -287h-79l45 674h103l104 -321q44 -142 64 -229h2q20 86 65 229l107 321h104l41 -674h-82z" />
    <glyph glyph-name="N" unicode="N" horiz-adv-x="600" 
d="M149 0h-78v674h89l188 -333q67 -119 110 -224l2 1q-9 121 -9 286v270h78v-674h-83l-189 336q-75 136 -112 227l-3 -1q7 -101 7 -290v-272z" />
    <glyph glyph-name="O" unicode="O" horiz-adv-x="616" 
d="M304 -10h-1q-120 0 -194 93.5t-74 249.5q0 160 77.5 255.5t200.5 95.5q122 0 194.5 -93.5t72.5 -247.5q0 -170 -78 -261.5t-198 -91.5zM307 60h1q88 0 136 81t48 199q0 110 -47.5 192t-136.5 82q-90 0 -137.5 -82t-47.5 -197q0 -112 48.5 -193.5t135.5 -81.5z" />
    <glyph glyph-name="P" unicode="P" horiz-adv-x="492" 
d="M71 0v666q72 13 151 13q118 0 177 -54q56 -51 56 -141t-49 -142q-64 -75 -192 -75q-38 0 -59 5v-272h-84zM155 606v-265q19 -6 60 -6q73 0 114.5 37.5t41.5 106.5q0 63 -38 98t-108 35q-42 0 -70 -6z" />
    <glyph glyph-name="Q" unicode="Q" horiz-adv-x="616" 
d="M588 -26l-26 -70q-90 26 -227 76q-26 10 -36 10q-115 3 -189.5 92.5t-74.5 249.5q0 162 77.5 257t201.5 95q121 0 193.5 -93.5t72.5 -247.5q0 -128 -45.5 -210t-122.5 -111v-4q89 -25 176 -44zM307 60h1q87 0 135.5 81t48.5 199q0 111 -47 192.5t-135 81.5
q-61 0 -105 -41.5t-63 -103.5t-19 -135q0 -113 48.5 -193.5t135.5 -80.5z" />
    <glyph glyph-name="R" unicode="R" horiz-adv-x="500" 
d="M71 0v665q64 14 151 14q125 0 182 -53q51 -48 51 -129q0 -63 -33 -107.5t-88 -65.5v-2q71 -24 96 -141q32 -150 48 -181h-86q-14 26 -42 163q-14 70 -43 99.5t-85 30.5h-67v-293h-84zM155 606v-249h72q66 0 105 35.5t39 94.5q0 63 -37.5 94.5t-105.5 31.5q-50 0 -73 -7z
" />
    <glyph glyph-name="S" unicode="S" horiz-adv-x="453" 
d="M38 30l21 71q60 -39 138 -39q62 0 97.5 31.5t35.5 83.5q0 45 -27.5 76t-88.5 59q-163 66 -163 190q0 79 57 130t149 51q82 0 132 -30l-22 -70q-48 29 -113 29q-59 0 -89 -30t-30 -69q0 -46 28 -74t96 -58q80 -38 117.5 -84.5t37.5 -113.5q0 -84 -58.5 -138t-163.5 -54
q-43 0 -86.5 11.5t-67.5 27.5z" />
    <glyph glyph-name="T" unicode="T" horiz-adv-x="454" 
d="M185 0v602h-181v72h446v-72h-181v-602h-84z" />
    <glyph glyph-name="U" unicode="U" horiz-adv-x="590" 
d="M71 674h84v-415q0 -102 37.5 -150.5t100.5 -48.5q143 0 143 199v415h84v-407q0 -142 -62.5 -209.5t-167.5 -67.5q-102 0 -160.5 65t-58.5 206v413z" />
    <glyph glyph-name="V" unicode="V" horiz-adv-x="517" 
d="M299 0h-91l-201 674h91l93 -327q43 -151 65 -254h2q20 98 67 253l99 328h90z" />
    <glyph glyph-name="W" unicode="W" horiz-adv-x="788" 
d="M261 0h-86l-158 674h88l74 -336q26 -121 44 -236h3q8 55 50 237l82 335h83l76 -334q34 -151 45 -237h3q16 97 48 237l79 334h85l-173 -674h-86l-79 344q-31 132 -42 221h-2q-13 -94 -47 -222z" />
    <glyph glyph-name="X" unicode="X" horiz-adv-x="517" 
d="M496 0h-95l-79 153q-32 56 -67 128h-2q-29 -65 -63 -129l-74 -152h-94l186 342l-179 332h94l81 -158q30 -56 56 -112h2q24 55 54 113l80 157h94l-183 -328z" />
    <glyph glyph-name="Y" unicode="Y" horiz-adv-x="497" 
d="M290 0h-84v286l-194 388h94l84 -181q42 -91 62 -143h2q19 53 62 144l85 180h93l-204 -387v-287z" />
    <glyph glyph-name="Z" unicode="Z" horiz-adv-x="495" 
d="M27 0v49l331 551v3h-303v71h408v-53l-328 -547v-3h331v-71h-439z" />
    <glyph glyph-name="bracketleft" unicode="[" horiz-adv-x="275" 
d="M252 -112h-173v798h173v-54h-106v-690h106v-54z" />
    <glyph glyph-name="backslash" unicode="\" horiz-adv-x="318" 
d="M316 -40h-65l-249 724h65z" />
    <glyph glyph-name="bracketright" unicode="]" horiz-adv-x="275" 
d="M23 686h173v-798h-173v54h106v690h-106v54z" />
    <glyph glyph-name="asciicircum" unicode="^" horiz-adv-x="596" 
d="M535 189h-68l-168 388h-2l-167 -388h-68l206 461h61z" />
    <glyph glyph-name="underscore" unicode="_" horiz-adv-x="500" 
d="M0 -75h500v-50h-500v50z" />
    <glyph glyph-name="grave" unicode="`" 
d="M27 690h91l85 -141h-59z" />
    <glyph glyph-name="a" unicode="a" horiz-adv-x="447" 
d="M382 303v-189q0 -76 7 -114h-76l-7 58h-3q-46 -68 -133 -68q-63 0 -100 40.5t-37 98.5q0 87 70 133t195 45v12q0 21 -3.5 38t-13.5 35t-31 28t-52 10q-65 0 -112 -33l-19 58q60 39 145 39q170 0 170 -191zM300 160v88q-183 2 -183 -110q0 -42 21.5 -63t53.5 -21
q40 0 67.5 22t36.5 56q4 12 4 28z" />
    <glyph glyph-name="b" unicode="b" horiz-adv-x="518" 
d="M67 122v583h84v-292h2q45 81 146 81q81 0 132 -67.5t51 -178.5q0 -123 -58 -190.5t-138 -67.5q-97 0 -143 85h-3l-4 -75h-73q4 64 4 122zM151 289v-102q0 -17 3 -31q12 -47 43.5 -72.5t71.5 -25.5q61 0 94.5 51.5t33.5 134.5q0 78 -33 130t-94 52q-39 0 -72 -29t-43 -73
q-4 -20 -4 -35z" />
    <glyph glyph-name="c" unicode="c" horiz-adv-x="404" 
d="M366 80l13 -64q-48 -25 -121 -25q-100 0 -161 67t-61 180q0 111 66 183.5t174 72.5q66 0 106 -23l-19 -65q-40 20 -88 20q-72 0 -112.5 -53t-40.5 -132q0 -83 42 -132t110 -49q46 0 92 20z" />
    <glyph glyph-name="d" unicode="d" horiz-adv-x="514" 
d="M363 705h84v-583q0 -58 4 -122h-74l-5 77h-3q-18 -38 -56.5 -62.5t-88.5 -24.5q-82 0 -135 68t-53 179q0 119 57 188t139 69q92 0 129 -68h2v279zM363 194v97q0 19 -3 36q-9 42 -39 70.5t-72 28.5q-60 0 -94 -52.5t-34 -133.5q0 -78 33 -129.5t93 -51.5q38 0 69 25.5
t43 73.5q4 13 4 36z" />
    <glyph glyph-name="e" unicode="e" horiz-adv-x="460" 
d="M422 229h-304q1 -90 43 -131t107 -41q68 0 118 23l14 -61q-58 -28 -144 -28q-103 0 -161.5 66t-58.5 178q0 113 57 186t152 73q50 0 87 -21t56 -55.5t28 -71t9 -75.5q0 -27 -3 -42zM119 290h225q1 58 -25 100t-82 42q-53 0 -83 -43t-35 -99z" />
    <glyph glyph-name="f" unicode="f" horiz-adv-x="273" 
d="M162 0h-84v420h-66v64h66v25q0 110 52 162q43 44 111 44q41 0 71 -13l-12 -66q-24 10 -52 10q-86 0 -86 -135v-27h108v-64h-108v-420z" />
    <glyph glyph-name="g" unicode="g" horiz-adv-x="511" 
d="M444 346v-278q0 -158 -62 -218q-59 -56 -162 -56q-89 0 -145 35l21 65q54 -33 126 -33q139 0 139 162v53h-2q-18 -34 -53.5 -54.5t-81.5 -20.5q-82 0 -134.5 67.5t-52.5 170.5q0 119 59 187t139 68q90 0 133 -77h2l4 67h74q-4 -68 -4 -138zM360 197v103q0 23 -4 38
q-12 38 -39.5 63t-68.5 25q-57 0 -91.5 -50t-34.5 -133q0 -79 33.5 -127.5t92.5 -48.5q35 0 64 21.5t42 62.5q6 18 6 46z" />
    <glyph glyph-name="h" unicode="h" horiz-adv-x="510" 
d="M68 0v705h84v-289h2q20 34 56 56q38 22 83 22q26 0 50.5 -9.5t48 -30.5t38 -61t14.5 -95v-298h-84v289q0 60 -23.5 97.5t-74.5 37.5q-37 0 -65 -23.5t-40 -61.5q-5 -14 -5 -40v-299h-84z" />
    <glyph glyph-name="i" unicode="i" horiz-adv-x="219" 
d="M152 0h-84v484h84v-484zM109 564h-1q-22 0 -36.5 15t-14.5 38t15 38.5t37 15.5q23 0 37.5 -15.5t14.5 -38.5t-14 -38t-38 -15z" />
    <glyph glyph-name="j" unicode="j" horiz-adv-x="227" 
d="M-31 -208l-9 67q61 7 86 37q17 21 24 58t7 116v414h84v-445q0 -137 -55 -195q-50 -50 -137 -52zM119 564h-1q-23 0 -37 15.5t-14 37.5q0 23 15 38.5t38 15.5t37 -15t14 -39q0 -22 -14.5 -37.5t-37.5 -15.5z" />
    <glyph glyph-name="k" unicode="k" horiz-adv-x="434" 
d="M151 705v-444h2q12 19 37 55l129 168h99l-169 -201l191 -283h-101l-148 231l-40 -49v-182h-84v705h84z" />
    <glyph glyph-name="l" unicode="l" horiz-adv-x="222" 
d="M68 0v705h84v-705h-84z" />
    <glyph glyph-name="m" unicode="m" horiz-adv-x="770" 
d="M67 0v355q0 49 -4 129h74l4 -73h2q47 83 140 83q44 0 77.5 -24t48.5 -66h2q20 38 52 61q40 29 94 29q59 0 103 -46.5t44 -151.5v-296h-83v282q0 142 -94 142q-33 0 -58 -21.5t-36 -55.5q-6 -19 -6 -44v-303h-83v298q0 56 -22.5 91t-67.5 35q-35 0 -62 -24.5t-36 -60.5
q-6 -19 -6 -43v-296h-83z" />
    <glyph glyph-name="n" unicode="n" horiz-adv-x="510" 
d="M68 0v355q0 49 -4 129h74l5 -73h2q19 35 57 59t88 24q61 0 107.5 -46t46.5 -148v-300h-84v289q0 135 -98 135q-37 0 -65.5 -24.5t-39.5 -62.5q-5 -18 -5 -41v-296h-84z" />
    <glyph glyph-name="o" unicode="o" horiz-adv-x="499" 
d="M247 -10h-1q-91 0 -150.5 66.5t-59.5 182.5q0 121 61.5 188t155.5 67t152 -67t58 -182q0 -127 -64.5 -191t-151.5 -64zM249 54h1q57 0 92 55.5t35 133.5q0 44 -11.5 84.5t-41.5 71.5t-74 31q-64 0 -96 -57t-32 -132q0 -77 34.5 -132t92.5 -55z" />
    <glyph glyph-name="p" unicode="p" horiz-adv-x="518" 
d="M67 -196v524q0 72 -4 156h75l5 -76h2q51 86 151 86q82 0 134 -67.5t52 -178.5q0 -125 -58 -191.5t-141 -66.5q-90 0 -130 70h-2v-256h-84zM151 287v-96q0 -21 4 -37q11 -46 42.5 -71t70.5 -25q62 0 95.5 51.5t33.5 134.5q0 78 -33.5 129.5t-93.5 51.5q-39 0 -71.5 -29
t-42.5 -73q-5 -18 -5 -36z" />
    <glyph glyph-name="q" unicode="q" horiz-adv-x="513" 
d="M363 -196v263h-3q-18 -34 -53.5 -55.5t-84.5 -21.5q-79 0 -132 67t-53 178q0 125 59.5 192t139.5 67q92 0 131 -78h2l3 68h79q-4 -76 -4 -138v-542h-84zM363 191v102q0 20 -3 35q-9 41 -39 69.5t-71 28.5q-60 0 -94 -52t-34 -134q0 -79 32 -130.5t94 -51.5q36 0 65.5 23
t43.5 68q6 20 6 42z" />
    <glyph glyph-name="r" unicode="r" horiz-adv-x="303" 
d="M67 0v341q0 59 -4 143h74l4 -90h3q15 45 49 72.5t75 27.5q8 0 22 -2v-82q-7 2 -25 2q-43 0 -73 -30.5t-38 -78.5q-3 -18 -3 -42v-261h-84z" />
    <glyph glyph-name="s" unicode="s" horiz-adv-x="364" 
d="M34 23l21 64q49 -32 105 -32q42 0 64.5 19.5t22.5 52.5q0 30 -18.5 50t-63.5 40q-119 51 -119 138q0 60 43.5 99.5t113.5 39.5q62 0 109 -28l-21 -62q-41 26 -89 26q-35 0 -55 -18.5t-20 -46.5q0 -27 18 -44.5t64 -38.5q119 -51 119 -146q0 -67 -46 -106t-124 -39
q-73 0 -124 32z" />
    <glyph glyph-name="t" unicode="t" horiz-adv-x="308" 
d="M86 571l83 28v-115h116v-64h-116v-269q0 -90 62 -90q25 0 45 5l3 -64q-29 -11 -72 -11q-59 0 -89 35q-32 36 -32 125v269h-70v64h70v87z" />
    <glyph glyph-name="u" unicode="u" horiz-adv-x="505" 
d="M437 484v-352q0 -56 4 -132h-74l-5 70h-2q-19 -32 -55.5 -56t-87.5 -24q-67 0 -109.5 48t-42.5 156v290h84v-276q0 -148 95 -148q38 0 64.5 23t37.5 53q7 23 7 45v303h84z" />
    <glyph glyph-name="v" unicode="v" horiz-adv-x="441" 
d="M13 484h90l85 -271q19 -61 34 -123h2q10 42 35 123l84 271h87l-171 -484h-79z" />
    <glyph glyph-name="w" unicode="w" horiz-adv-x="685" 
d="M16 484h87l59 -242q24 -102 33 -155h3q13 62 40 153l72 244h69l69 -239q30 -112 39 -158h3q9 53 34 157l62 240h84l-146 -484h-75l-68 232q-25 82 -38 156h-2q-12 -64 -40 -157l-71 -231h-76z" />
    <glyph glyph-name="x" unicode="x" horiz-adv-x="426" 
d="M16 484h93l62 -103q28 -49 44 -81h2q24 46 44 81l60 103h91l-150 -235l153 -249h-95l-64 109q-12 20 -46 84h-2q-9 -20 -45 -84l-62 -109h-92l155 246z" />
    <glyph glyph-name="y" unicode="y" horiz-adv-x="434" 
d="M10 484h91l94 -284q17 -56 27 -99h3q10 42 27 101l85 282h88l-116 -334q-43 -124 -77 -194.5t-75 -111.5q-50 -49 -102 -62l-24 71q41 17 75 48q41 41 64 94q7 17 7 22q0 6 -5 21z" />
    <glyph glyph-name="z" unicode="z" horiz-adv-x="393" 
d="M17 0v50l199 289q12 18 56 75v2h-236v68h337l-1 -53l-197 -286q-30 -44 -55 -75v-2h255v-68h-358z" />
    <glyph glyph-name="braceleft" unicode="{" horiz-adv-x="275" 
d="M28 262v51q77 0 77 73q0 1 -6 85q-8 56 -8 85q0 66 37.5 98t101.5 32h18v-54h-17q-39 -1 -56 -22t-17 -61q0 -25 6 -73q7 -44 7 -76q1 -91 -71 -111v-2q72 -20 71 -112q0 -26 -6 -76q-7 -44 -7 -73q0 -80 74 -84h16v-54h-18q-63 0 -101 32t-38 102q0 19 7 84t7 83
q0 73 -77 73z" />
    <glyph glyph-name="bar" unicode="|" horiz-adv-x="227" 
d="M81 750h66v-1000h-66v1000z" />
    <glyph glyph-name="braceright" unicode="}" horiz-adv-x="275" 
d="M246 313v-51q-77 0 -77 -73q0 -27 8 -83q7 -65 7 -84q0 -70 -38 -102t-101 -32h-18v54h16q74 4 74 84q0 29 -7 73t-7 76q-1 92 71 112v2q-72 20 -71 111q0 32 7 76q7 42 7 73q0 40 -17 61t-56 22h-17v54h18q64 0 101.5 -32t37.5 -98q0 -29 -8 -85q-7 -65 -7 -85
q0 -73 77 -73z" />
    <glyph glyph-name="asciitilde" unicode="~" horiz-adv-x="596" 
d="M114 214h-58q-2 69 30.5 107t86.5 38q46 0 137 -44q84 -41 121 -41q52 0 52 82h58q4 -74 -28 -110t-84 -36t-139 43q-86 43 -119 43q-56 0 -57 -82z" />
    <glyph glyph-name="uni00A0" unicode="&#xa0;" horiz-adv-x="196" 
 />
    <glyph glyph-name="exclamdown" unicode="&#xa1;" horiz-adv-x="222" 
d="M157 -193h-92l13 480h66zM111 491h1q25 0 40 -17t15 -43t-15 -43t-41 -17q-25 0 -40.5 17t-15.5 43t16 43t40 17z" />
    <glyph glyph-name="cent" unicode="&#xa2;" horiz-adv-x="475" 
d="M307 -11h-60v100q-78 10 -127 64q-54 62 -54 173q0 95 49 161.5t132 80.5v99h60v-96q58 -1 96 -23l-18 -65q-38 23 -94 23q-65 0 -103 -52.5t-38 -126.5q0 -80 39.5 -127t100.5 -47q54 0 102 22l13 -61q-40 -23 -98 -26v-99z" />
    <glyph glyph-name="sterling" unicode="&#xa3;" horiz-adv-x="475" 
d="M436 0h-387v50q46 22 77 71t31 103q0 42 -5 74h-97v61h87q-12 70 -12 110q0 87 50.5 139t129.5 52q64 0 100 -23l-18 -65q-32 19 -81 19q-51 0 -76 -33t-25 -86q0 -45 12 -113h133v-61h-124q6 -76 -4 -116q-17 -63 -67 -109v-2h276v-71z" />
    <glyph glyph-name="currency" unicode="&#xa4;" horiz-adv-x="475" 
d="M238 532h1q65 0 108 -40l68 74l43 -44l-76 -71q31 -52 31 -118q0 -71 -32 -121l74 -74l-42 -43l-67 76q-42 -42 -110 -42t-108 40l-65 -74l-42 43l71 71q-33 50 -33 119t35 123l-75 70l44 45l66 -75q43 41 109 41zM237 471h-1q-49 0 -78 -39.5t-29 -101.5
q0 -66 32.5 -103t74.5 -37q44 -1 75.5 36t31.5 106q0 58 -28.5 98.5t-77.5 40.5z" />
    <glyph glyph-name="yen" unicode="&#xa5;" horiz-adv-x="475" 
d="M271 0h-79v179h-146v48h146v73h-146v48h123l-153 302h89l92 -202q23 -50 38 -94h3q12 38 38 96l96 200h86l-163 -302h123v-48h-147v-73h147v-48h-147v-179z" />
    <glyph glyph-name="brokenbar" unicode="&#xa6;" horiz-adv-x="227" 
d="M81 174h66v-350h-66v350zM81 674h66v-350h-66v350z" />
    <glyph glyph-name="section" unicode="&#xa7;" horiz-adv-x="483" 
d="M119 352v-1q0 -54 98 -92q78 -29 109 -50q38 26 38 77q0 60 -83 93q-101 41 -117 51q-45 -30 -45 -78zM390 652l-20 -55q-48 29 -110 29q-42 0 -70.5 -19.5t-28.5 -54.5t27.5 -54t89.5 -41q76 -27 115.5 -61.5t39.5 -96.5q0 -71 -63 -121q37 -35 37 -88q0 -72 -53.5 -110
t-128.5 -38q-94 0 -147 39l22 56q55 -38 125 -38q46 0 76 21t30 60q0 34 -25.5 56.5t-91.5 48.5q-82 31 -122.5 65t-40.5 92q0 67 72 117q-36 30 -36 83q0 65 50.5 103t125.5 38q74 0 127 -31z" />
    <glyph glyph-name="dieresis" unicode="&#xa8;" 
d="M62 569h-1q-21 0 -34.5 14t-13.5 35q0 20 14.5 34.5t34.5 14.5t33.5 -14t13.5 -35t-13 -35t-34 -14zM239 569h-2q-20 0 -33.5 14.5t-13.5 34.5t14 34.5t35 14.5q20 0 33.5 -14t13.5 -35t-13 -35t-34 -14z" />
    <glyph glyph-name="copyright" unicode="&#xa9;" horiz-adv-x="677" 
d="M340 648h1q126 0 213.5 -90t87.5 -218q0 -129 -87.5 -219.5t-214.5 -90.5q-128 0 -216.5 90.5t-88.5 219.5q0 128 88.5 218t216.5 90zM340 607h-1q-107 0 -180.5 -78t-73.5 -192q0 -112 73.5 -189t181.5 -77q106 -1 179 77t73 192q0 112 -73 189.5t-179 77.5zM474 494
l-12 -40q-37 23 -97 23q-67 0 -103.5 -39t-36.5 -101t37 -101.5t103 -39.5q59 0 102 25l12 -37q-47 -31 -123 -31q-85 0 -134 51.5t-49 129.5q0 83 56 134.5t136 51.5q35 0 66 -8.5t43 -17.5z" />
    <glyph glyph-name="ordfeminine" unicode="&#xaa;" horiz-adv-x="324" 
d="M286 265h-56l-6 40h-2q-34 -45 -93 -45q-44 0 -70.5 26.5t-26.5 67.5q0 56 50 86.5t137 28.5v11q0 22 -16 42t-54 20q-45 0 -79 -25l-15 42q44 31 106 31q120 0 120 -134v-114q0 -48 5 -77zM220 367v59q-126 2 -126 -67q0 -24 16 -38t39 -14q39 0 62 35q9 14 9 25z" />
    <glyph glyph-name="guillemotleft" unicode="&#xab;" horiz-adv-x="400" 
d="M219 433l-125 -181l125 -181h-69l-123 181l124 181h68zM377 433l-125 -181l125 -181h-69l-123 181l123 181h69z" />
    <glyph glyph-name="logicalnot" unicode="&#xac;" horiz-adv-x="596" 
d="M40 399h516v-278h-62v220h-454v58z" />
    <glyph glyph-name="uni00AD" unicode="&#xad;" horiz-adv-x="298" 
d="M30 299h238v-63h-238v63z" />
    <glyph glyph-name="registered" unicode="&#xae;" horiz-adv-x="405" 
d="M177 502v-65h-37v162q35 5 61 5q37 0 55 -13q17 -10 17 -34q0 -27 -34 -38v-2q21 -7 29 -40q6 -27 12 -40h-39q-5 6 -12 40q-6 25 -34 25h-18zM177 575v-46h18q38 0 38 23q0 25 -35 25q-11 0 -21 -2zM203 683h1q68 0 115.5 -47t47.5 -114q0 -69 -47.5 -116.5
t-116.5 -47.5t-117.5 47.5t-48.5 116.5q0 67 48.5 114t117.5 47zM202 650h-1q-52 0 -87.5 -37t-35.5 -91q0 -55 35.5 -92.5t89.5 -37.5q53 -1 88 36.5t35 92.5t-35 92t-89 37z" />
    <glyph glyph-name="macron" unicode="&#xaf;" 
d="M43 639h216v-55h-216v55z" />
    <glyph glyph-name="degree" unicode="&#xb0;" horiz-adv-x="306" 
d="M159 685h1q57 0 92.5 -38t35.5 -91q0 -57 -39.5 -94.5t-91.5 -37.5q-55 0 -91.5 37.5t-36.5 90.5q0 56 38 94.5t92 38.5zM158 640h-1q-34 0 -55 -26.5t-21 -61.5t22 -59t55 -24q34 0 56 24.5t22 61.5q0 34 -20 59.5t-58 25.5z" />
    <glyph glyph-name="plusminus" unicode="&#xb1;" horiz-adv-x="596" 
d="M267 570h62v-194h227v-58h-227v-201h-62v201h-227v58h227v194zM40 58h516v-58h-516v58z" />
    <glyph glyph-name="twosuperior" unicode="&#xb2;" horiz-adv-x="291" 
d="M9 435v35l57 56q62 61 91.5 102t29.5 79q0 31 -18.5 49.5t-52.5 18.5q-42 0 -78 -30l-20 45q46 40 115 40q62 0 93.5 -32.5t31.5 -78.5q0 -50 -32 -95.5t-92 -101.5l-30 -31v-2h161v-54h-256z" />
    <glyph glyph-name="threesuperior" unicode="&#xb3;" horiz-adv-x="284" 
d="M41 754l-17 46q47 30 107 30q57 0 86.5 -27t29.5 -66q0 -62 -72 -90v-2q38 -6 62.5 -32.5t24.5 -64.5q0 -50 -40.5 -84t-110.5 -34q-63 0 -104 26l16 49q36 -24 86 -24q39 0 61 20t22 48q0 36 -29 54t-73 18h-21v45h21q32 0 60 16t28 47q0 22 -15.5 36t-44.5 14
q-43 0 -77 -25z" />
    <glyph glyph-name="acute" unicode="&#xb4;" 
d="M189 690h91l-117 -141h-59z" />
    <glyph glyph-name="mu" unicode="&#xb5;" horiz-adv-x="507" 
d="M367 68h-3q-15 -29 -47.5 -52t-75.5 -23q-68 0 -95 48v-63q0 -126 10 -174h-75q-14 39 -14 168v512h84v-296q0 -57 23.5 -92.5t72.5 -35.5q38 0 65 23t37 53q7 21 7 45v303h84v-359q0 -37 9 -53t32 -17l-7 -61q-12 -4 -29 -4q-67 0 -78 78z" />
    <glyph glyph-name="paragraph" unicode="&#xb6;" horiz-adv-x="479" 
d="M275 -50h-58v317h-7q-62 0 -118 49.5t-59 137.5q-3 92 59 156.5t201 64.5q65 0 108 -8v-717h-58v668h-68v-668z" />
    <glyph glyph-name="periodcentered" unicode="&#xb7;" horiz-adv-x="203" 
d="M101 201h-1q-24 0 -40 17.5t-16 43.5t16.5 43.5t40.5 17.5q25 0 41 -17t16 -44q0 -26 -16 -43.5t-41 -17.5z" />
    <glyph glyph-name="cedilla" unicode="&#xb8;" 
d="M139 3h52l-31 -53q28 -4 48 -23t20 -47q0 -41 -28.5 -60.5t-71.5 -19.5q-40 0 -68 18l15 42q24 -15 53 -15q41 0 41 31q0 36 -75 43z" />
    <glyph glyph-name="onesuperior" unicode="&#xb9;" horiz-adv-x="235" 
d="M171 435h-67v330h-2l-72 -36l-11 51l93 45h59v-390z" />
    <glyph glyph-name="ordmasculine" unicode="&#xba;" horiz-adv-x="339" 
d="M171 590h1q66 0 105 -44.5t39 -118.5q-1 -82 -44.5 -124.5t-102.5 -42.5q-63 0 -104.5 44t-41.5 119q0 77 43 122t105 45zM169 541h-1q-39 0 -60 -36t-21 -81q0 -47 23.5 -81t58.5 -34q38 0 60.5 33.5t22.5 82.5q0 44 -20.5 80t-62.5 36z" />
    <glyph glyph-name="guillemotright" unicode="&#xbb;" horiz-adv-x="400" 
d="M148 252l-125 181h68l124 -181l-123 -181h-69zM305 252l-125 181h68l124 -181l-123 -181h-69z" />
    <glyph glyph-name="onequarter" unicode="&#xbc;" horiz-adv-x="715" 
d="M192 265h-67v330h-2l-72 -36l-11 51l93 45h59v-390zM183 -10h-54l368 670h53zM625 0h-63v104h-184v38l178 252h69v-242h56v-48h-56v-104zM562 152v113q0 11 3 65h-2q-7 -12 -18 -31.5t-15 -26.5l-84 -118l1 -2h115z" />
    <glyph glyph-name="onehalf" unicode="&#xbd;" horiz-adv-x="715" 
d="M177 265h-67v330h-2l-72 -36l-11 51l93 45h59v-390zM162 -10h-54l367 670h54zM415 0v35l56 55q62 62 91.5 103t29.5 79q0 31 -18.5 49.5t-52.5 18.5q-39 0 -78 -30l-20 45q46 40 115 40q62 0 93.5 -32.5t31.5 -78.5q0 -51 -31 -95t-93 -102l-30 -31v-2h161v-54h-255z" />
    <glyph glyph-name="threequarters" unicode="&#xbe;" horiz-adv-x="715" 
d="M64 584l-17 46q47 30 106 30q57 0 87 -27t30 -66q0 -62 -72 -90v-2q38 -5 62.5 -32t24.5 -66q0 -49 -40.5 -83t-110.5 -34q-63 0 -104 26l16 48q38 -23 86 -23q39 0 61 19.5t22 47.5q0 36 -29 54.5t-73 18.5h-21v45h21q32 0 60 16t28 47q0 22 -15.5 36t-44.5 14
q-43 0 -77 -25zM214 -10h-55l369 670h54zM634 0h-63v104h-185v38l179 252h69v-242h56v-48h-56v-104zM571 152v113q0 14 3 65h-2q-5 -9 -15.5 -28.5t-17.5 -29.5l-86 -118l1 -2h117z" />
    <glyph glyph-name="questiondown" unicode="&#xbf;" horiz-adv-x="377" 
d="M219 491h1q24 0 39.5 -17t15.5 -44q0 -26 -15.5 -43t-40.5 -17q-26 0 -41.5 17t-15.5 43q0 27 16 44t41 17zM179 291h75l2 -22q11 -90 -56 -179q-35 -46 -50.5 -77t-15.5 -64q0 -40 23 -62t66 -22q52 0 91 27l22 -62q-52 -36 -130 -36t-118.5 42t-40.5 103q0 32 13.5 66
t27.5 54t42 57q56 74 50 152z" />
    <glyph glyph-name="Agrave" unicode="&#xc0;" horiz-adv-x="559" 
d="M384 209h-212l-62 -209h-86l207 674h99l206 -674h-88zM188 275h181l-58 187q-14 50 -32 132h-3q-18 -84 -31 -131zM138 824h102l93 -114h-68z" />
    <glyph glyph-name="Aacute" unicode="&#xc1;" horiz-adv-x="559" 
d="M384 209h-212l-62 -209h-86l207 674h99l206 -674h-88zM188 275h181l-58 187q-14 50 -32 132h-3q-18 -84 -31 -131zM323 824h101l-126 -114h-69z" />
    <glyph glyph-name="Acircumflex" unicode="&#xc2;" horiz-adv-x="559" 
d="M384 209h-212l-62 -209h-86l207 674h99l206 -674h-88zM188 275h181l-58 187q-14 50 -32 132h-3q-18 -84 -31 -131zM249 819h67l100 -109h-72l-60 65h-2l-60 -65h-70z" />
    <glyph glyph-name="Atilde" unicode="&#xc3;" horiz-adv-x="559" 
d="M384 209h-212l-62 -209h-86l207 674h99l206 -674h-88zM187 275h182l-58 187q-14 50 -32 132h-3q-18 -85 -32 -131zM209 716h-45q-1 45 16.5 72t48.5 27q22 0 56 -19q32 -18 46 -18q13 0 19 8.5t8 30.5h44q2 -95 -65 -95q-24 0 -58 18q-32 18 -44 18q-21 0 -26 -42z" />
    <glyph glyph-name="Adieresis" unicode="&#xc4;" horiz-adv-x="559" 
d="M384 209h-212l-62 -209h-86l207 674h99l205 -674h-88zM188 275h180l-57 187q-14 50 -32 132h-3q-18 -84 -31 -131zM194 719h-1q-20 0 -33 14.5t-13 35.5q0 20 14 34.5t34 14.5t33 -14t13 -35q0 -22 -13 -36t-34 -14zM372 719h-1q-20 0 -33 14.5t-13 35.5q0 20 13.5 34.5
t33.5 14.5q21 0 34 -14t13 -35q0 -22 -13 -36t-34 -14z" />
    <glyph glyph-name="Aring" unicode="&#xc5;" horiz-adv-x="559" 
d="M384 209h-212l-62 -209h-85l206 674h99l205 -674h-88zM188 275h180l-57 187q-14 50 -32 132h-3q-18 -84 -31 -131zM282 876h1q44 0 70 -25.5t26 -64.5q0 -37 -27 -62.5t-70 -25.5q-44 0 -71 25.5t-27 62.5q0 38 27 64t71 26zM281 840h-1q-21 0 -33.5 -16t-12.5 -38
q0 -20 13.5 -35.5t33.5 -15.5q21 0 34.5 15t13.5 37t-13.5 37.5t-34.5 15.5z" />
    <glyph glyph-name="AE" unicode="&#xc6;" horiz-adv-x="718" 
d="M88 0h-86l277 674h386l-1 -71h-255l21 -218h228v-70h-218l25 -244h226v-71h-299l-25 233h-185zM207 301h152l-19 197q-1 11 -3.5 35.5t-4 44.5t-2.5 36h-5q-20 -60 -41 -117z" />
    <glyph glyph-name="Ccedilla" unicode="&#xc7;" horiz-adv-x="529" 
d="M473 87l16 -69q-53 -26 -147 -27l-25 -41q29 -6 49 -25.5t20 -48.5q0 -40 -29 -60t-70 -20q-39 0 -70 17l15 44q23 -14 53 -14q41 0 41 31q0 34 -75 43l40 77q-117 14 -186.5 100t-69.5 236q0 166 89.5 259.5t228.5 93.5q90 0 137 -26l-20 -69q-48 24 -115 24
q-104 0 -168 -71.5t-64 -205.5q0 -131 61.5 -201.5t167.5 -70.5q73 0 121 24z" />
    <glyph glyph-name="Egrave" unicode="&#xc8;" horiz-adv-x="450" 
d="M388 387v-70h-233v-246h262v-71h-346v674h332v-71h-248v-216h233zM101 824h101l93 -114h-68z" />
    <glyph glyph-name="Eacute" unicode="&#xc9;" horiz-adv-x="450" 
d="M388 387v-70h-233v-246h262v-71h-346v674h332v-71h-248v-216h233zM285 824h102l-127 -114h-68z" />
    <glyph glyph-name="Ecircumflex" unicode="&#xca;" horiz-adv-x="450" 
d="M388 387v-70h-233v-246h262v-71h-346v674h332v-71h-248v-216h233zM203 819h67l99 -109h-72l-60 65h-2l-60 -65h-70z" />
    <glyph glyph-name="Edieresis" unicode="&#xcb;" horiz-adv-x="450" 
d="M388 387v-70h-233v-246h262v-71h-346v674h332v-71h-248v-216h233zM147 722h-1q-20 0 -33 14t-13 35t14 35.5t34 14.5t33 -14.5t13 -35.5t-13 -35t-34 -14zM325 722h-1q-20 0 -33 14t-13 35t13.5 35.5t33.5 14.5q21 0 34 -14.5t13 -35.5t-13 -35t-34 -14z" />
    <glyph glyph-name="Igrave" unicode="&#xcc;" horiz-adv-x="227" 
d="M71 674h84v-674h-84v674zM-31 824h102l93 -114h-68z" />
    <glyph glyph-name="Iacute" unicode="&#xcd;" horiz-adv-x="227" 
d="M71 674h84v-674h-84v674zM153 824h102l-127 -114h-68z" />
    <glyph glyph-name="Icircumflex" unicode="&#xce;" horiz-adv-x="227" 
d="M71 674h84v-674h-84v674zM80 819h66l100 -109h-72l-60 65h-2l-60 -65h-70z" />
    <glyph glyph-name="Idieresis" unicode="&#xcf;" horiz-adv-x="227" 
d="M71 674h84v-674h-84v674zM25 722h-1q-20 0 -33 14.5t-13 35.5q0 20 14 34.5t34 14.5t33 -14t13 -35q0 -22 -13 -36t-34 -14zM203 722h-1q-20 0 -33 14.5t-13 35.5q0 20 13.5 34.5t33.5 14.5q21 0 34 -14t13 -35q0 -22 -13 -36t-34 -14z" />
    <glyph glyph-name="Eth" unicode="&#xd0;" horiz-adv-x="606" 
d="M-1 312v66h78v288q72 14 160 14q160 0 239 -73q94 -84 94 -254q0 -176 -92 -270q-88 -90 -265 -90q-69 0 -136 7v312h-78zM318 378v-66h-157v-247q19 -3 70 -3q121 0 186 72t65 218q1 125 -59.5 193t-179.5 68q-49 0 -82 -7v-228h157z" />
    <glyph glyph-name="Ntilde" unicode="&#xd1;" horiz-adv-x="600" 
d="M149 0h-78v674h89l188 -333q67 -119 110 -224l2 1q-9 121 -9 286v270h78v-674h-84l-188 336q-81 149 -112 227l-3 -1q7 -101 7 -290v-272zM231 716h-45q-1 45 16.5 72t48.5 27q20 0 56 -19q32 -18 45 -18t19 8.5t8 30.5h44q2 -95 -65 -95q-22 0 -58 18q-31 18 -44 18
q-20 0 -25 -42z" />
    <glyph glyph-name="Ograve" unicode="&#xd2;" horiz-adv-x="616" 
d="M304 -10h-1q-120 0 -194 93.5t-74 249.5q0 160 77.5 255.5t200.5 95.5q122 0 194.5 -93.5t72.5 -247.5q0 -170 -78 -261.5t-198 -91.5zM307 60h1q88 0 136 81t48 199q0 110 -47.5 192t-136.5 82q-90 0 -137.5 -82t-47.5 -197q0 -112 48.5 -193.5t135.5 -81.5zM165 826
h102l93 -114h-68z" />
    <glyph glyph-name="Oacute" unicode="&#xd3;" horiz-adv-x="616" 
d="M304 -10h-1q-120 0 -194 93.5t-74 249.5q0 160 77.5 255.5t200.5 95.5q122 0 194.5 -93.5t72.5 -247.5q0 -170 -78 -261.5t-198 -91.5zM307 60h1q88 0 136 81t48 199q0 110 -47.5 192t-136.5 82q-90 0 -137.5 -82t-47.5 -197q0 -112 48.5 -193.5t135.5 -81.5zM350 826
h101l-126 -114h-69z" />
    <glyph glyph-name="Ocircumflex" unicode="&#xd4;" horiz-adv-x="616" 
d="M304 -10h-1q-120 0 -194 93.5t-74 249.5q0 160 77.5 255.5t200.5 95.5q122 0 194.5 -93.5t72.5 -247.5q0 -170 -78 -261.5t-198 -91.5zM307 60h1q88 0 136 81t48 199q0 110 -47.5 192t-136.5 82q-90 0 -137.5 -82t-47.5 -197q0 -112 48.5 -193.5t135.5 -81.5zM274 821h67
l99 -109h-71l-61 65h-2l-60 -65h-70z" />
    <glyph glyph-name="Otilde" unicode="&#xd5;" horiz-adv-x="616" 
d="M304 -10h-1q-120 0 -194 93.5t-74 249.5q0 160 77.5 255.5t200.5 95.5q122 0 194.5 -93.5t72.5 -247.5q0 -170 -78 -261.5t-198 -91.5zM307 60h1q88 0 136 81t48 199q0 69 -18.5 129.5t-61.5 102.5t-103 42q-90 0 -138 -82t-48 -197q0 -112 48.5 -193.5t135.5 -81.5z
M234 717h-45q-1 45 16.5 72t48.5 27q22 0 56 -19q32 -18 46 -18q13 0 19 8.5t8 30.5h44q2 -95 -65 -95q-24 0 -58 18q-32 18 -44 18q-21 0 -26 -42z" />
    <glyph glyph-name="Odieresis" unicode="&#xd6;" horiz-adv-x="616" 
d="M304 -10h-1q-120 0 -194 93.5t-74 249.5q0 160 77.5 255.5t200.5 95.5q122 0 194.5 -93.5t72.5 -247.5q0 -170 -78 -261.5t-198 -91.5zM307 60h1q88 0 136 81t48 199q0 69 -18.5 129.5t-61.5 102.5t-103 42q-90 0 -138 -82t-48 -197q0 -112 49 -193.5t135 -81.5zM219 722
h-1q-20 0 -33 14.5t-13 35.5q0 20 14 34.5t34 14.5t33 -14t13 -35q0 -22 -13 -36t-34 -14zM397 722h-1q-20 0 -33 14.5t-13 35.5q0 20 13.5 34.5t33.5 14.5q21 0 34 -14t13 -35q0 -22 -13 -36t-34 -14z" />
    <glyph glyph-name="multiply" unicode="&#xd7;" horiz-adv-x="596" 
d="M40 483l42 43l215 -221l217 221l42 -43l-216 -220l215 -220l-42 -43l-215 220l-216 -220l-42 43l216 220z" />
    <glyph glyph-name="Oslash" unicode="&#xd8;" horiz-adv-x="616" 
d="M104 -41l-47 34l56 90q-78 94 -78 252q0 159 77.5 254t197.5 95q84 0 149 -49l50 77l51 -31l-55 -88q76 -95 76 -250q0 -171 -78 -262t-194 -91q-87 0 -151 51zM162 162l257 407q-48 46 -110 46q-90 0 -139.5 -82t-49.5 -195q0 -95 40 -177zM455 513l-258 -405
q44 -49 111 -49q89 0 138.5 81.5t49.5 199.5q0 98 -39 172z" />
    <glyph glyph-name="Ugrave" unicode="&#xd9;" horiz-adv-x="590" 
d="M71 674h84v-415q0 -102 37.5 -150.5t100.5 -48.5q143 0 143 199v415h84v-407q0 -142 -62.5 -209.5t-167.5 -67.5q-102 0 -160.5 65t-58.5 206v413zM155 824h102l93 -114h-68z" />
    <glyph glyph-name="Uacute" unicode="&#xda;" horiz-adv-x="590" 
d="M71 674h84v-415q0 -102 37.5 -150.5t100.5 -48.5q143 0 143 199v415h84v-407q0 -142 -62.5 -209.5t-167.5 -67.5q-102 0 -160.5 65t-58.5 206v413zM341 824h102l-127 -114h-68z" />
    <glyph glyph-name="Ucircumflex" unicode="&#xdb;" horiz-adv-x="590" 
d="M71 674h84v-415q0 -102 37.5 -150.5t100.5 -48.5q143 0 143 199v415h84v-407q0 -142 -62.5 -209.5t-167.5 -67.5q-102 0 -160.5 65t-58.5 206v413zM266 819h67l100 -109h-72l-60 65h-2l-60 -65h-70z" />
    <glyph glyph-name="Udieresis" unicode="&#xdc;" horiz-adv-x="590" 
d="M71 674h84v-415q0 -102 37.5 -150.5t100.5 -48.5q67 0 105 49t38 150v415h84v-407q0 -141 -62.5 -209t-167.5 -68q-102 0 -160.5 65t-58.5 206v413zM208 722h-1q-20 0 -33 14.5t-13 35.5q0 20 14 34.5t34 14.5t33 -14t13 -35q0 -22 -13 -36t-34 -14zM386 722h-1
q-20 0 -33 14.5t-13 35.5q0 20 13.5 34.5t33.5 14.5q21 0 34 -14t13 -35q0 -22 -13 -36t-34 -14z" />
    <glyph glyph-name="Yacute" unicode="&#xdd;" horiz-adv-x="497" 
d="M290 0h-84v286l-194 388h94l84 -181q42 -91 62 -143h2q19 53 62 144l85 180h93l-204 -387v-287zM300 820h102l-127 -114h-68z" />
    <glyph glyph-name="Thorn" unicode="&#xde;" horiz-adv-x="491" 
d="M71 0v674h83v-132q34 6 82 6q107 0 166 -53q53 -50 53 -131q0 -102 -65.5 -156t-170.5 -54q-35 0 -65 5v-159h-83zM154 474v-246q23 -6 63 -6q74 0 114 35.5t40 98.5q0 60 -37 92.5t-106 32.5q-48 0 -74 -7z" />
    <glyph glyph-name="germandbls" unicode="&#xdf;" horiz-adv-x="513" 
d="M152 0h-84v451q0 151 69 215q52 49 136 49q71 0 120 -43.5t49 -121.5q0 -47 -23 -83q-70 -29 -70 -80q0 -24 11.5 -42t37.5 -46q38 -39 57.5 -72.5t19.5 -80.5q0 -71 -47.5 -113.5t-124.5 -42.5q-58 0 -98 19l15 65q35 -18 78 -18q44 0 69 23.5t25 59.5q0 51 -54 105
q-23 23 -36.5 39t-24.5 41t-11 51q0 79 86 122q9 19 9 44q0 52 -27.5 79t-69.5 27q-112 0 -112 -194v-453z" />
    <glyph glyph-name="agrave" unicode="&#xe0;" horiz-adv-x="447" 
d="M382 303v-189q0 -76 7 -114h-76l-7 58h-3q-46 -68 -133 -68q-63 0 -100 40.5t-37 98.5q0 87 70 133t195 45v12q0 21 -3.5 38t-13.5 35t-31 28t-52 10q-65 0 -112 -33l-19 58q60 39 145 39q170 0 170 -191zM300 160v88q-183 2 -183 -110q0 -42 21.5 -63t53.5 -21
q40 0 67.5 22t36.5 56q4 12 4 28zM84 690h91l85 -141h-59z" />
    <glyph glyph-name="aacute" unicode="&#xe1;" horiz-adv-x="447" 
d="M382 303v-189q0 -76 7 -114h-76l-7 58h-3q-46 -68 -133 -68q-63 0 -100 40.5t-37 98.5q0 87 70 133t195 45v12q0 21 -3.5 38t-13.5 35t-31 28t-52 10q-65 0 -112 -33l-19 58q60 39 145 39q170 0 170 -191zM300 160v88q-183 2 -183 -110q0 -42 21.5 -63t53.5 -21
q40 0 67.5 22t36.5 56q4 12 4 28zM258 690h92l-117 -141h-59z" />
    <glyph glyph-name="acircumflex" unicode="&#xe2;" horiz-adv-x="447" 
d="M382 303v-189q0 -76 7 -114h-76l-7 58h-3q-46 -68 -133 -68q-63 0 -100 40.5t-37 98.5q0 87 70 133t195 45v12q0 21 -3.5 38t-13.5 35t-31 28t-52 10q-65 0 -112 -33l-19 58q60 39 145 39q170 0 170 -191zM300 160v88q-183 2 -183 -110q0 -42 21.5 -63t53.5 -21
q40 0 67.5 22t36.5 56q4 12 4 28zM190 690h58l91 -141h-64l-55 92h-2l-54 -92h-63z" />
    <glyph glyph-name="atilde" unicode="&#xe3;" horiz-adv-x="447" 
d="M382 303v-189q0 -76 7 -114h-76l-7 58h-3q-46 -68 -133 -68q-63 0 -100 40.5t-37 98.5q0 87 70 133t195 45v12q0 21 -3.5 38t-13.5 35t-31 28t-52 10q-65 0 -112 -33l-19 58q60 39 145 39q170 0 170 -191zM300 160v88q-183 2 -183 -110q0 -42 21.5 -63t53.5 -21
q40 0 67.5 22t36.5 56q4 12 4 28zM149 565h-46q-1 46 16.5 74t49.5 28q20 0 58 -21q28 -17 41 -17q24 0 27 41h45q2 -98 -67 -98q-19 0 -57 20q-31 17 -41 17q-23 0 -26 -44z" />
    <glyph glyph-name="adieresis" unicode="&#xe4;" horiz-adv-x="447" 
d="M382 303v-189q0 -76 7 -114h-76l-7 58h-3q-46 -68 -133 -68q-63 0 -100 40.5t-37 98.5q0 87 70 133t195 45v12q0 21 -3.5 38t-13.5 35t-31 28t-52 10q-65 0 -112 -33l-19 58q60 39 145 39q170 0 170 -191zM300 160v88q-183 2 -183 -110q0 -42 21.5 -63t53.5 -21
q40 0 67.5 22t36.5 56q4 12 4 28zM136 569h-1q-21 0 -34.5 14t-13.5 35q0 20 14.5 34.5t34.5 14.5t33.5 -14t13.5 -35t-13 -35t-34 -14zM312 569h-2q-20 0 -33.5 14.5t-13.5 34.5t14 34.5t35 14.5q20 0 33.5 -14t13.5 -35t-13 -35t-34 -14z" />
    <glyph glyph-name="aring" unicode="&#xe5;" horiz-adv-x="447" 
d="M382 303v-189q0 -76 7 -114h-76l-7 58h-3q-46 -68 -133 -68q-63 0 -100 40.5t-37 98.5q0 87 70 133t195 45v12q0 21 -3.5 38t-13.5 35t-31.5 28t-52.5 10q-64 0 -111 -33l-19 58q60 39 145 39q170 0 170 -191zM300 160v88q-183 2 -183 -110q0 -42 21.5 -63t53.5 -21
q40 0 67.5 22t36.5 56q4 12 4 28zM222 718h1q44 0 70.5 -26t26.5 -66q0 -38 -28 -64t-70 -26q-43 0 -71 26t-28 63q0 40 27 66.5t72 26.5zM222 681h-1q-22 0 -35 -16t-13 -39q0 -21 13.5 -37t35.5 -16q23 0 36.5 15.5t13.5 38.5t-13.5 38.5t-36.5 15.5z" />
    <glyph glyph-name="ae" unicode="&#xe6;" horiz-adv-x="710" 
d="M673 235h-294q-1 -90 37.5 -134.5t104.5 -44.5t116 25l16 -59q-58 -32 -145 -32q-58 0 -104 27.5t-64 75.5h-3q-20 -48 -63 -75.5t-100 -27.5q-66 0 -103.5 40t-37.5 98q0 84 70.5 129.5t195.5 43.5v23q0 15 -4.5 31.5t-14.5 34.5t-32 29.5t-52 11.5q-63 0 -110 -34
l-20 57q63 40 139 40q114 0 142 -98h3q47 98 153 98q47 0 82 -21.5t54 -56t27.5 -71t8.5 -72.5q0 -18 -2 -38zM301 166v78q-186 5 -186 -109q0 -39 22.5 -60t55.5 -21q39 -1 66.5 21.5t36.5 57.5q5 18 5 33zM379 295h215q2 54 -23.5 96t-76.5 42q-53 0 -83 -43t-32 -95z" />
    <glyph glyph-name="ccedilla" unicode="&#xe7;" horiz-adv-x="404" 
d="M366 81l14 -64q-42 -23 -111 -26l-24 -41q28 -5 48 -24.5t20 -47.5q0 -41 -29 -61.5t-71 -20.5q-37 0 -69 17l16 44q23 -14 53 -14q41 0 41 32q-1 36 -76 42l41 78q-84 12 -133.5 77t-49.5 166q0 111 66 183.5t174 72.5q67 0 105 -23l-18 -65q-40 20 -88 20
q-72 0 -112.5 -53t-40.5 -132q0 -83 42 -132t110 -49q52 0 92 21z" />
    <glyph glyph-name="egrave" unicode="&#xe8;" horiz-adv-x="460" 
d="M422 229h-304q1 -90 43 -131t107 -41q68 0 118 23l14 -61q-58 -28 -144 -28q-103 0 -161.5 66t-58.5 178q0 113 57 186t152 73q50 0 87 -21t56 -55.5t28 -71t9 -75.5q0 -27 -3 -42zM119 290h225q1 58 -25 100t-82 42q-53 0 -83 -43t-35 -99zM117 690h92l84 -141h-59z" />
    <glyph glyph-name="eacute" unicode="&#xe9;" horiz-adv-x="460" 
d="M422 229h-304q1 -90 43 -131t107 -41q68 0 118 23l14 -61q-58 -28 -144 -28q-103 0 -161.5 66t-58.5 178q0 113 57 186t152 73q50 0 87 -21t56 -55.5t28 -71t9 -75.5q0 -27 -3 -42zM119 290h225q1 58 -25 100t-82 42q-53 0 -83 -43t-35 -99zM284 690h91l-117 -141h-59z
" />
    <glyph glyph-name="ecircumflex" unicode="&#xea;" horiz-adv-x="460" 
d="M422 229h-304q1 -90 43 -131t107 -41q68 0 118 23l14 -61q-58 -28 -144 -28q-103 0 -161.5 66t-58.5 178q0 113 57 186t152 73q50 0 87 -21t56 -55.5t28 -71t9 -75.5q0 -27 -3 -42zM119 290h225q1 58 -25 100t-82 42q-53 0 -83 -43t-35 -99zM213 690h58l91 -141h-64
l-55 92h-2l-54 -92h-64z" />
    <glyph glyph-name="edieresis" unicode="&#xeb;" horiz-adv-x="460" 
d="M422 229h-304q1 -90 43 -131t107 -41q68 0 118 23l14 -61q-58 -28 -144 -28q-103 0 -161.5 66t-58.5 178q0 113 57 186t152 73q50 0 87 -21t56 -55.5t28 -71t9 -75.5q0 -27 -3 -42zM119 290h225q1 58 -25 100t-81 42q-53 0 -83.5 -43t-35.5 -99zM160 569h-1
q-21 0 -34.5 14t-13.5 35q0 20 14.5 34.5t34.5 14.5t33.5 -14t13.5 -35t-13 -35t-34 -14zM336 569h-2q-20 0 -33.5 14.5t-13.5 34.5t14 34.5t35 14.5q20 0 33.5 -14t13.5 -35t-13 -35t-34 -14z" />
    <glyph glyph-name="igrave" unicode="&#xec;" horiz-adv-x="219" 
d="M152 0h-84v484h84v-484zM-28 690h91l85 -141h-59z" />
    <glyph glyph-name="iacute" unicode="&#xed;" horiz-adv-x="219" 
d="M152 0h-84v484h84v-484zM148 690h91l-116 -141h-59z" />
    <glyph glyph-name="icircumflex" unicode="&#xee;" horiz-adv-x="219" 
d="M152 0h-84v484h84v-484zM81 690h58l91 -141h-65l-54 92h-2l-54 -92h-63z" />
    <glyph glyph-name="idieresis" unicode="&#xef;" horiz-adv-x="219" 
d="M152 0h-84v484h84v-484zM22 569h-1q-21 0 -34.5 14t-13.5 35q0 20 14.5 34.5t34.5 14.5t34 -14t14 -35t-13.5 -35t-34.5 -14zM199 569h-2q-20 0 -33.5 14.5t-13.5 34.5t14 34.5t35 14.5q20 0 33.5 -14t13.5 -35t-13 -35t-34 -14z" />
    <glyph glyph-name="eth" unicode="&#xf0;" horiz-adv-x="493" 
d="M244 54h1q58 0 91 54t33 133q0 95 -29 138q-31 48 -93 48q-44 0 -73.5 -32t-40.5 -72.5t-11 -83.5q0 -75 33.5 -130t88.5 -55zM105 507l-20 41l107 53q-39 32 -95 63l41 51q70 -38 124 -81l116 58l21 -41l-99 -49q75 -69 113 -149q42 -87 42 -202q0 -130 -62.5 -195.5
t-149.5 -65.5q-91 0 -149 66.5t-58 180.5t59 180t140 68q54 2 95 -34l2 3q-36 63 -100 115z" />
    <glyph glyph-name="ntilde" unicode="&#xf1;" horiz-adv-x="510" 
d="M68 0v355q0 49 -4 129h74l5 -73h2q18 35 56 59t89 24q27 0 52.5 -9.5t49 -30.5t38 -60.5t14.5 -93.5v-300h-84v289q0 135 -99 135q-37 0 -65.5 -24.5t-38.5 -62.5q-6 -17 -6 -41v-296h-83zM183 566l-45 -1q-2 47 16 74.5t49 27.5q19 0 59 -21q28 -17 41 -17q24 0 27 41
h45q2 -98 -67 -98q-20 0 -58 20q-31 17 -41 17q-23 0 -26 -43z" />
    <glyph glyph-name="ograve" unicode="&#xf2;" horiz-adv-x="499" 
d="M247 -10h-1q-91 0 -150.5 66.5t-59.5 182.5q0 121 61.5 188t155.5 67t152 -67t58 -182q0 -127 -64.5 -191t-151.5 -64zM249 54h1q57 0 92 55.5t35 133.5q0 44 -11.5 84.5t-41.5 71.5t-74 31q-64 0 -96 -57t-32 -132q0 -77 34.5 -132t92.5 -55zM125 690h91l85 -141h-59z
" />
    <glyph glyph-name="oacute" unicode="&#xf3;" horiz-adv-x="499" 
d="M247 -10h-1q-91 0 -150.5 66.5t-59.5 182.5q0 121 61.5 188t155.5 67t152 -67t58 -182q0 -127 -64.5 -191t-151.5 -64zM249 54h1q57 0 92 55.5t35 133.5q0 44 -11.5 84.5t-41.5 71.5t-74 31q-64 0 -96 -57t-32 -132q0 -77 34.5 -132t92.5 -55zM286 690h91l-117 -141h-59z
" />
    <glyph glyph-name="ocircumflex" unicode="&#xf4;" horiz-adv-x="499" 
d="M247 -10h-1q-91 0 -150.5 66.5t-59.5 182.5q0 121 61.5 188t155.5 67t152 -67t58 -182q0 -127 -64.5 -191t-151.5 -64zM249 54h1q57 0 92 55.5t35 133.5q0 44 -11.5 84.5t-41.5 71.5t-74 31q-64 0 -96 -57t-32 -132q0 -77 34.5 -132t92.5 -55zM220 690h58l91 -141h-64
l-55 92h-2l-54 -92h-64z" />
    <glyph glyph-name="otilde" unicode="&#xf5;" horiz-adv-x="499" 
d="M247 -10h-1q-91 0 -150.5 66.5t-59.5 182.5q0 121 61.5 188t155.5 67t152 -67t58 -182q0 -127 -64.5 -191t-151.5 -64zM249 54h1q57 0 92 55.5t35 133.5q0 44 -11.5 84.5t-41.5 71.5t-74 31q-64 0 -96 -57t-32 -132q0 -77 34.5 -132t92.5 -55zM177 565h-46q-1 47 17 74.5
t49 27.5q19 0 59 -21q28 -17 41 -17q24 0 27 41h45q2 -98 -67 -98q-20 0 -58 20q-31 17 -41 17q-23 0 -26 -44z" />
    <glyph glyph-name="odieresis" unicode="&#xf6;" horiz-adv-x="499" 
d="M247 -10h-1q-91 0 -150.5 66.5t-59.5 182.5q0 121 61.5 188t155.5 67t152 -67t58 -182q0 -127 -64.5 -191t-151.5 -64zM249 54h1q57 0 92 55.5t35 133.5q0 44 -11.5 84.5t-41.5 71.5t-74 31q-64 0 -96 -57t-32 -132q0 -77 34.5 -132t92.5 -55zM162 569h-1q-21 0 -34.5 14
t-13.5 35q0 20 14.5 34.5t34.5 14.5t33.5 -14t13.5 -35t-13 -35t-34 -14zM339 569h-2q-20 0 -33.5 14.5t-13.5 34.5t14 34.5t35 14.5q20 0 33.5 -14t13.5 -35t-13 -35t-34 -14z" />
    <glyph glyph-name="divide" unicode="&#xf7;" horiz-adv-x="596" 
d="M298 390h-1q-22 0 -35.5 15t-13.5 38t14.5 38t36.5 15t36 -15t14 -38t-14 -38t-37 -15zM556 238h-516v58h516v-58zM298 38h-1q-22 0 -35.5 15t-13.5 38t14.5 38t36.5 15t36 -15t14 -38t-14 -38t-37 -15z" />
    <glyph glyph-name="oslash" unicode="&#xf8;" horiz-adv-x="499" 
d="M251 494h1q60 0 109 -32l38 57l40 -25l-40 -64q64 -69 64 -185q0 -126 -64 -190.5t-149 -64.5q-62 0 -111 32l-38 -59l-38 29l39 61q-66 69 -66 187q0 120 61.5 187t153.5 67zM149 122l175 278q-27 30 -75 30q-46 0 -77 -31t-42.5 -71.5t-11.5 -86.5q0 -67 29 -118z
M351 358l-175 -275q29 -29 72 -29q62 0 97.5 54.5t35.5 132.5q0 66 -28 116z" />
    <glyph glyph-name="ugrave" unicode="&#xf9;" horiz-adv-x="505" 
d="M437 484v-352q0 -56 4 -132h-74l-5 70h-2q-19 -32 -55.5 -56t-87.5 -24q-67 0 -109.5 48t-42.5 156v290h84v-276q0 -148 95 -148q38 0 64.5 23t37.5 53q7 23 7 45v303h84zM124 690h91l84 -141h-58z" />
    <glyph glyph-name="uacute" unicode="&#xfa;" horiz-adv-x="505" 
d="M437 484v-352q0 -56 4 -132h-74l-5 70h-2q-19 -32 -55.5 -56t-87.5 -24q-67 0 -109.5 48t-42.5 156v290h84v-276q0 -148 95 -148q38 0 64.5 23t37.5 53q7 23 7 45v303h84zM298 690h91l-116 -141h-59z" />
    <glyph glyph-name="ucircumflex" unicode="&#xfb;" horiz-adv-x="505" 
d="M437 484v-352q0 -56 4 -132h-74l-5 70h-2q-19 -32 -55.5 -56t-87.5 -24q-67 0 -109.5 48t-42.5 156v290h84v-276q0 -148 95 -148q38 0 64.5 23t37.5 53q7 23 7 45v303h84zM223 690h58l91 -141h-65l-54 92h-2l-54 -92h-64z" />
    <glyph glyph-name="udieresis" unicode="&#xfc;" horiz-adv-x="505" 
d="M437 484v-352q0 -56 4 -132h-74l-5 70h-2q-19 -32 -55.5 -56t-87.5 -24q-67 0 -109.5 48t-42.5 156v290h84v-276q0 -148 95 -148q38 0 64.5 23t37.5 53q7 23 7 45v303h84zM168 569h-1q-21 0 -34.5 14t-13.5 35q0 20 14.5 34.5t34.5 14.5t33.5 -14t13.5 -35t-13 -35
t-34 -14zM344 569h-2q-20 0 -33.5 14.5t-13.5 34.5t14 34.5t35 14.5q20 0 33.5 -14t13.5 -35t-13 -35t-34 -14z" />
    <glyph glyph-name="yacute" unicode="&#xfd;" horiz-adv-x="434" 
d="M10 484h91l94 -284q17 -56 27 -99h3q10 42 27 101l85 282h88l-116 -334q-43 -124 -77 -194.5t-75 -111.5q-50 -49 -102 -62l-24 71q41 17 75 48q41 41 64 94q7 17 7 22q0 6 -5 21zM264 690h91l-116 -141h-59z" />
    <glyph glyph-name="thorn" unicode="&#xfe;" horiz-adv-x="518" 
d="M67 668h84v-255h2q48 81 145 81q80 0 132 -67.5t52 -179.5q0 -125 -58.5 -191t-139.5 -66q-88 0 -131 70h-2v-256h-84v864zM151 287v-100q0 -24 8 -43q13 -42 43.5 -64t67.5 -22q59 0 93 51.5t34 135.5q0 77 -33 128.5t-92 51.5q-38 0 -69.5 -26t-43.5 -67q-8 -26 -8 -45
z" />
    <glyph glyph-name="ydieresis" unicode="&#xff;" horiz-adv-x="434" 
d="M10 484h91l93 -284q16 -49 28 -99h3q12 51 28 101l84 282h88l-116 -334q-43 -124 -77 -194.5t-76 -111.5q-49 -49 -101 -62l-24 71q39 16 74 48q41 39 65 94q6 15 6 22q0 10 -5 21zM138 569h-1q-21 0 -34.5 14t-13.5 35q0 20 14.5 34.5t34.5 14.5t33.5 -14t13.5 -35
t-13 -35t-34 -14zM315 569h-2q-20 0 -33.5 14.5t-13.5 34.5t14 34.5t35 14.5q20 0 33.5 -14t13.5 -35t-13 -35t-34 -14z" />
    <glyph glyph-name="Amacron" unicode="&#x100;" horiz-adv-x="559" 
d="M384 209h-212l-62 -209h-86l207 674h99l206 -674h-88zM188 275h181l-58 187q-14 50 -32 132h-3q-18 -84 -31 -131zM163 789h232v-55h-232v55z" />
    <glyph glyph-name="amacron" unicode="&#x101;" horiz-adv-x="447" 
d="M382 303v-189q0 -76 7 -114h-76l-7 58h-3q-46 -68 -133 -68q-63 0 -100 40.5t-37 98.5q0 87 70 133t195 45v12q0 21 -3.5 38t-13.5 35t-31 28t-52 10q-65 0 -112 -33l-19 58q60 39 145 39q170 0 170 -191zM300 160v88q-183 2 -183 -110q0 -42 21.5 -63t53.5 -21
q40 0 67.5 22t36.5 56q4 12 4 28zM116 639h216v-55h-216v55z" />
    <glyph glyph-name="Abreve" unicode="&#x102;" horiz-adv-x="559" 
d="M384 209h-212l-62 -209h-85l206 674h99l206 -674h-88zM188 275h181l-58 187q-14 50 -32 132h-3q-18 -84 -31 -131zM161 814h50q10 -47 68 -47q61 0 70 47h49q-1 -46 -31 -74.5t-88 -28.5t-87.5 28t-30.5 75z" />
    <glyph glyph-name="abreve" unicode="&#x103;" horiz-adv-x="447" 
d="M382 303v-189q0 -76 7 -114h-76l-7 58h-3q-46 -68 -133 -68q-63 0 -100 40.5t-37 98.5q0 87 70 133t195 45v12q0 21 -3.5 38t-13.5 35t-31 28t-52 10q-65 0 -112 -33l-19 58q60 39 145 39q170 0 170 -191zM300 160v88q-183 2 -183 -110q0 -42 21.5 -63t53.5 -21
q40 0 67.5 22t36.5 56q4 12 4 28zM105 678h50q3 -29 21.5 -48t46.5 -19q32 0 49.5 19.5t19.5 47.5h50q0 -54 -32.5 -87.5t-86.5 -33.5q-58 0 -88 35t-30 86z" />
    <glyph glyph-name="Aogonek" unicode="&#x104;" horiz-adv-x="559" 
d="M330 674l206 -674l-33 -1q-50 -56 -50 -94q0 -23 13.5 -36.5t34.5 -13.5q22 0 45 9l12 -44q-29 -23 -77 -23q-42 0 -66.5 22.5t-24.5 63.5q0 50 56 122l-62 204h-212l-62 -209h-86l207 674h99zM188 275h181l-58 187q-14 50 -32 132h-3q-18 -84 -31 -131z" />
    <glyph glyph-name="aogonek" unicode="&#x105;" horiz-adv-x="447" 
d="M382 303v-189q0 -74 9 -114h-23q-40 -52 -40 -98q0 -23 13 -35.5t33 -12.5q23 0 45 9l13 -45q-31 -23 -80 -23q-39 0 -63 22t-24 62q0 48 47 123l-6 56h-3q-46 -68 -133 -68q-63 0 -100 40.5t-37 98.5q0 87 70 133t195 45v12q0 21 -3.5 38t-13.5 35t-31 28t-52 10
q-65 0 -112 -33l-19 58q60 39 145 39q170 0 170 -191zM300 160v88q-183 2 -183 -110q0 -42 21.5 -63t53.5 -21q40 0 67.5 22t36.5 56q4 12 4 28z" />
    <glyph glyph-name="Cacute" unicode="&#x106;" horiz-adv-x="518" 
d="M472 87l16 -68q-52 -28 -153 -28q-134 0 -217 88.5t-83 250.5q0 166 89.5 259.5t227.5 93.5q90 0 137 -26l-20 -69q-48 24 -115 24q-103 0 -167 -71.5t-64 -205.5q0 -131 61 -201.5t167 -70.5q71 0 121 24zM366 825h102l-127 -114h-68z" />
    <glyph glyph-name="cacute" unicode="&#x107;" horiz-adv-x="404" 
d="M366 80l13 -64q-48 -25 -121 -25q-100 0 -161 67t-61 180q0 111 66 183.5t174 72.5q66 0 106 -23l-19 -65q-40 20 -88 20q-72 0 -112.5 -53t-40.5 -132q0 -83 42 -132t110 -49q46 0 92 20zM282 690h91l-117 -141h-59z" />
    <glyph glyph-name="Ccircumflex" unicode="&#x108;" horiz-adv-x="518" 
d="M472 87l16 -68q-52 -28 -153 -28q-134 0 -217 88.5t-83 250.5q0 166 89.5 259.5t227.5 93.5q90 0 137 -26l-20 -69q-48 24 -115 24q-103 0 -167 -71.5t-64 -205.5q0 -131 61 -201.5t167 -70.5q71 0 121 24zM280 822h67l99 -109h-72l-60 65h-2l-60 -65h-70z" />
    <glyph glyph-name="ccircumflex" unicode="&#x109;" horiz-adv-x="404" 
d="M366 80l13 -64q-48 -25 -121 -25q-100 0 -161 67t-61 180q0 111 66 183.5t174 72.5q66 0 106 -23l-19 -65q-40 20 -88 20q-72 0 -112.5 -53t-40.5 -132q0 -83 42 -132t110 -49q46 0 92 20zM211 690h58l91 -141h-65l-54 92h-2l-55 -92h-63z" />
    <glyph glyph-name="Cdotaccent" unicode="&#x10a;" horiz-adv-x="518" 
d="M472 87l17 -68q-52 -28 -154 -28q-134 0 -217 88.5t-83 250.5q0 166 89.5 259.5t228.5 93.5q91 0 136 -26l-20 -69q-48 24 -115 24q-103 0 -167 -71.5t-64 -205.5q0 -131 61 -201.5t167 -70.5q71 0 121 24zM317 720h-1q-20 0 -34 14.5t-14 34.5t14.5 34t34.5 14t33.5 -14
t13.5 -34t-13.5 -34.5t-33.5 -14.5z" />
    <glyph glyph-name="cdotaccent" unicode="&#x10b;" horiz-adv-x="404" 
d="M366 80l13 -64q-48 -25 -121 -25q-100 0 -161 67t-61 180q0 111 65.5 183.5t173.5 72.5q66 0 106 -23l-18 -65q-40 20 -89 20q-72 0 -112 -53.5t-40 -131.5q0 -83 42 -132t109 -49q47 0 93 20zM243 569h-1q-20 0 -34 15t-14 35t14.5 34.5t34.5 14.5t33.5 -14.5
t13.5 -34.5q0 -21 -13.5 -35.5t-33.5 -14.5z" />
    <glyph glyph-name="Ccaron" unicode="&#x10c;" horiz-adv-x="518" 
d="M472 87l16 -68q-52 -28 -153 -28q-134 0 -217 88.5t-83 250.5q0 166 89.5 259.5t227.5 93.5q90 0 137 -26l-20 -69q-48 24 -115 24q-103 0 -167 -71.5t-64 -205.5q0 -131 61 -201.5t167 -70.5q71 0 121 24zM353 712h-67l-100 109h72l61 -66h2l59 66h70z" />
    <glyph glyph-name="ccaron" unicode="&#x10d;" horiz-adv-x="404" 
d="M366 80l13 -64q-48 -25 -121 -25q-100 0 -161 67t-61 180q0 111 66 183.5t174 72.5q66 0 106 -23l-19 -65q-40 20 -88 20q-72 0 -112.5 -53t-40.5 -132q0 -83 42 -132t110 -49q46 0 92 20zM271 549h-60l-91 141h64l56 -93h2l55 93h63z" />
    <glyph glyph-name="Dcaron" unicode="&#x10e;" horiz-adv-x="599" 
d="M71 2v663q72 14 160 14q159 0 239 -74q94 -84 94 -251q0 -175 -92 -269q-88 -90 -265 -90q-69 0 -136 7zM155 605v-538q19 -3 70 -3q120 0 185.5 71.5t65.5 215.5q1 124 -59.5 192.5t-179.5 68.5q-49 0 -82 -7zM308 712h-67l-100 109h72l61 -66h2l59 66h70z" />
    <glyph glyph-name="dcaron" unicode="&#x10f;" horiz-adv-x="524" 
d="M363 705h84v-583q0 -58 4 -122h-74l-5 77h-3q-18 -38 -56.5 -62.5t-88.5 -24.5q-82 0 -135 68t-53 179q0 119 57 188t139 69q92 0 129 -68h2v279zM363 194v97q0 19 -3 36q-9 42 -39 70.5t-72 28.5q-60 0 -94 -52.5t-34 -133.5q0 -78 33 -129.5t93 -51.5q38 0 69 25.5
t43 73.5q4 13 4 36zM527 517l-36 27q34 43 34 89q0 39 -31 66l61 13q14 -9 24.5 -29t10.5 -43q0 -68 -63 -123z" />
    <glyph glyph-name="Dcroat" unicode="&#x110;" horiz-adv-x="606" 
d="M-1 312v66h78v288q72 14 160 14q160 0 239 -73q94 -84 94 -254q0 -176 -92 -270q-88 -90 -265 -90q-69 0 -136 7v312h-78zM318 378v-66h-157v-247q19 -3 70 -3q121 0 186 72t65 218q1 125 -59.5 193t-179.5 68q-49 0 -82 -7v-228h157z" />
    <glyph glyph-name="dcroat" unicode="&#x111;" horiz-adv-x="514" 
d="M519 549h-72v-427q0 -58 4 -122h-74l-5 77h-3q-18 -38 -56.5 -62.5t-88.5 -24.5q-82 0 -135 68t-53 179q0 119 57 188t139 69q92 0 129 -68h2v123h-178v55h178v101h84v-101h72v-55zM363 194v97q0 19 -3 36q-9 42 -39 70.5t-72 28.5q-60 0 -94 -52.5t-34 -133.5
q0 -78 33 -129.5t93 -51.5q38 0 69 25.5t43 73.5q4 13 4 36z" />
    <glyph glyph-name="Emacron" unicode="&#x112;" horiz-adv-x="450" 
d="M388 387v-70h-233v-246h262v-71h-346v674h332v-71h-248v-216h233zM124 789h231v-55h-231v55z" />
    <glyph glyph-name="emacron" unicode="&#x113;" horiz-adv-x="460" 
d="M422 229h-304q1 -90 43 -131t107 -41q68 0 118 23l14 -61q-58 -28 -144 -28q-103 0 -161.5 66t-58.5 178q0 113 57 186t152 73q50 0 87 -21t56 -55.5t28 -71t9 -75.5q0 -27 -3 -42zM119 290h225q1 58 -25 100t-82 42q-53 0 -83 -43t-35 -99zM126 639h216v-55h-216v55z
" />
    <glyph glyph-name="Ebreve" unicode="&#x114;" horiz-adv-x="450" 
d="M388 387v-70h-233v-246h262v-71h-346v674h332v-71h-248v-216h233zM117 820h50q10 -47 68 -47q61 0 70 47h49q-1 -46 -31 -74.5t-88 -28.5t-87.5 28t-30.5 75z" />
    <glyph glyph-name="ebreve" unicode="&#x115;" horiz-adv-x="460" 
d="M422 229h-304q1 -90 43 -131t107 -41q68 0 118 23l14 -61q-58 -28 -145 -28q-102 0 -160.5 66.5t-58.5 177.5q0 113 57 186t151 73q50 0 87 -21t56.5 -55.5t28.5 -71t9 -75.5q0 -27 -3 -42zM119 290h225q1 58 -25.5 100t-81.5 42q-53 0 -83 -43t-35 -99zM116 678h49
q4 -29 22 -48t46 -19q32 0 50 19.5t20 47.5h50q1 -54 -32 -87.5t-87 -33.5q-58 0 -88.5 35t-29.5 86z" />
    <glyph glyph-name="Edotaccent" unicode="&#x116;" horiz-adv-x="450" 
d="M389 387v-70h-234v-246h263v-71h-347v674h332v-71h-248v-216h234zM235 723h-1q-20 0 -34 14.5t-14 34.5t14.5 34t34.5 14t33.5 -14t13.5 -34t-13.5 -34.5t-33.5 -14.5z" />
    <glyph glyph-name="edotaccent" unicode="&#x117;" horiz-adv-x="460" 
d="M422 229h-304q1 -90 43 -131t107 -41q68 0 118 23l14 -61q-58 -28 -145 -28q-102 0 -160.5 66.5t-58.5 177.5q0 113 57 186t151 73q50 0 87 -21t56.5 -55.5t28.5 -71t9 -75.5q0 -27 -3 -42zM119 290h225q1 58 -25.5 100t-81.5 42q-53 0 -83 -43t-35 -99zM236 569h-1
q-20 0 -34 15t-14 35t14.5 34.5t34.5 14.5t33.5 -14.5t13.5 -34.5q0 -21 -13.5 -35.5t-33.5 -14.5z" />
    <glyph glyph-name="Eogonek" unicode="&#x118;" horiz-adv-x="450" 
d="M409 -137l13 -46q-33 -21 -79 -21q-41 0 -64.5 21t-23.5 59q0 36 24.5 69.5t56.5 54.5h-265v674h332v-71h-248v-216h234v-70h-234v-246h262v-71q-2 0 -6.5 -0.5t-7.5 -0.5q-34 -22 -57.5 -50.5t-23.5 -53.5q0 -40 44 -40q24 0 43 8z" />
    <glyph glyph-name="eogonek" unicode="&#x119;" horiz-adv-x="460" 
d="M353 -134l13 -45q-32 -24 -79 -24q-40 0 -63.5 21t-23.5 57q0 33 22 64t51 52v1q-6 -1 -20 -1q-102 1 -159.5 67t-57.5 177q0 113 57 186t152 73q50 0 87 -21t56 -55.5t28 -71t9 -75.5q0 -29 -3 -42h-304q1 -90 43 -131t107 -41q68 0 118 23l14 -61q-4 -2 -39 -15
q-35 -16 -65 -47.5t-30 -60.5q0 -20 11.5 -30.5t28.5 -10.5q25 0 47 11zM119 290h225q1 58 -25.5 100t-81.5 42q-53 0 -83 -43t-35 -99z" />
    <glyph glyph-name="Ecaron" unicode="&#x11a;" horiz-adv-x="450" 
d="M388 387v-70h-233v-246h262v-71h-346v674h332v-71h-248v-216h233zM271 710h-67l-99 109h71l61 -66h2l60 66h70z" />
    <glyph glyph-name="ecaron" unicode="&#x11b;" horiz-adv-x="460" 
d="M422 229h-304q1 -90 43 -131t107 -41q68 0 118 23l14 -61q-58 -28 -144 -28q-103 0 -161.5 66t-58.5 178q0 113 57 186t152 73q50 0 87 -21t56 -55.5t28 -71t9 -75.5q0 -27 -3 -42zM119 290h225q1 58 -25 100t-82 42q-53 0 -83 -43t-35 -99zM264 549h-60l-91 141h65
l55 -93h2l56 93h63z" />
    <glyph glyph-name="Gcircumflex" unicode="&#x11c;" horiz-adv-x="583" 
d="M530 353v-327q-85 -33 -181 -33q-142 0 -224 82q-90 90 -90 256q1 163 92 256.5t239 93.5q86 0 147 -27l-20 -70q-55 25 -128 25q-109 0 -175.5 -70.5t-66.5 -202.5q0 -133 62.5 -203t167.5 -70q65 0 95 15v207h-121v68h203zM295 821h67l99 -109h-72l-60 65h-2l-60 -65
h-70z" />
    <glyph glyph-name="gcircumflex" unicode="&#x11d;" horiz-adv-x="511" 
d="M444 346v-278q0 -158 -62 -218q-59 -56 -162 -56q-89 0 -145 35l21 65q54 -33 126 -33q139 0 139 162v53h-2q-18 -34 -53.5 -54.5t-81.5 -20.5q-82 0 -134.5 67.5t-52.5 170.5q0 119 59 187t139 68q90 0 133 -77h2l4 67h74q-4 -68 -4 -138zM360 197v103q0 23 -4 38
q-12 38 -39.5 63t-68.5 25q-57 0 -91.5 -50t-34.5 -133q0 -79 33.5 -127.5t92.5 -48.5q35 0 64 21.5t42 62.5q6 18 6 46zM226 692h58l91 -141h-65l-54 92h-2l-55 -92h-63z" />
    <glyph glyph-name="Gbreve" unicode="&#x11e;" horiz-adv-x="583" 
d="M530 353v-327q-85 -33 -181 -33q-141 0 -224 82q-90 90 -90 256q1 162 92.5 256t238.5 94q86 0 147 -27l-20 -70q-55 25 -128 25q-108 0 -175 -70.5t-67 -202.5t63 -202.5t167 -70.5q65 0 95 15v207h-121v68h203zM206 821h50q10 -47 68 -47q60 0 70 47h49
q-1 -46 -31 -74.5t-88 -28.5t-87.5 28t-30.5 75z" />
    <glyph glyph-name="gbreve" unicode="&#x11f;" horiz-adv-x="511" 
d="M444 346v-278q0 -158 -62 -218q-60 -56 -162 -56q-89 0 -145 35l21 65q54 -33 126 -33q138 0 138 162v53h-2q-18 -34 -53 -54.5t-82 -20.5q-81 0 -133.5 67.5t-52.5 170.5q0 119 59 187t139 68q90 0 133 -77h2l4 67h74q-4 -68 -4 -138zM360 197v103q0 24 -5 38
q-12 38 -39 63t-68 25q-57 0 -91.5 -50t-34.5 -133q0 -79 33.5 -127.5t91.5 -48.5q36 0 65 21.5t41 62.5q7 21 7 46zM132 678h49q4 -30 22.5 -48.5t46.5 -18.5q32 0 49.5 19.5t19.5 47.5h50q1 -54 -32 -87.5t-87 -33.5q-58 0 -88 35t-30 86z" />
    <glyph glyph-name="Gdotaccent" unicode="&#x120;" horiz-adv-x="583" 
d="M530 353v-327q-85 -33 -181 -33q-142 0 -224 82q-90 90 -90 256q1 162 92.5 256t238.5 94q86 0 147 -27l-20 -70q-55 25 -128 25q-108 0 -175 -70.5t-67 -202.5t63 -202.5t167 -70.5q65 0 95 15v207h-121v68h203zM331 720h-1q-20 0 -34 14.5t-14 34.5t14.5 34t34.5 14
t33.5 -14t13.5 -34t-13.5 -34.5t-33.5 -14.5z" />
    <glyph glyph-name="gdotaccent" unicode="&#x121;" horiz-adv-x="511" 
d="M444 346v-278q0 -158 -62 -218q-59 -56 -163 -56q-88 0 -144 35l21 65q54 -33 126 -33q139 0 139 162v53h-2q-19 -34 -54.5 -54.5t-81.5 -20.5q-81 0 -133.5 67.5t-52.5 170.5q0 119 59 187t139 68q90 0 133 -77h2l4 67h74q-4 -68 -4 -138zM360 197v103q0 23 -4 38
q-11 38 -39 63t-69 25q-57 0 -91.5 -50t-34.5 -133q0 -79 33.5 -127.5t91.5 -48.5q36 0 65 21.5t42 62.5q6 18 6 46zM256 571h-1q-20 0 -34 15t-14 35t14.5 34.5t34.5 14.5t33.5 -14.5t13.5 -34.5q0 -21 -13.5 -35.5t-33.5 -14.5z" />
    <glyph glyph-name="Gcommaaccent" unicode="&#x122;" horiz-adv-x="583" 
d="M530 353v-327q-85 -33 -180 -33q-143 0 -225 82q-90 90 -90 256q1 162 92.5 256t239.5 94q85 0 146 -27l-20 -70q-55 25 -127 25q-109 0 -176 -70.5t-67 -202.5q0 -133 63 -203t168 -70q64 0 94 15v207h-121v68h203zM271 -219l-17 40q72 14 72 64q0 33 -34 61l64 13
q38 -26 38 -72q0 -49 -36 -75.5t-87 -30.5z" />
    <glyph glyph-name="gcommaaccent" unicode="&#x123;" horiz-adv-x="511" 
d="M444 346v-278q0 -158 -62 -218q-59 -56 -163 -56q-88 0 -144 35l21 65q54 -33 126 -33q139 0 139 162v53h-2q-19 -34 -54.5 -54.5t-81.5 -20.5q-81 0 -133.5 67.5t-52.5 170.5q0 119 59 187t139 68q90 0 133 -77h2l4 67h74q-4 -68 -4 -138zM360 197v103q0 23 -4 38
q-11 38 -39 63t-69 25q-57 0 -91.5 -50t-34.5 -133q0 -80 33 -128t92 -48q36 0 65 21.5t42 62.5q6 18 6 46zM314 707l17 -36q-75 -13 -75 -65q0 -33 35 -60l-62 -12q-38 24 -38 70q0 48 36 73.5t87 29.5z" />
    <glyph glyph-name="Hcircumflex" unicode="&#x124;" horiz-adv-x="596" 
d="M71 674h84v-284h285v284h84v-674h-84v316h-285v-316h-84v674zM265 819h67l99 -109h-72l-60 65h-2l-60 -65h-70z" />
    <glyph glyph-name="hcircumflex" unicode="&#x125;" horiz-adv-x="510" 
d="M68 0v705h84v-289h2q20 34 56 56q38 22 83 22q26 0 50.5 -9.5t48 -30.5t38 -61t14.5 -95v-298h-84v289q0 60 -23.5 97.5t-74.5 37.5q-37 0 -65 -23.5t-40 -61.5q-5 -14 -5 -40v-299h-84zM79 835h67l99 -109h-72l-60 65h-2l-60 -65h-69z" />
    <glyph glyph-name="Hbar" unicode="&#x126;" horiz-adv-x="599" 
d="M580 480h-54v-480h-84v303h-285v-303h-84v480h-54v57h54v137h84v-137h285v137h84v-137h54v-57zM442 377v103h-285v-103h285z" />
    <glyph glyph-name="hbar" unicode="&#x127;" horiz-adv-x="510" 
d="M444 0h-84v289q0 60 -23.5 97.5t-74.5 37.5q-37 0 -65 -23.5t-40 -61.5q-5 -14 -5 -40v-299h-84v549h-72v55h72v101h84v-101h175v-55h-175v-133h2q20 34 56 56q41 22 83 22q26 0 50.5 -9.5t48 -30.5t38 -61t14.5 -95v-298z" />
    <glyph glyph-name="Itilde" unicode="&#x128;" horiz-adv-x="227" 
d="M71 674h84v-674h-84v674zM40 716h-45q-1 45 16.5 72t48.5 27q20 0 56 -19q32 -18 45 -18t19.5 8.5t8.5 30.5h44q2 -95 -66 -95q-22 0 -58 18q-31 18 -43 18q-21 0 -26 -42z" />
    <glyph glyph-name="itilde" unicode="&#x129;" horiz-adv-x="219" 
d="M152 0h-84v484h84v-484zM38 566h-46q-1 46 17 73.5t49 27.5q20 0 58 -21q30 -17 41 -17q24 0 27 41h45q2 -98 -66 -98q-20 0 -58 20q-31 17 -41 17q-23 0 -26 -43z" />
    <glyph glyph-name="Imacron" unicode="&#x12a;" horiz-adv-x="227" 
d="M71 674h84v-674h-84v674zM-1 789h231v-55h-231v55z" />
    <glyph glyph-name="imacron" unicode="&#x12b;" horiz-adv-x="219" 
d="M152 0h-84v484h84v-484zM3 639h216v-55h-216v55z" />
    <glyph glyph-name="Ibreve" unicode="&#x12c;" horiz-adv-x="227" 
d="M71 674h84v-674h-84v674zM-6 819h50q10 -47 69 -47q60 0 69 47h49q-1 -46 -31 -74.5t-88 -28.5t-87.5 28t-30.5 75z" />
    <glyph glyph-name="ibreve" unicode="&#x12d;" horiz-adv-x="219" 
d="M152 0h-84v484h84v-484zM-6 678h49q4 -30 22.5 -48.5t46.5 -18.5q32 0 49.5 19.5t19.5 47.5h50q0 -54 -32.5 -87.5t-86.5 -33.5q-58 0 -88.5 35t-29.5 86z" />
    <glyph glyph-name="Iogonek" unicode="&#x12e;" horiz-adv-x="227" 
d="M155 674v-674h-27q-42 -55 -42 -100q0 -24 13.5 -37t34.5 -13q25 0 45 9l13 -45q-32 -22 -79 -22q-41 0 -65 22.5t-24 62.5q0 48 47 123v674h84z" />
    <glyph glyph-name="iogonek" unicode="&#x12f;" horiz-adv-x="219" 
d="M109 567h-1q-22 0 -36.5 15.5t-14.5 38.5t15 38.5t38 15.5t37.5 -15.5t14.5 -38.5t-14.5 -38.5t-38.5 -15.5zM152 484v-484h-27q-42 -55 -42 -100q0 -23 14 -36.5t34 -13.5q25 0 45 9l13 -45q-32 -22 -79 -22q-41 0 -65.5 22t-24.5 63q0 51 48 123v484h84z" />
    <glyph glyph-name="Idotaccent" unicode="&#x130;" horiz-adv-x="227" 
d="M71 674h84v-674h-84v674zM114 723h-1q-19 0 -33 14.5t-14 34.5t14 34t34 14t33.5 -14t13.5 -34t-13.5 -34.5t-33.5 -14.5z" />
    <glyph glyph-name="dotlessi" unicode="&#x131;" horiz-adv-x="219" 
d="M152 0h-84v484h84v-484z" />
    <glyph glyph-name="IJ" unicode="&#x132;" horiz-adv-x="566" 
d="M71 674h84v-674h-84v674zM417 218v456h84v-461q0 -121 -50 -172t-140 -51q-45 0 -80 13l11 69q25 -10 62 -10q57 0 85 33.5t28 122.5z" />
    <glyph glyph-name="ij" unicode="&#x133;" horiz-adv-x="446" 
d="M152 0h-84v484h84v-484zM109 564h-1q-22 0 -36.5 15t-14.5 38t15 38.5t37 15.5q23 0 37.5 -15.5t14.5 -38.5t-14 -38t-38 -15zM188 -208l-10 67q62 7 87 37q17 21 24 58t7 116v414h84v-445q0 -137 -55 -195q-50 -50 -137 -52zM338 564h-1q-23 0 -37 15.5t-14 37.5
q0 23 15 38.5t38 15.5t37 -15t14 -39q0 -22 -14.5 -37.5t-37.5 -15.5z" />
    <glyph glyph-name="Jcircumflex" unicode="&#x134;" horiz-adv-x="338" 
d="M190 218v456h84v-461q0 -121 -50 -172t-140 -51q-45 0 -80 13l11 69q27 -10 63 -10q57 0 84.5 33.5t27.5 122.5zM195 819h66l100 -109h-72l-60 65h-2l-60 -65h-70z" />
    <glyph glyph-name="jcircumflex" unicode="&#x135;" horiz-adv-x="227" 
d="M-31 -208l-9 67q61 7 86 37q17 21 24 58t7 116v414h84v-445q0 -137 -55 -195q-50 -50 -137 -52zM87 683h53l91 -141h-63l-54 92h-2l-54 -92h-60z" />
    <glyph glyph-name="Kcommaaccent" unicode="&#x136;" horiz-adv-x="501" 
d="M71 0v674h84v-324h3q21 33 50 75l181 249h101l-219 -287l234 -387h-97l-196 329l-57 -71v-258h-84zM199 -216l-17 40q72 14 72 64q0 35 -34 61l64 13q38 -24 38 -72q0 -49 -36 -75.5t-87 -30.5z" />
    <glyph glyph-name="kcommaaccent" unicode="&#x137;" horiz-adv-x="434" 
d="M151 705v-444h2q12 19 37 55l129 168h99l-169 -201l190 -283h-100l-148 231l-40 -49v-182h-84v705h84zM163 -219l-17 40q72 14 72 64q0 35 -34 61l64 13q38 -26 38 -72q0 -49 -36 -75.5t-87 -30.5z" />
    <glyph glyph-name="kgreenlandic" unicode="&#x138;" horiz-adv-x="434" 
d="M151 484v-223h2q12 19 37 55l129 168h99l-169 -201l191 -283h-101l-148 231l-40 -49v-182h-84v484h84z" />
    <glyph glyph-name="Lacute" unicode="&#x139;" horiz-adv-x="434" 
d="M71 0v674h84v-603h258v-71h-342zM173 824h101l-126 -114h-68z" />
    <glyph glyph-name="lacute" unicode="&#x13a;" horiz-adv-x="222" 
d="M68 0v705h84v-705h-84zM150 848h102l-126 -114h-68z" />
    <glyph glyph-name="Lcommaaccent" unicode="&#x13b;" horiz-adv-x="434" 
d="M71 0v674h84v-603h259v-71h-343zM168 -219l-17 40q73 14 73 64q0 33 -34 61l64 13q38 -26 38 -72q0 -49 -36 -75.5t-88 -30.5z" />
    <glyph glyph-name="lcommaaccent" unicode="&#x13c;" horiz-adv-x="222" 
d="M68 0v705h84v-705h-84zM49 -219l-17 40q72 14 72 64q0 35 -34 61l64 13q38 -26 38 -72q0 -49 -36 -75.5t-87 -30.5z" />
    <glyph glyph-name="Lcaron" unicode="&#x13d;" horiz-adv-x="434" 
d="M71 0v674h84v-603h259v-71h-343zM242 504l-17 40q72 14 72 64q0 33 -34 61l64 13q38 -26 38 -72q0 -49 -36 -75.5t-87 -30.5z" />
    <glyph glyph-name="lcaron" unicode="&#x13e;" horiz-adv-x="229" 
d="M68 0v705h84v-705h-84zM230 517l-37 27q33 42 33 89q0 39 -31 66l61 13q35 -23 35 -74q0 -64 -61 -121z" />
    <glyph glyph-name="Ldot" unicode="&#x13f;" horiz-adv-x="434" 
d="M71 0v674h84v-603h259v-71h-343zM311 320h-1q-20 0 -34 14.5t-14 34.5t14.5 34t34.5 14t33.5 -14t13.5 -34t-13.5 -34.5t-33.5 -14.5z" />
    <glyph glyph-name="ldot" unicode="&#x140;" horiz-adv-x="261" 
d="M68 0v705h84v-705h-84zM241 343h-1q-19 0 -32 14.5t-13 34.5t13.5 34t32.5 14t31.5 -14t12.5 -34q0 -21 -12.5 -35t-31.5 -14z" />
    <glyph glyph-name="Lslash" unicode="&#x141;" horiz-adv-x="438" 
d="M418 0h-342v265l-79 -62v68l79 63v340h84v-280l125 98v-69l-125 -98v-254h258v-71z" />
    <glyph glyph-name="lslash" unicode="&#x142;" horiz-adv-x="228" 
d="M156 0h-84v291l-66 -60v69l66 60v345h84v-280l69 63v-70l-69 -62v-356z" />
    <glyph glyph-name="Nacute" unicode="&#x143;" horiz-adv-x="600" 
d="M149 0h-78v674h89l188 -333q67 -119 110 -224l2 1q-9 121 -9 286v270h78v-674h-83l-189 336q-75 136 -112 227l-3 -1q7 -101 7 -290v-272zM346 824h102l-127 -114h-68z" />
    <glyph glyph-name="nacute" unicode="&#x144;" horiz-adv-x="510" 
d="M68 0v355q0 49 -4 129h74l5 -73h2q19 35 57 59t88 24q61 0 107.5 -46t46.5 -148v-300h-84v289q0 135 -98 135q-37 0 -65.5 -24.5t-39.5 -62.5q-5 -18 -5 -41v-296h-84zM297 690h91l-116 -141h-59z" />
    <glyph glyph-name="Ncommaaccent" unicode="&#x145;" horiz-adv-x="600" 
d="M149 0h-78v674h89l188 -333q67 -119 110 -224l2 1q-9 121 -9 286v270h78v-674h-83l-189 336q-75 136 -112 227l-3 -1q7 -101 7 -290v-272zM242 -218l-17 40q72 14 72 64q0 35 -34 61l64 13q38 -24 38 -72q0 -49 -36 -75.5t-87 -30.5z" />
    <glyph glyph-name="ncommaaccent" unicode="&#x146;" horiz-adv-x="510" 
d="M68 0v355q0 49 -4 129h74l5 -73h2q19 35 57 59t88 24q61 0 107.5 -46t46.5 -148v-300h-84v289q0 135 -98 135q-37 0 -65.5 -24.5t-39.5 -62.5q-5 -18 -5 -41v-296h-84zM203 -217l-17 40q72 14 72 65q0 34 -34 60l64 14q38 -26 38 -73q0 -49 -36 -75.5t-87 -30.5z" />
    <glyph glyph-name="Ncaron" unicode="&#x147;" horiz-adv-x="600" 
d="M149 0h-78v674h89l188 -333q67 -119 110 -224l2 1q-9 121 -9 286v270h78v-674h-83l-189 336q-75 136 -112 227l-3 -1q7 -101 7 -290v-272zM335 706h-67l-100 109h72l61 -66h2l59 66h70z" />
    <glyph glyph-name="ncaron" unicode="&#x148;" horiz-adv-x="510" 
d="M68 0v355q0 49 -4 129h74l5 -73h2q19 35 57 59t88 24q61 0 107.5 -46t46.5 -148v-300h-84v289q0 135 -98 135q-37 0 -65.5 -24.5t-39.5 -62.5q-5 -18 -5 -41v-296h-84zM286 549h-60l-90 141h64l55 -93h2l55 93h63z" />
    <glyph glyph-name="napostrophe" unicode="&#x149;" horiz-adv-x="510" 
d="M68 0v355q0 49 -4 129h74l5 -73h2q19 35 57 59t88 24q61 0 107.5 -46t46.5 -148v-300h-84v289q0 135 -98 135q-37 0 -65.5 -24.5t-39.5 -62.5q-5 -18 -5 -41v-296h-84zM55 534l-37 26q34 43 34 82q0 35 -31 59l62 15q35 -21 35 -70q0 -61 -63 -112z" />
    <glyph glyph-name="Eng" unicode="&#x14a;" horiz-adv-x="600" 
d="M149 0h-78v674h89l188 -333q67 -119 110 -224h2q-9 122 -9 287v270h78v-641q0 -198 -177 -229l-19 66q56 12 84 42t32 82l-192 342q-75 136 -112 227l-3 -1q7 -101 7 -290v-272z" />
    <glyph glyph-name="eng" unicode="&#x14b;" horiz-adv-x="510" 
d="M68 0v355q0 49 -4 129h74l5 -73h2q19 35 57 59t88 24q61 0 107.5 -46t46.5 -148v-249q0 -105 -47.5 -160.5t-126.5 -67.5l-17 68q107 21 107 153v245q0 135 -98 135q-37 0 -65.5 -24.5t-39.5 -62.5q-5 -18 -5 -41v-296h-84z" />
    <glyph glyph-name="Omacron" unicode="&#x14c;" horiz-adv-x="616" 
d="M304 -10h-1q-120 0 -194 93.5t-74 249.5q0 160 77.5 255.5t200.5 95.5q122 0 194.5 -93.5t72.5 -247.5q0 -170 -78 -261.5t-198 -91.5zM307 60h1q88 0 136 81t48 199q0 110 -47.5 192t-136.5 82q-90 0 -137.5 -82t-47.5 -197q0 -112 48.5 -193.5t135.5 -81.5zM193 792
h232v-55h-232v55z" />
    <glyph glyph-name="omacron" unicode="&#x14d;" horiz-adv-x="499" 
d="M247 -10h-1q-91 0 -150.5 66.5t-59.5 182.5q0 121 61.5 188t155.5 67t152 -67t58 -182q0 -127 -64.5 -191t-151.5 -64zM249 54h1q57 0 92 55.5t35 133.5q0 44 -11.5 84.5t-41.5 71.5t-74 31q-64 0 -96 -57t-32 -132q0 -77 34.5 -132t92.5 -55zM142 639h217v-55h-217v55z
" />
    <glyph glyph-name="Obreve" unicode="&#x14e;" horiz-adv-x="616" 
d="M304 -10h-1q-120 0 -194 93.5t-74 249.5q0 160 77.5 255.5t200.5 95.5q122 0 194.5 -93.5t72.5 -247.5q0 -170 -78 -261.5t-198 -91.5zM307 60h1q88 0 136 81t48 199q0 69 -18.5 129.5t-61.5 102.5t-103 42q-90 0 -138 -82t-48 -197q0 -112 49 -193.5t135 -81.5zM189 824
h50q10 -47 68 -47q60 0 70 47h49q-1 -46 -31 -74.5t-88 -28.5t-87.5 28t-30.5 75z" />
    <glyph glyph-name="obreve" unicode="&#x14f;" horiz-adv-x="499" 
d="M247 -10h-1q-91 0 -150.5 66.5t-59.5 182.5q0 121 61.5 188t155.5 67t152 -67t58 -182q0 -127 -64.5 -191t-151.5 -64zM249 54h1q57 0 92 55.5t35 133.5q0 44 -11.5 84.5t-41.5 71.5t-74 31q-64 0 -96 -57t-32 -132q0 -77 34.5 -132t92.5 -55zM130 678h50q4 -29 22 -48
t46 -19q32 0 50 19.5t20 47.5h50q0 -54 -33 -87.5t-87 -33.5q-58 0 -88 35t-30 86z" />
    <glyph glyph-name="Ohungarumlaut" unicode="&#x150;" horiz-adv-x="616" 
d="M304 -10h-1q-120 0 -194 93.5t-74 249.5q0 160 77.5 255.5t200.5 95.5q122 0 194.5 -93.5t72.5 -247.5q0 -170 -78 -261.5t-198 -91.5zM307 60h1q88 0 136 81t48 199q0 110 -47.5 192t-136.5 82q-90 0 -137.5 -82t-47.5 -197q0 -112 48.5 -193.5t135.5 -81.5zM284 826h91
l-108 -108h-61zM425 826h91l-108 -108h-61z" />
    <glyph glyph-name="ohungarumlaut" unicode="&#x151;" horiz-adv-x="499" 
d="M247 -10h-1q-91 0 -150.5 66.5t-59.5 182.5q0 121 61.5 188t155.5 67t152 -67t58 -182q0 -127 -64.5 -191t-151.5 -64zM249 54h1q57 0 92 55.5t35 133.5q0 44 -11.5 84.5t-41.5 71.5t-74 31q-64 0 -96 -57t-32 -132q0 -77 34.5 -132t92.5 -55zM221 689h81l-108 -136h-52z
M359 689h81l-108 -136h-52z" />
    <glyph glyph-name="OE" unicode="&#x152;" horiz-adv-x="809" 
d="M775 71v-71h-315q-16 -1 -57 -5q-37 -5 -70 -5q-143 0 -220.5 97t-77.5 246q0 165 84 258t220 93q40 0 73 -5q53 -5 56 -5h293v-71h-248v-216h233v-70h-233v-246h262zM429 72v528q-39 14 -91 14q-97 0 -156 -73.5t-59 -203.5q0 -132 60 -204.5t163 -72.5q54 0 83 12z" />
    <glyph glyph-name="oe" unicode="&#x153;" horiz-adv-x="787" 
d="M751 230h-298q1 -87 41 -130.5t106 -43.5q58 0 116 25l15 -60q-52 -31 -144 -31q-126 0 -174 110h-2q-23 -54 -69 -82t-100 -28q-90 0 -148 67t-58 183q0 118 60 186t151 68q57 0 101.5 -28.5t63.5 -81.5h2q25 53 67 81.5t95 28.5q49 0 85 -21t55 -56t28 -71.5t9 -74.5
q0 -23 -2 -41zM249 430h-1q-45 0 -75 -32t-40.5 -72t-10.5 -85q0 -77 34.5 -132t92.5 -55q59 0 92 53.5t33 134.5q0 76 -31 132t-94 56zM453 291h219q2 57 -23.5 99t-79.5 42q-53 0 -82.5 -43t-33.5 -98z" />
    <glyph glyph-name="Racute" unicode="&#x154;" horiz-adv-x="500" 
d="M71 0v665q64 14 151 14q125 0 182 -53q51 -48 51 -129q0 -63 -33 -107.5t-88 -65.5v-2q71 -24 96 -141q32 -150 48 -181h-86q-14 26 -42 163q-14 70 -43 99.5t-85 30.5h-67v-293h-84zM155 606v-249h72q66 0 105 35.5t39 94.5q0 63 -37.5 94.5t-105.5 31.5q-50 0 -73 -7z
M286 826h102l-127 -114h-69z" />
    <glyph glyph-name="racute" unicode="&#x155;" horiz-adv-x="303" 
d="M67 0v341q0 59 -4 143h74l4 -90h3q15 45 49 72.5t75 27.5q8 0 22 -2v-82q-7 2 -25 2q-43 0 -73 -30.5t-38 -78.5q-3 -18 -3 -42v-261h-84zM205 690h91l-117 -141h-59z" />
    <glyph glyph-name="Rcommaaccent" unicode="&#x156;" horiz-adv-x="500" 
d="M71 0v665q64 14 150 14q124 0 183 -53q51 -48 51 -129q0 -63 -33 -107.5t-89 -65.5v-2q72 -24 97 -141q32 -150 48 -181h-86q-14 26 -42 163q-14 70 -43 99t-85 31h-67v-293h-84zM155 606v-249h72q65 0 104.5 35.5t39.5 94.5q0 62 -38 94t-106 32q-49 0 -72 -7zM196 -212
l-17 40q72 14 72 64q0 35 -34 61l64 13q38 -26 38 -72q0 -49 -36 -75.5t-87 -30.5z" />
    <glyph glyph-name="rcommaaccent" unicode="&#x157;" horiz-adv-x="303" 
d="M67 0v341q0 59 -4 143h74l4 -90h3q15 45 49 72.5t75 27.5q8 0 22 -2v-82q-7 2 -25 2q-43 0 -73 -30.5t-38 -78.5q-3 -18 -3 -42v-261h-84zM58 -219l-16 40q72 14 72 64q0 35 -34 61l64 13q38 -26 38 -72q0 -49 -36 -75.5t-88 -30.5z" />
    <glyph glyph-name="Rcaron" unicode="&#x158;" horiz-adv-x="500" 
d="M71 0v665q64 14 151 14q125 0 182 -53q51 -48 51 -129q0 -63 -33 -107.5t-88 -65.5v-2q71 -24 96 -141q32 -150 48 -181h-86q-14 26 -42 163q-14 70 -43 99.5t-85 30.5h-67v-293h-84zM155 606v-249h72q66 0 105 35.5t39 94.5q0 63 -37.5 94.5t-105.5 31.5q-50 0 -73 -7z
M278 712h-67l-99 109h72l60 -66h2l60 66h70z" />
    <glyph glyph-name="rcaron" unicode="&#x159;" horiz-adv-x="303" 
d="M67 0v341q0 59 -4 143h74l4 -90h3q15 45 49 72.5t75 27.5q8 0 22 -2v-82q-7 2 -25 2q-43 0 -73 -30.5t-38 -78.5q-3 -18 -3 -42v-261h-84zM197 549h-60l-90 141h64l55 -93h2l55 93h64z" />
    <glyph glyph-name="Sacute" unicode="&#x15a;" horiz-adv-x="453" 
d="M38 30l21 71q60 -39 138 -39q62 0 97.5 31.5t35.5 83.5q0 45 -27.5 76t-88.5 59q-163 66 -163 190q0 79 57 130t149 51q82 0 132 -30l-22 -70q-48 29 -113 29q-59 0 -89 -30t-30 -69q0 -46 28 -74t96 -58q80 -38 117.5 -84.5t37.5 -113.5q0 -84 -58.5 -138t-163.5 -54
q-43 0 -86.5 11.5t-67.5 27.5zM279 826h102l-127 -114h-68z" />
    <glyph glyph-name="sacute" unicode="&#x15b;" horiz-adv-x="364" 
d="M34 23l21 64q49 -32 105 -32q42 0 64.5 19.5t22.5 52.5q0 30 -18.5 50t-63.5 40q-119 51 -119 138q0 60 43.5 99.5t113.5 39.5q62 0 109 -28l-21 -62q-41 26 -89 26q-35 0 -55 -18.5t-20 -46.5q0 -27 18 -44.5t64 -38.5q119 -51 119 -146q0 -67 -46 -106t-124 -39
q-73 0 -124 32zM228 690h91l-117 -141h-59z" />
    <glyph glyph-name="Scircumflex" unicode="&#x15c;" horiz-adv-x="453" 
d="M38 30l21 71q60 -39 138 -39q62 0 97.5 31.5t35.5 83.5q0 45 -27.5 76t-88.5 59q-163 66 -163 190q0 79 57 130t149 51q82 0 132 -30l-22 -70q-48 29 -113 29q-59 0 -89 -30t-30 -69q0 -46 28 -74t96 -58q80 -38 117.5 -84.5t37.5 -113.5q0 -84 -58.5 -138t-163.5 -54
q-43 0 -86.5 11.5t-67.5 27.5zM197 821h67l100 -109h-72l-60 65h-2l-61 -65h-70z" />
    <glyph glyph-name="scircumflex" unicode="&#x15d;" horiz-adv-x="364" 
d="M34 23l21 64q49 -32 105 -32q42 0 64.5 19.5t22.5 52.5q0 30 -18.5 50t-63.5 40q-119 51 -119 138q0 60 43.5 99.5t113.5 39.5q62 0 109 -28l-21 -62q-41 26 -89 26q-35 0 -55 -18.5t-20 -46.5q0 -27 18 -44.5t64 -38.5q119 -51 119 -146q0 -67 -46 -106t-124 -39
q-73 0 -124 32zM154 690h58l91 -141h-64l-55 92h-2l-54 -92h-64z" />
    <glyph glyph-name="Scedilla" unicode="&#x15e;" horiz-adv-x="453" 
d="M38 30l21 71q60 -39 137 -39q62 0 98 31.5t36 83.5q0 45 -27.5 76t-89.5 59q-162 66 -162 190q0 79 57 130t149 51q82 0 132 -30l-22 -70q-48 29 -113 29q-59 0 -89 -30t-30 -69q0 -46 28 -74t96 -58q80 -38 117.5 -84.5t37.5 -113.5q0 -70 -42 -120.5t-119 -65.5
l-28 -47q29 -4 49 -23.5t20 -47.5q0 -39 -29 -59t-71 -20t-68 18l15 42q25 -15 53 -15q40 0 40 31q0 36 -75 43l39 72h-8q-40 0 -83.5 11t-68.5 28z" />
    <glyph glyph-name="scedilla" unicode="&#x15f;" horiz-adv-x="364" 
d="M34 23l21 64q49 -32 105 -32q42 0 64.5 19.5t22.5 52.5q0 30 -18 50t-63 40q-120 50 -120 138q0 60 43.5 99.5t114.5 39.5q61 0 108 -28l-21 -62q-41 26 -89 26q-35 0 -55 -18.5t-20 -46.5q0 -27 18 -44.5t65 -38.5q118 -51 118 -146q0 -54 -31.5 -91t-86.5 -49l-28 -46
q29 -4 49 -23t20 -47q0 -41 -28.5 -60.5t-72.5 -19.5q-39 0 -67 18l15 42q24 -15 53 -15q41 0 41 31q0 36 -76 43l39 72h-4q-64 0 -117 32z" />
    <glyph glyph-name="Scaron" unicode="&#x160;" horiz-adv-x="453" 
d="M38 30l21 71q60 -39 138 -39q62 0 97.5 31.5t35.5 83.5q0 45 -27.5 76t-88.5 59q-163 66 -163 190q0 79 57 130t149 51q82 0 132 -30l-22 -70q-48 29 -113 29q-59 0 -89 -30t-30 -69q0 -46 28 -74t96 -58q80 -38 117.5 -84.5t37.5 -113.5q0 -84 -58.5 -138t-163.5 -54
q-43 0 -86.5 11.5t-67.5 27.5zM274 712h-67l-99 109h71l61 -66h2l60 66h70z" />
    <glyph glyph-name="scaron" unicode="&#x161;" horiz-adv-x="364" 
d="M34 23l21 64q49 -32 105 -32q42 0 64.5 19.5t22.5 52.5q0 30 -18.5 50t-63.5 40q-119 51 -119 138q0 60 43.5 99.5t113.5 39.5q62 0 109 -28l-21 -62q-41 26 -89 26q-35 0 -55 -18.5t-20 -46.5q0 -27 18 -44.5t64 -38.5q119 -51 119 -146q0 -67 -46 -106t-124 -39
q-73 0 -124 32zM216 549h-60l-91 141h65l55 -93h2l56 93h63z" />
    <glyph glyph-name="Tcommaaccent" unicode="&#x162;" horiz-adv-x="454" 
d="M185 0v602h-181v72h446v-72h-181v-602h-84zM163 -219l-17 40q72 14 72 64q0 35 -34 61l64 13q38 -26 38 -72q0 -49 -36 -75.5t-87 -30.5z" />
    <glyph glyph-name="tcommaaccent" unicode="&#x163;" horiz-adv-x="308" 
d="M86 571l84 28v-115h116v-64h-116v-269q0 -90 61 -90q27 0 45 5l4 -64q-29 -11 -72 -11q-60 0 -90 35q-32 36 -32 125v269h-70v64h70v87zM111 -223l-17 40q72 14 72 64q0 33 -34 61l65 13q38 -24 38 -72q0 -49 -36 -75.5t-88 -30.5z" />
    <glyph glyph-name="Tcaron" unicode="&#x164;" horiz-adv-x="454" 
d="M185 0v602h-181v72h446v-72h-181v-602h-84zM261 710h-67l-99 109h71l61 -66h2l59 66h70z" />
    <glyph glyph-name="tcaron" unicode="&#x165;" horiz-adv-x="317" 
d="M86 571l83 28v-115h117v-64h-117v-269q0 -90 62 -90q26 0 46 5l4 -64q-31 -11 -73 -11q-60 0 -90 35q-32 36 -32 125v269h-70v64h70v87zM273 540l-29 30q35 33 35 77q0 34 -30 60l62 12q35 -23 35 -68q0 -71 -73 -111z" />
    <glyph glyph-name="Tbar" unicode="&#x166;" horiz-adv-x="454" 
d="M450 602h-181v-223h112v-58h-112v-321h-84v321h-112v58h112v223h-181v72h446v-72z" />
    <glyph glyph-name="tbar" unicode="&#x167;" horiz-adv-x="308" 
d="M285 420h-116v-115h91v-54h-91v-103q0 -87 62 -87q25 0 45 5l3 -64q-29 -11 -72 -11q-59 0 -89 35q-32 36 -32 125v100h-63v54h63v115h-70v64h70v87l83 28v-115h116v-64z" />
    <glyph glyph-name="Utilde" unicode="&#x168;" horiz-adv-x="590" 
d="M71 674h84v-415q0 -102 37.5 -150.5t100.5 -48.5q67 0 105 49t38 150v415h84v-407q0 -142 -62.5 -209.5t-167.5 -67.5q-102 0 -160.5 65t-58.5 206v413zM222 716h-45q-1 45 16.5 72t48.5 27q20 0 56 -19q32 -18 45 -18t19 8.5t8 30.5h44q2 -95 -65 -95q-22 0 -58 18
q-31 18 -44 18q-20 0 -25 -42z" />
    <glyph glyph-name="utilde" unicode="&#x169;" horiz-adv-x="505" 
d="M437 484v-352q0 -56 4 -132h-74l-5 70h-3q-19 -32 -55 -56t-88 -24q-66 0 -108.5 48t-42.5 156v290h84v-276q0 -148 95 -148q38 0 64.5 23t37.5 53q7 23 7 45v303h84zM180 566h-46q-2 46 16.5 73.5t49.5 27.5q18 0 58 -21q28 -17 41 -17q24 0 27 41h45q2 -98 -67 -98
q-19 0 -57 20q-31 17 -41 17q-23 0 -26 -43z" />
    <glyph glyph-name="Umacron" unicode="&#x16a;" horiz-adv-x="590" 
d="M71 674h84v-415q0 -102 37.5 -150.5t100.5 -48.5q143 0 143 199v415h84v-407q0 -142 -62.5 -209.5t-167.5 -67.5q-102 0 -160.5 65t-58.5 206v413zM180 789h232v-55h-232v55z" />
    <glyph glyph-name="umacron" unicode="&#x16b;" horiz-adv-x="505" 
d="M437 484v-352q0 -56 4 -132h-74l-5 70h-2q-19 -32 -55.5 -56t-87.5 -24q-67 0 -109.5 48t-42.5 156v290h84v-276q0 -148 95 -148q38 0 64.5 23t37.5 53q7 23 7 45v303h84zM144 639h216v-55h-216v55z" />
    <glyph glyph-name="Ubreve" unicode="&#x16c;" horiz-adv-x="590" 
d="M71 674h84v-415q0 -102 37.5 -150.5t100.5 -48.5q143 0 143 199v415h84v-407q0 -142 -62.5 -209.5t-167.5 -67.5q-102 0 -160.5 65t-58.5 206v413zM177 821h50q10 -47 69 -47q60 0 69 47h50q-2 -46 -32.5 -74.5t-87.5 -28.5q-58 0 -87.5 28t-30.5 75z" />
    <glyph glyph-name="ubreve" unicode="&#x16d;" horiz-adv-x="505" 
d="M437 484v-352q0 -56 4 -132h-74l-5 70h-2q-19 -32 -55.5 -56t-87.5 -24q-67 0 -109.5 48t-42.5 156v290h84v-276q0 -148 95 -148q38 0 64.5 23t37.5 53q7 23 7 45v303h84zM134 678h49q4 -30 22.5 -48.5t46.5 -18.5q32 0 49.5 19.5t19.5 47.5h50q0 -54 -32.5 -87.5
t-86.5 -33.5q-58 0 -88.5 35t-29.5 86z" />
    <glyph glyph-name="Uring" unicode="&#x16e;" horiz-adv-x="590" 
d="M71 674h84v-415q0 -102 37.5 -150.5t100.5 -48.5q67 0 105 49t38 150v415h84v-407q0 -142 -62.5 -209.5t-167.5 -67.5q-102 0 -160.5 65t-58.5 206v413zM296 869h1q44 0 70 -25.5t26 -63.5q0 -37 -27 -62.5t-70 -25.5q-44 0 -71 25t-27 62q0 38 27 64t71 26zM295 833h-1
q-21 0 -33.5 -16t-12.5 -38q0 -20 13.5 -35t33.5 -15q21 0 34.5 15t13.5 37t-13.5 37t-34.5 15z" />
    <glyph glyph-name="uring" unicode="&#x16f;" horiz-adv-x="505" 
d="M437 484v-352q0 -56 4 -132h-74l-5 70h-2q-19 -32 -55.5 -56t-87.5 -24q-67 0 -109.5 48t-42.5 156v290h84v-276q0 -148 95 -148q38 0 65 23t38 53q6 20 6 45v303h84zM253 718h1q44 0 70.5 -26t26.5 -66q0 -38 -28 -64t-70 -26q-43 0 -71 26t-28 63q0 40 27 66.5t72 26.5
zM253 681h-1q-22 0 -35 -16t-13 -39q0 -21 13.5 -37t35.5 -16q23 0 36.5 15.5t13.5 38.5t-13.5 38.5t-36.5 15.5z" />
    <glyph glyph-name="Uhungarumlaut" unicode="&#x170;" horiz-adv-x="590" 
d="M71 674h84v-415q0 -102 37.5 -150.5t100.5 -48.5q143 0 143 199v415h84v-407q0 -142 -62.5 -209.5t-167.5 -67.5q-102 0 -160.5 65t-58.5 206v413zM258 824h92l-108 -108h-61zM400 824h91l-108 -108h-61z" />
    <glyph glyph-name="uhungarumlaut" unicode="&#x171;" horiz-adv-x="505" 
d="M437 484v-352q0 -56 4 -132h-74l-5 70h-2q-19 -32 -55.5 -56t-87.5 -24q-67 0 -109.5 48t-42.5 156v290h84v-276q0 -148 95 -148q38 0 64.5 23t37.5 53q7 23 7 45v303h84zM229 689h81l-109 -136h-51zM367 689h80l-108 -136h-51z" />
    <glyph glyph-name="Uogonek" unicode="&#x172;" horiz-adv-x="590" 
d="M388 -133l13 -44q-32 -23 -80 -23q-41 0 -64.5 21t-23.5 57q0 54 55 113h-8q-96 3 -152.5 68.5t-56.5 202.5v412h84v-415q0 -101 37.5 -149.5t99.5 -48.5q68 0 106 48.5t38 149.5v415h84v-407q0 -113 -42 -178.5t-116 -85.5q-25 -21 -44 -49.5t-19 -53.5q0 -21 12.5 -32
t31.5 -11q23 0 45 10z" />
    <glyph glyph-name="uogonek" unicode="&#x173;" horiz-adv-x="505" 
d="M437 484v-352q0 -72 5 -132l-19 2q-41 -57 -41 -99q0 -24 13.5 -37t34.5 -13q25 0 45 9l12 -45q-31 -22 -78 -22q-41 0 -65.5 22t-24.5 63q0 53 48 122l-5 68h-2q-19 -32 -55.5 -56t-87.5 -24q-67 0 -109.5 48t-42.5 156v290h84v-276q0 -148 95 -148q38 0 64.5 23
t37.5 53q7 18 7 45v303h84z" />
    <glyph glyph-name="Wcircumflex" unicode="&#x174;" horiz-adv-x="788" 
d="M261 0h-86l-158 674h88l74 -336q26 -121 44 -236h3q8 55 50 237l82 335h83l76 -334q34 -151 45 -237h3q16 97 48 237l79 334h85l-173 -674h-86l-79 344q-31 132 -42 221h-2q-13 -94 -47 -222zM363 819h67l99 -109h-72l-60 65h-2l-60 -65h-70z" />
    <glyph glyph-name="wcircumflex" unicode="&#x175;" horiz-adv-x="685" 
d="M16 484h87l59 -242q24 -102 33 -155h3q13 62 40 153l72 244h69l69 -239q30 -112 39 -158h3q9 53 34 157l62 240h84l-146 -484h-75l-68 232q-25 82 -38 156h-2q-12 -64 -40 -157l-71 -231h-76zM313 690h58l91 -141h-64l-55 92h-2l-54 -92h-64z" />
    <glyph glyph-name="Ycircumflex" unicode="&#x176;" horiz-adv-x="497" 
d="M290 0h-84v286l-194 388h94l84 -181q42 -91 62 -143h2q19 53 62 144l85 180h93l-204 -387v-287zM217 819h66l99 -109h-71l-60 65h-2l-60 -65h-70z" />
    <glyph glyph-name="ycircumflex" unicode="&#x177;" horiz-adv-x="434" 
d="M10 484h91l94 -284q17 -56 27 -99h3q10 42 27 101l85 282h88l-116 -334q-43 -124 -77 -194.5t-75 -111.5q-50 -49 -102 -62l-24 71q41 17 75 48q41 41 64 94q7 17 7 22q0 6 -5 21zM189 690h58l91 -141h-65l-54 92h-2l-54 -92h-64z" />
    <glyph glyph-name="Ydieresis" unicode="&#x178;" horiz-adv-x="497" 
d="M290 0h-84v286l-194 388h94l84 -181q42 -91 62 -143h2q19 53 62 144l85 180h93l-204 -387v-287zM168 715h-1q-20 0 -33 14.5t-13 35.5q0 20 14 34.5t34 14.5t33 -14t13 -35q0 -22 -13 -36t-34 -14zM347 715h-1q-20 0 -33 14.5t-13 35.5q0 20 13.5 34.5t33.5 14.5
q21 0 34 -14t13 -35q0 -22 -13 -36t-34 -14z" />
    <glyph glyph-name="Zacute" unicode="&#x179;" horiz-adv-x="495" 
d="M27 0v49l331 551v3h-303v71h408v-53l-328 -547v-3h331v-71h-439zM298 824h102l-127 -114h-68z" />
    <glyph glyph-name="zacute" unicode="&#x17a;" horiz-adv-x="393" 
d="M17 0v50l199 289q12 18 56 75v2h-236v68h337l-1 -53l-197 -286q-30 -44 -55 -75v-2h255v-68h-358zM244 690h91l-116 -141h-59z" />
    <glyph glyph-name="Zdotaccent" unicode="&#x17b;" horiz-adv-x="495" 
d="M27 0v49l331 551v3h-303v71h408v-53l-328 -547v-3h331v-71h-439zM255 720h-1q-20 0 -34 14.5t-14 34.5t14.5 34t34.5 14t33.5 -14t13.5 -34t-13.5 -34.5t-33.5 -14.5z" />
    <glyph glyph-name="zdotaccent" unicode="&#x17c;" horiz-adv-x="393" 
d="M17 0v50l199 289q12 18 56 75v2h-235v68h335v-53l-197 -286q-30 -44 -55 -75v-2h255v-68h-358zM200 569h-1q-20 0 -34 15t-14 35t14.5 34.5t34.5 14.5t33.5 -14.5t13.5 -34.5q0 -21 -13.5 -35.5t-33.5 -14.5z" />
    <glyph glyph-name="Zcaron" unicode="&#x17d;" horiz-adv-x="495" 
d="M27 0v49l331 551v3h-303v71h408v-53l-328 -547v-3h331v-71h-439zM291 710h-66l-100 109h72l60 -66h2l60 66h70z" />
    <glyph glyph-name="zcaron" unicode="&#x17e;" horiz-adv-x="393" 
d="M17 0v50l199 289q12 18 56 75v2h-236v68h337l-1 -53l-197 -286q-30 -44 -55 -75v-2h255v-68h-358zM238 549h-60l-90 141h64l55 -93h2l56 93h63z" />
    <glyph glyph-name="florin" unicode="&#x192;" horiz-adv-x="475" 
d="M101 340v63h94l6 48q5 41 16 75t31 66t54.5 50t79.5 18q42 -2 65 -14l-16 -62q-25 9 -49 9q-82 0 -99 -135l-6 -55h111v-63h-118l-26 -212q-13 -104 -50 -157.5t-117 -53.5q-48 2 -73 17l16 60q24 -11 52 -11q41 0 62 37t31 118l23 202h-87z" />
    <glyph glyph-name="AEacute" unicode="&#x1fc;" horiz-adv-x="718" 
d="M88 0h-86l277 674h386l-1 -71h-255l21 -218h228v-70h-218l25 -244h226v-71h-299l-25 233h-185zM207 301h152l-19 197q-1 11 -3.5 35.5t-4 44.5t-2.5 36h-5q-20 -60 -41 -117zM458 824h101l-126 -114h-68z" />
    <glyph glyph-name="aeacute" unicode="&#x1fd;" horiz-adv-x="710" 
d="M673 235h-294q-1 -90 37.5 -134.5t104.5 -44.5t116 25l16 -59q-58 -32 -145 -32q-58 0 -104 27.5t-64 75.5h-3q-20 -48 -63 -75.5t-100 -27.5q-66 0 -103.5 40t-37.5 98q0 84 70.5 129.5t195.5 43.5v23q0 15 -4.5 31.5t-14.5 34.5t-32 29.5t-52 11.5q-63 0 -110 -34
l-20 57q63 40 139 40q114 0 142 -98h3q47 98 153 98q47 0 82 -21.5t54 -56t27.5 -71t8.5 -72.5q0 -18 -2 -38zM301 166v78q-186 5 -186 -109q0 -39 22.5 -60t55.5 -21q39 -1 66.5 21.5t36.5 57.5q5 18 5 33zM379 295h215q2 54 -23.5 96t-76.5 42q-53 0 -83 -43t-32 -95z
M399 690h92l-117 -141h-59z" />
    <glyph glyph-name="Oslashacute" unicode="&#x1fe;" horiz-adv-x="616" 
d="M104 -41l-47 34l56 90q-78 94 -78 252q0 159 77.5 254t197.5 95q84 0 149 -49l50 77l51 -31l-55 -88q76 -95 76 -250q0 -171 -78 -262t-194 -91q-87 0 -151 51zM162 162l257 407q-48 46 -110 46q-90 0 -139.5 -82t-49.5 -195q0 -95 40 -177zM455 513l-258 -405
q44 -49 111 -49q89 0 138.5 81.5t49.5 199.5q0 98 -39 172zM357 830h102l-126 -114h-69z" />
    <glyph glyph-name="oslashacute" unicode="&#x1ff;" horiz-adv-x="499" 
d="M251 494h1q60 0 109 -32l38 57l40 -25l-40 -64q64 -69 64 -185q0 -126 -64 -190.5t-149 -64.5q-62 0 -111 32l-38 -59l-38 29l39 61q-66 69 -66 187q0 120 61.5 187t153.5 67zM149 122l175 278q-27 30 -75 30q-46 0 -77 -31t-42.5 -71.5t-11.5 -86.5q0 -67 29 -118z
M351 358l-175 -275q29 -29 72 -29q62 0 97.5 54.5t35.5 132.5q0 66 -28 116zM289 690h92l-117 -141h-59z" />
    <glyph glyph-name="Scommaaccent" unicode="&#x218;" horiz-adv-x="453" 
d="M38 30l21 71q60 -39 137 -39q62 0 98 31.5t36 83.5q0 45 -28 76t-89 59q-162 66 -162 190q0 79 57 130t149 51q82 0 132 -30l-22 -70q-48 29 -114 29q-58 0 -88 -30t-30 -69q0 -46 28 -74t95 -58q81 -38 118.5 -84t37.5 -114q0 -84 -58.5 -138t-163.5 -54
q-43 0 -86.5 11.5t-67.5 27.5zM166 -219l-17 40q72 14 72 64q0 35 -34 61l64 13q38 -24 38 -72q0 -49 -36 -75.5t-87 -30.5z" />
    <glyph glyph-name="scommaaccent" unicode="&#x219;" horiz-adv-x="364" 
d="M34 23l21 64q49 -32 105 -32q42 0 64.5 19.5t22.5 52.5q0 30 -18 50t-63 40q-120 50 -120 138q0 60 43.5 99.5t114.5 39.5q61 0 108 -28l-21 -62q-41 26 -89 26q-35 0 -55 -18.5t-20 -46.5q0 -27 18 -44.5t65 -38.5q118 -51 118 -146q0 -67 -46 -106t-124 -39
q-73 0 -124 32zM122 -219l-16 40q72 14 72 64q0 34 -35 61l65 13q38 -24 38 -72q0 -49 -36 -75.5t-88 -30.5z" />
    <glyph glyph-name="uni021A" unicode="&#x21a;" horiz-adv-x="454" 
d="M185 0v602h-181v72h446v-72h-181v-602h-84zM163 -219l-17 40q72 14 72 64q0 35 -34 61l64 13q38 -26 38 -72q0 -49 -36 -75.5t-87 -30.5z" />
    <glyph glyph-name="uni021B" unicode="&#x21b;" horiz-adv-x="308" 
d="M86 571l84 28v-115h116v-64h-116v-269q0 -90 61 -90q27 0 45 5l4 -64q-29 -11 -72 -11q-60 0 -90 35q-32 36 -32 125v269h-70v64h70v87zM111 -223l-17 40q72 14 72 64q0 33 -34 61l65 13q38 -24 38 -72q0 -49 -36 -75.5t-88 -30.5z" />
    <glyph glyph-name="circumflex" unicode="&#x2c6;" 
d="M121 690h58l91 -141h-65l-54 92h-2l-54 -92h-64z" />
    <glyph glyph-name="caron" unicode="&#x2c7;" 
d="M181 549h-60l-91 141h64l55 -93h2l56 93h63z" />
    <glyph glyph-name="uni02C9" unicode="&#x2c9;" 
d="M43 639h216v-55h-216v55z" />
    <glyph glyph-name="breve" unicode="&#x2d8;" 
d="M31 678h50q4 -29 22 -48t46 -19q32 0 50 19.5t20 47.5h50q0 -54 -32.5 -87.5t-86.5 -33.5q-59 0 -89 35t-30 86z" />
    <glyph glyph-name="dotaccent" unicode="&#x2d9;" 
d="M143 569h-1q-20 0 -34 15t-14 35t14.5 34.5t34.5 14.5t33.5 -14.5t13.5 -34.5q0 -21 -13.5 -35.5t-33.5 -14.5z" />
    <glyph glyph-name="ring" unicode="&#x2da;" horiz-adv-x="400" 
d="M201 718h1q43 0 69.5 -26t26.5 -66q0 -38 -28 -64t-69 -26q-43 0 -71 26t-28 63q0 40 27 66.5t72 26.5zM200 681h-1q-22 0 -34.5 -16t-12.5 -39q0 -21 13.5 -37t34.5 -16q23 0 36.5 15.5t13.5 38.5t-13.5 38.5t-36.5 15.5z" />
    <glyph glyph-name="ogonek" unicode="&#x2db;" 
d="M123 5h56q-50 -70 -50 -101q0 -23 13.5 -36t34.5 -13q22 0 45 9l12 -44q-29 -23 -77 -23q-42 0 -66.5 22t-24.5 63q0 56 57 123z" />
    <glyph glyph-name="tilde" unicode="&#x2dc;" 
d="M78 566h-46q-1 46 17 73.5t49 27.5q18 0 58 -21q28 -17 41 -17q24 0 27 41h45q2 -98 -67 -98q-19 0 -57 20q-31 17 -41 17q-23 0 -26 -43z" />
    <glyph glyph-name="hungarumlaut" unicode="&#x2dd;" 
d="M120 689h81l-108 -136h-52zM258 689h81l-108 -136h-52z" />
    <glyph glyph-name="uni037E" unicode="&#x37e;" horiz-adv-x="212" 
d="M88 -118l-59 -6q36 118 46 235l94 5q-13 -57 -38 -128t-43 -106zM116 324h-1q-25 0 -41.5 18.5t-16.5 45.5q0 28 17 46.5t43 18.5t42.5 -18t16.5 -47q0 -28 -16.5 -46t-43.5 -18z" />
    <glyph glyph-name="tonos" unicode="&#x384;" horiz-adv-x="302" 
d="M128 691h83l-75 -141h-55z" />
    <glyph glyph-name="dieresistonos" unicode="&#x385;" horiz-adv-x="347" 
d="M153 705h72l-45 -154h-46zM58 572h-1q-19 0 -32 13.5t-13 32.5t13.5 32t33.5 13q18 0 30.5 -13t12.5 -32t-12.5 -32.5t-31.5 -13.5zM287 572h-1q-19 0 -31.5 13.5t-12.5 32.5t13 32t32 13t32 -12.5t13 -32.5q0 -19 -13 -32.5t-32 -13.5z" />
    <glyph glyph-name="Alphatonos" unicode="&#x386;" horiz-adv-x="564" 
d="M389 209h-212l-62 -209h-86l207 674h99l206 -674h-88zM193 275h181l-58 187q-14 50 -32 132h-3q-18 -84 -31 -131zM62 674h75l-32 -153h-49z" />
    <glyph glyph-name="anoteleia" unicode="&#x387;" horiz-adv-x="212" 
d="M106 253h-1q-26 0 -43 18.5t-17 47.5t17.5 48t43.5 19q27 0 44 -18.5t17 -48.5q0 -29 -17 -47.5t-44 -18.5z" />
    <glyph glyph-name="Epsilontonos" unicode="&#x388;" horiz-adv-x="515" 
d="M452 387v-70h-233v-246h262v-71h-346v674h332v-71h-248v-216h233zM6 674h75l-33 -153h-48z" />
    <glyph glyph-name="Etatonos" unicode="&#x389;" horiz-adv-x="660" 
d="M135 674h84v-284h285v284h84v-674h-84v316h-285v-316h-84v674zM6 674h75l-33 -153h-48z" />
    <glyph glyph-name="Iotatonos" unicode="&#x38a;" horiz-adv-x="291" 
d="M135 674h84v-674h-84v674zM6 674h75l-33 -153h-48z" />
    <glyph glyph-name="Omicrontonos" unicode="&#x38c;" horiz-adv-x="654" 
d="M343 -10h-1q-120 0 -194 93.5t-74 249.5q0 160 77.5 255.5t200.5 95.5q122 0 194.5 -93.5t72.5 -247.5q0 -170 -78 -261.5t-198 -91.5zM346 60h1q88 0 136 81t48 199q0 110 -47.5 192t-136.5 82q-90 0 -137.5 -82t-47.5 -197q0 -112 48.5 -193.5t135.5 -81.5zM7 674h75
l-33 -153h-48z" />
    <glyph glyph-name="Upsilontonos" unicode="&#x38e;" horiz-adv-x="649" 
d="M119 611l15 69q30 -2 70 -23t69 -53q89 -94 106 -259h4q21 150 115 252q30 33 67 55.5t65 27.5l15 -70q-62 -26 -122.5 -105t-88.5 -199q-16 -68 -16 -131v-175h-84v175q0 71 -12 130q-25 130 -80.5 208.5t-122.5 97.5zM7 674h75l-33 -153h-48z" />
    <glyph glyph-name="Omegatonos" unicode="&#x38f;" horiz-adv-x="670" 
d="M507 71v-3h132v-68h-230v54q58 45 94.5 124.5t36.5 174.5q0 63 -19 121t-63 99t-104 41q-88 0 -138.5 -78.5t-50.5 -182.5q0 -91 38 -175t93 -124v-54h-230v68h131v3q-52 50 -86 125t-34 166q0 143 79.5 232.5t201.5 89.5t195.5 -89t73.5 -226q0 -96 -34 -173t-86 -125z
M6 674h75l-33 -153h-48z" />
    <glyph glyph-name="iotadieresistonos" unicode="&#x390;" horiz-adv-x="222" 
d="M152 484v-372q0 -32 9 -44.5t35 -11.5l-6 -61q-11 -5 -36 -5q-40 0 -63 25t-23 90v379h84zM100 692h72l-46 -153h-44zM5 561h-1q-19 0 -31.5 13t-12.5 32t13 31.5t33 12.5q17 0 29.5 -12.5t12.5 -31.5t-12 -32t-31 -13zM233 561h-1q-18 0 -30.5 13t-12.5 32t13 31.5
t31 12.5q19 0 31.5 -12.5t12.5 -31.5t-12.5 -32t-31.5 -13z" />
    <glyph glyph-name="Alpha" unicode="&#x391;" horiz-adv-x="559" 
d="M384 209h-212l-62 -209h-86l207 674h99l206 -674h-88zM188 275h181l-58 187q-14 50 -32 132h-3q-18 -84 -31 -131z" />
    <glyph glyph-name="Beta" unicode="&#x392;" horiz-adv-x="504" 
d="M71 2v663q65 14 145 14q118 0 174 -48q53 -43 53 -119q0 -50 -29.5 -89.5t-81.5 -58.5v-3q57 -14 96 -57.5t39 -111.5q0 -82 -55 -134q-63 -63 -216 -63q-62 0 -125 7zM155 608v-220h66q62 0 99.5 32.5t37.5 83.5q0 54 -35.5 82t-100.5 28q-41 0 -67 -6zM155 325v-260
q20 -4 63 -4q71 0 116 32.5t45 99.5q0 65 -46 98.5t-117 33.5h-61z" />
    <glyph glyph-name="Gamma" unicode="&#x393;" horiz-adv-x="415" 
d="M71 674h330v-71h-246v-603h-84v674z" />
    <glyph glyph-name="uni0394" unicode="&#x394;" horiz-adv-x="565" 
d="M25 0v48l210 626h95l207 -626v-48h-512zM113 71h333l-121 365q-36 119 -45 157h-3q-17 -73 -41 -147z" />
    <glyph glyph-name="Epsilon" unicode="&#x395;" horiz-adv-x="450" 
d="M388 387v-70h-233v-246h262v-71h-346v674h332v-71h-248v-216h233z" />
    <glyph glyph-name="Zeta" unicode="&#x396;" horiz-adv-x="495" 
d="M27 0v49l331 551v3h-303v71h408v-53l-328 -547v-3h331v-71h-439z" />
    <glyph glyph-name="Eta" unicode="&#x397;" horiz-adv-x="596" 
d="M71 674h84v-284h285v284h84v-674h-84v316h-285v-316h-84v674z" />
    <glyph glyph-name="Theta" unicode="&#x398;" horiz-adv-x="617" 
d="M305 -10h-1q-120 0 -194.5 93.5t-74.5 249.5q0 160 78 255.5t201 95.5q122 0 195 -93.5t73 -247.5q0 -170 -78.5 -261.5t-198.5 -91.5zM308 60h1q88 0 136.5 81t48.5 199q0 110 -47.5 192t-137.5 82t-138 -82t-48 -197q0 -112 49 -193.5t136 -81.5zM191 383h235v-71h-235
v71z" />
    <glyph glyph-name="Iota" unicode="&#x399;" horiz-adv-x="227" 
d="M71 674h84v-674h-84v674z" />
    <glyph glyph-name="Kappa" unicode="&#x39a;" horiz-adv-x="501" 
d="M71 0v674h84v-324h3q21 33 50 75l181 249h101l-220 -287l235 -387h-97l-196 329l-57 -71v-258h-84z" />
    <glyph glyph-name="Lambda" unicode="&#x39b;" horiz-adv-x="557" 
d="M536 0h-89l-136 447q-15 59 -33 142h-3q-15 -78 -32 -142l-132 -447h-87l207 674h97z" />
    <glyph glyph-name="Mu" unicode="&#x39c;" horiz-adv-x="742" 
d="M607 0l-15 294q-11 202 -10 283h-3q-33 -122 -75 -250l-109 -323h-60l-101 315q-47 150 -70 258h-3q-4 -150 -12 -290l-16 -287h-79l45 674h103l104 -321q44 -142 64 -229h2q20 86 65 229l107 321h104l41 -674h-82z" />
    <glyph glyph-name="Nu" unicode="&#x39d;" horiz-adv-x="600" 
d="M149 0h-78v674h89l188 -333q67 -119 110 -224l2 1q-9 121 -9 286v270h78v-674h-83l-189 336q-75 136 -112 227l-3 -1q7 -101 7 -290v-272z" />
    <glyph glyph-name="Xi" unicode="&#x39e;" horiz-adv-x="487" 
d="M48 674h396v-71h-396v71zM77 384h338v-70h-338v70zM39 71h415v-71h-415v71z" />
    <glyph glyph-name="Omicron" unicode="&#x39f;" horiz-adv-x="616" 
d="M304 -10h-1q-120 0 -194 93.5t-74 249.5q0 160 77.5 255.5t200.5 95.5q122 0 194.5 -93.5t72.5 -247.5q0 -170 -78 -261.5t-198 -91.5zM307 60h1q88 0 136 81t48 199q0 110 -47.5 192t-136.5 82q-90 0 -137.5 -82t-47.5 -197q0 -112 48.5 -193.5t135.5 -81.5z" />
    <glyph glyph-name="Pi" unicode="&#x3a0;" horiz-adv-x="579" 
d="M507 674v-674h-84v601h-268v-601h-84v674h436z" />
    <glyph glyph-name="Rho" unicode="&#x3a1;" horiz-adv-x="492" 
d="M71 0v666q72 13 151 13q118 0 177 -54q56 -51 56 -141t-49 -142q-64 -75 -192 -75q-38 0 -59 5v-272h-84zM155 606v-265q19 -6 60 -6q73 0 114.5 37.5t41.5 106.5q0 63 -38 98t-108 35q-42 0 -70 -6z" />
    <glyph glyph-name="Sigma" unicode="&#x3a3;" horiz-adv-x="509" 
d="M130 75v-4h350v-71h-457v52l216 283l-204 282v57h416v-71h-309v-3l188 -261z" />
    <glyph glyph-name="Tau" unicode="&#x3a4;" horiz-adv-x="454" 
d="M185 0v602h-181v72h446v-72h-181v-602h-84z" />
    <glyph glyph-name="Upsilon" unicode="&#x3a5;" horiz-adv-x="539" 
d="M9 611l15 69q30 -2 70 -23t69 -53q89 -94 106 -259h4q21 150 115 252q30 33 67 55.5t65 27.5l15 -70q-62 -26 -122.5 -105t-88.5 -199q-16 -68 -16 -131v-175h-84v175q0 71 -12 130q-25 130 -80.5 208.5t-122.5 97.5z" />
    <glyph glyph-name="Phi" unicode="&#x3a6;" horiz-adv-x="654" 
d="M366 29v-52h-80v52q-103 10 -177.5 87.5t-74.5 218.5q0 73 23 132.5t60.5 96.5t81 58t89.5 25v49h80v-49q104 -9 178 -90t74 -218q0 -141 -74.5 -221t-179.5 -89zM287 91v495q-65 -7 -116 -73t-51 -178q0 -104 49 -169t118 -75zM367 586v-495q70 8 118.5 73.5t48.5 173.5
q0 111 -49.5 176t-117.5 72z" />
    <glyph glyph-name="Chi" unicode="&#x3a7;" horiz-adv-x="517" 
d="M496 0h-95l-79 153q-32 56 -67 128h-2q-29 -65 -63 -129l-74 -152h-94l186 342l-179 332h94l81 -158q30 -56 56 -112h2q24 55 54 113l80 157h94l-183 -328z" />
    <glyph glyph-name="Psi" unicode="&#x3a8;" horiz-adv-x="634" 
d="M589 674v-193q0 -126 -62 -194.5t-170 -77.5v-209h-79v209q-104 7 -168 67.5t-64 181.5v216h81v-204q0 -183 151 -195v399h79v-399q69 5 110 56.5t41 157.5v185h81z" />
    <glyph glyph-name="uni03A9" unicode="&#x3a9;" horiz-adv-x="635" 
d="M472 71v-3h132v-68h-230v54q57 45 94 125.5t37 174.5q0 63 -19 120.5t-63 98.5t-104 41q-88 0 -138.5 -78.5t-50.5 -181.5q0 -90 38 -175t93 -125v-54h-230v68h131v3q-52 50 -86 125.5t-34 165.5q0 143 79.5 232.5t201.5 89.5t195.5 -88.5t73.5 -225.5q0 -95 -34.5 -172
t-85.5 -127z" />
    <glyph glyph-name="Iotadieresis" unicode="&#x3aa;" horiz-adv-x="227" 
d="M26 711h-1q-20 0 -33.5 14.5t-13.5 34.5t14 34t34 14q19 0 32.5 -14t13.5 -34q0 -21 -13 -35t-33 -14zM201 711h-1q-19 0 -33 14.5t-14 34.5t14.5 34t34.5 14q19 0 32.5 -14t13.5 -34q0 -21 -13 -35t-34 -14zM71 674h84v-674h-84v674z" />
    <glyph glyph-name="Upsilondieresis" unicode="&#x3ab;" horiz-adv-x="539" 
d="M187 697h-1q-20 0 -33.5 14.5t-13.5 34.5t14 34t34 14q19 0 32.5 -14t13.5 -34q0 -21 -13 -35t-33 -14zM361 697h-1q-19 0 -32.5 14.5t-13.5 34.5t14 34t34 14q19 0 32.5 -14t13.5 -34q0 -21 -13 -35t-34 -14zM9 611l15 69q30 -2 70 -23t69 -53q89 -94 106 -259h4
q21 150 115 252q30 33 67 55.5t65 27.5l15 -70q-62 -26 -122.5 -105t-88.5 -199q-16 -68 -16 -131v-175h-84v175q0 71 -12 130q-25 130 -80.5 208.5t-122.5 97.5z" />
    <glyph glyph-name="alphatonos" unicode="&#x3ac;" horiz-adv-x="505" 
d="M262 683h83l-76 -141h-54zM378 484h69q-12 -106 -12 -356q0 -73 43 -74l-7 -61q-11 -3 -27 -3q-70 0 -77 95h-3q-21 -42 -59 -68.5t-88 -26.5q-80 0 -130.5 66t-50.5 176q0 117 59 189.5t139 72.5q94 0 132 -89h4q2 36 8 79zM121 234v-1q0 -72 31.5 -123.5t84.5 -51.5
q39 0 70.5 34.5t42.5 83.5q5 24 5 72q0 40 -3 59q-7 50 -37 85t-71 35q-55 0 -89 -55t-34 -138z" />
    <glyph glyph-name="epsilontonos" unicode="&#x3ad;" horiz-adv-x="405" 
d="M235 683h83l-75 -141h-55zM151 258v4q-44 10 -67 37.5t-23 65.5q0 53 47.5 91t132.5 38q83 0 129 -32l-17 -58q-39 27 -106 27q-47 0 -74.5 -20t-27.5 -52q0 -36 35.5 -53.5t91.5 -17.5h45v-60h-48q-65 0 -104.5 -21t-39.5 -64q0 -40 34.5 -63.5t85.5 -23.5q74 0 127 31
l14 -59q-59 -38 -158 -38q-79 0 -135 36t-56 110q0 46 32.5 80t81.5 42z" />
    <glyph glyph-name="etatonos" unicode="&#x3ae;" horiz-adv-x="510" 
d="M273 683h82l-75 -141h-54zM143 411h2q19 35 57 59t88 24q61 0 107.5 -46t46.5 -148v-324q0 -130 10 -172h-80q-14 39 -14 165v320q0 135 -98 135q-37 0 -65.5 -24.5t-39.5 -62.5q-5 -18 -5 -41v-296h-84v355q0 86 -14 129h75q12 -26 14 -73z" />
    <glyph glyph-name="iotatonos" unicode="&#x3af;" horiz-adv-x="222" 
d="M123 684h83l-75 -141h-55zM152 484v-372q0 -32 9 -44.5t35 -11.5l-6 -61q-11 -5 -36 -5q-40 0 -63 25t-23 90v379h84z" />
    <glyph glyph-name="upsilondieresistonos" unicode="&#x3b0;" horiz-adv-x="480" 
d="M323 484h79q35 -70 35 -190q0 -47 -5.5 -88t-20 -81.5t-36.5 -69.5t-58 -47t-83 -18q-77 0 -124.5 46.5t-47.5 134.5v150q0 132 -10 163h81q13 -17 13 -93v-209q0 -61 28 -91.5t67 -30.5q56 0 84.5 59t28.5 164q0 63 -10 119.5t-21 81.5zM219 691h72l-45 -153h-45z
M124 560h-1q-19 0 -31.5 13t-12.5 33q0 19 13 31.5t33 12.5q17 0 29.5 -13t12.5 -32t-12 -32t-31 -13zM353 560h-1q-18 0 -30.5 13.5t-12.5 32.5t13 31.5t31 12.5q19 0 31.5 -13t12.5 -32t-12.5 -32t-31.5 -13z" />
    <glyph glyph-name="alpha" unicode="&#x3b1;" horiz-adv-x="505" 
d="M378 484h69q-12 -106 -12 -356q0 -73 43 -74l-7 -61q-11 -3 -27 -3q-70 0 -77 95h-3q-21 -42 -59 -68.5t-88 -26.5q-80 0 -130.5 66t-50.5 176q0 117 59 189.5t139 72.5q94 0 132 -89h4q2 36 8 79zM121 234v-1q0 -72 31.5 -123.5t84.5 -51.5q39 0 70.5 34.5t42.5 83.5
q5 24 5 72q0 40 -3 59q-7 50 -37 85t-71 35q-55 0 -89 -55t-34 -138z" />
    <glyph glyph-name="beta" unicode="&#x3b2;" horiz-adv-x="513" 
d="M150 44h-2v-67q0 -125 11 -173h-79q-15 40 -15 161v477q0 153 68 223q50 50 130 50q71 0 116.5 -49t45.5 -123q0 -56 -25 -97t-61 -58v-5q57 -13 97 -61t40 -128q0 -94 -56 -149t-135 -55q-84 0 -135 54zM148 454v-327q18 -30 50.5 -50t71.5 -20q54 0 88 39t34 98
q0 68 -39 107t-102 41q-8 1 -23 1v60q11 0 17 1q48 5 74.5 40.5t26.5 87.5q0 49 -25 82t-65 33q-108 0 -108 -193z" />
    <glyph glyph-name="gamma" unicode="&#x3b3;" horiz-adv-x="427" 
d="M248 -196h-83q7 187 -19 298q-24 106 -68 210.5t-84 171.5h94q33 -58 72.5 -165t58.5 -210h4q101 212 100 340v35h79q2 -16 2 -33q0 -164 -153 -421q-6 -11 -6 -24q3 -59 3 -202z" />
    <glyph glyph-name="delta" unicode="&#x3b4;" horiz-adv-x="499" 
d="M427 669l-24 -56q-54 38 -120 38q-35 0 -54 -12.5t-19 -31.5q0 -17 14 -34t50 -48l75 -68q113 -98 113 -223q0 -110 -61 -177t-152 -67q-90 0 -151.5 64.5t-61.5 174.5q0 86 47.5 149.5t119.5 101.5v5l-19 17q-59 59 -59 104q0 43 41 76t115 33q90 0 146 -46zM296 399
l-45 39q-129 -74 -129 -209q0 -80 39.5 -127.5t91.5 -47.5q54 0 89.5 47.5t35.5 125.5q0 101 -82 172z" />
    <glyph glyph-name="epsilon" unicode="&#x3b5;" horiz-adv-x="405" 
d="M151 259v4q-43 10 -66.5 37.5t-23.5 64.5q0 53 47.5 91t132.5 38t129 -32l-17 -58q-39 27 -106 27q-47 0 -74.5 -20t-27.5 -52q0 -36 35.5 -53.5t91.5 -17.5h45v-60h-48q-65 0 -104.5 -21t-39.5 -64q0 -40 34.5 -63.5t85.5 -23.5q74 0 127 31l14 -59q-59 -38 -158 -38
q-79 0 -135 36t-56 110q0 46 32.5 80.5t81.5 42.5z" />
    <glyph glyph-name="zeta" unicode="&#x3b6;" horiz-adv-x="380" 
d="M314 -139l-57 17q12 19 22 53t12 54q-58 9 -108 28q-146 51 -146 215q0 107 62 218.5t166 188.5v3h-64q-74 0 -108 10l9 57q30 -3 115 -3h150l13 -59q-107 -58 -182 -173t-75 -225q0 -75 29.5 -114t85.5 -60q48 -18 126 -29q9 -2 9 -11q0 -41 -18.5 -92t-40.5 -78z" />
    <glyph glyph-name="eta" unicode="&#x3b7;" horiz-adv-x="510" 
d="M143 411h2q19 35 57 59t88 24q61 0 107.5 -46t46.5 -148v-324q0 -130 10 -172h-80q-14 39 -14 165v320q0 135 -98 135q-37 0 -65.5 -24.5t-39.5 -62.5q-5 -18 -5 -41v-296h-84v355q0 86 -14 129h75q12 -26 14 -73z" />
    <glyph glyph-name="theta" unicode="&#x3b8;" horiz-adv-x="489" 
d="M245 -10h-1q-98 0 -153 91t-55 277q0 166 57.5 261.5t154.5 95.5q99 0 151.5 -92.5t52.5 -264.5q0 -183 -53.5 -275.5t-153.5 -92.5zM119 395h250q0 114 -32.5 185.5t-93.5 71.5q-56 0 -90 -74t-34 -183zM369 331h-250q0 -131 35 -204.5t93 -73.5q60 0 91 74.5t31 203.5z
" />
    <glyph glyph-name="iota" unicode="&#x3b9;" horiz-adv-x="222" 
d="M152 484v-372q0 -32 9 -44.5t35 -11.5l-6 -61q-11 -5 -36 -5q-40 0 -63 25t-23 90v379h84z" />
    <glyph glyph-name="kappa" unicode="&#x3ba;" horiz-adv-x="456" 
d="M235 262v-3q31 -9 63 -45t73 -96l78 -118h-97l-68 105q-37 54 -66 82.5t-57 29.5h-9v-217h-84v376q0 80 -11 108h81q14 -17 14 -82v-134h4q44 46 109 122.5t81 93.5h97v-3q-35 -36 -108.5 -113.5t-99.5 -105.5z" />
    <glyph glyph-name="lambda" unicode="&#x3bb;" horiz-adv-x="431" 
d="M330 0l-86 271q-10 31 -30 108h-4q-5 -25 -28 -105l-89 -274h-86l158 449q5 13 5 23q0 12 -5 26q-24 72 -51.5 108.5t-65.5 36.5q-9 0 -15 -1l9 67q10 3 30 3q64 0 102 -53.5t77 -167.5l167 -491h-88z" />
    <glyph glyph-name="uni03BC" unicode="&#x3bc;" horiz-adv-x="507" 
d="M367 68h-3q-15 -29 -47.5 -52t-75.5 -23q-68 0 -95 48v-63q0 -126 10 -174h-75q-14 39 -14 168v512h84v-296q0 -57 23.5 -92.5t72.5 -35.5q38 0 65 23t37 53q7 21 7 45v303h84v-359q0 -37 9 -53t32 -17l-7 -61q-12 -4 -29 -4q-67 0 -78 78z" />
    <glyph glyph-name="nu" unicode="&#x3bd;" horiz-adv-x="428" 
d="M5 484h89l81 -272q7 -22 19 -64.5t17 -60.5h3q110 247 110 356v41h78q3 -14 3 -34q0 -88 -44.5 -199t-119.5 -251h-79z" />
    <glyph glyph-name="xi" unicode="&#x3be;" horiz-adv-x="401" 
d="M336 429v-63h-24q-90 -1 -139 -42.5t-49 -106.5q0 -110 140 -150q55 -15 121 -25q10 -2 10 -11q0 -38 -19 -90.5t-40 -79.5l-57 17q11 19 21 53t12 54q-44 8 -77.5 16.5t-73 26t-65 40t-42.5 59t-17 82.5q0 69 41.5 121t105.5 71v5q-50 18 -77 55t-27 86q0 70 52 119
t143 49q68 0 110 -25l-17 -59q-40 20 -88 20q-56 0 -86 -32t-30 -76q0 -51 37.5 -81t95.5 -33h39z" />
    <glyph glyph-name="omicron" unicode="&#x3bf;" horiz-adv-x="499" 
d="M247 -10h-1q-91 0 -150.5 66.5t-59.5 182.5q0 121 61.5 188t155.5 67t152 -67t58 -182q0 -127 -64.5 -191t-151.5 -64zM249 54h1q57 0 92 55.5t35 133.5q0 44 -11.5 84.5t-41.5 71.5t-74 31q-64 0 -96 -57t-32 -132q0 -77 34.5 -132t92.5 -55z" />
    <glyph glyph-name="pi" unicode="&#x3c0;" horiz-adv-x="508" 
d="M478 417h-61v-281q0 -95 12 -136h-81q-15 28 -15 129v288h-140q-2 -102 -20 -229t-42 -188h-80q25 71 42 193.5t19 223.5q-53 0 -87 -8l-12 51q33 24 132 24h342z" />
    <glyph glyph-name="rho" unicode="&#x3c1;" horiz-adv-x="513" 
d="M148 54h-2v-78q0 -128 7 -172h-80q-11 38 -11 165v246q0 143 65 214q58 65 147 65q93 0 147.5 -67t54.5 -179q0 -123 -58.5 -190.5t-142.5 -67.5q-86 0 -127 64zM146 241v-57q0 -21 4 -36q11 -42 42 -66t70 -24q61 0 95 53.5t34 134.5q0 76 -32.5 126.5t-90.5 50.5
q-50 0 -86 -46t-36 -136z" />
    <glyph glyph-name="uni03C2" unicode="&#x3c2;" horiz-adv-x="384" 
d="M374 475l-19 -63q-35 15 -76 15q-71 0 -114 -54.5t-43 -130.5q0 -130 122 -172q46 -15 116 -28q9 -2 9 -13q0 -40 -18.5 -91.5t-39.5 -77.5l-57 17q12 20 22 54t12 53q-53 10 -90 23q-73 24 -117.5 81t-44.5 146q0 106 66.5 183t177.5 77q58 0 94 -19z" />
    <glyph glyph-name="sigma" unicode="&#x3c3;" horiz-adv-x="503" 
d="M374 434l-1 -4q39 -30 60.5 -80.5t21.5 -105.5q0 -125 -63 -189.5t-147 -64.5q-91 0 -150 66t-59 182q0 122 62 189t161 67h77h49h106l-4 -64q-53 0 -113 4zM247 54h1q55 0 89 56t34 134q0 44 -11.5 84t-40.5 71t-71 31q-63 0 -94.5 -57t-31.5 -132q0 -77 34.5 -132
t90.5 -55z" />
    <glyph glyph-name="tau" unicode="&#x3c4;" horiz-adv-x="380" 
d="M297 58l-4 -61q-16 -7 -44 -7q-56 0 -81 36.5t-25 109.5v281h-50q-53 0 -85 -9l-12 51q29 25 118 25h259l-10 -67h-136v-281q0 -79 50 -79q15 0 20 1z" />
    <glyph glyph-name="upsilon" unicode="&#x3c5;" horiz-adv-x="480" 
d="M323 484h79q35 -70 35 -190q0 -47 -5.5 -88t-20 -81.5t-36.5 -69.5t-58 -47t-83 -18q-77 0 -124.5 46.5t-47.5 134.5v150q0 132 -10 163h81q13 -17 13 -93v-209q0 -61 28 -91.5t67 -30.5q56 0 84.5 59t28.5 164q0 63 -10 119.5t-21 81.5z" />
    <glyph glyph-name="phi" unicode="&#x3c6;" horiz-adv-x="597" 
d="M186 495l36 -46q-102 -75 -102 -202q0 -75 36.5 -127.5t104.5 -64.5v296q0 71 33 106t82 34q72 -1 128 -66.5t56 -170.5q0 -117 -64.5 -184t-156.5 -77v-189h-78v189q-42 4 -80 19.5t-71.5 44t-53.5 77.5t-20 111q0 92 46.5 157t103.5 93zM339 364v-310q65 10 102 63.5
t37 134.5q0 73 -32 124.5t-69 51.5q-38 0 -38 -64z" />
    <glyph glyph-name="chi" unicode="&#x3c7;" horiz-adv-x="422" 
d="M16 484h89l112 -260h3q26 66 44 105l66 155h82l-155 -327l159 -346l-79 -21l-130 295l-3 -1q-19 -55 -42 -108l-80 -186l-73 21l158 346z" />
    <glyph glyph-name="psi" unicode="&#x3c8;" horiz-adv-x="604" 
d="M270 -196v186q-45 4 -79.5 16.5t-65.5 38.5t-47.5 74t-16.5 115v137q0 84 -7 113h76q12 -18 12 -93v-147q0 -181 128 -192v551h78v-551q61 4 97 69t36 168q0 66 -10.5 120.5t-20.5 74.5h76q36 -64 36 -187q0 -82 -19.5 -146.5t-69.5 -110t-125 -50.5v-186h-78z" />
    <glyph glyph-name="omega" unicode="&#x3c9;" horiz-adv-x="642" 
d="M360 354l-1 -190q-1 -42 20 -72.5t53 -30.5q38 0 64.5 50t26.5 141q0 72 -21.5 135t-54.5 99v2h79q33 -29 56.5 -93t23.5 -144q0 -124 -49.5 -192.5t-120.5 -68.5q-40 0 -70 22t-45 59h-3q-34 -81 -119 -81q-66 0 -114.5 63.5t-48.5 188.5q0 80 24 146.5t57 99.5h78v-2
q-34 -38 -55 -101.5t-21 -139.5q0 -91 27.5 -137.5t64.5 -46.5q31 0 51.5 30.5t19.5 71.5l-1 191h79z" />
    <glyph glyph-name="iotadieresis" unicode="&#x3ca;" horiz-adv-x="222" 
d="M24 557h-1q-20 0 -33.5 14.5t-13.5 34.5t14 34.5t35 14.5q20 0 33.5 -14t13.5 -35t-13.5 -35t-34.5 -14zM200 557h-1q-20 0 -33.5 14.5t-13.5 34.5t14 34.5t34 14.5t33.5 -14t13.5 -35t-13 -35t-34 -14zM152 484v-372q0 -32 9 -44.5t35 -11.5l-6 -61q-11 -5 -36 -5
q-40 0 -63 25t-23 90v379h84z" />
    <glyph glyph-name="upsilondieresis" unicode="&#x3cb;" horiz-adv-x="480" 
d="M146 557h-1q-19 0 -32.5 14.5t-13.5 34.5t14 34.5t34 14.5t33 -14t13 -35t-13 -35t-34 -14zM322 557h-1q-20 0 -33.5 14.5t-13.5 34.5t14 34.5t34 14.5t33.5 -14t13.5 -35t-13 -35t-34 -14zM323 484h79q35 -70 35 -190q0 -47 -5.5 -88t-20 -81.5t-36.5 -69.5t-58 -47
t-83 -18q-77 0 -124.5 46.5t-47.5 134.5v150q0 132 -10 163h81q13 -17 13 -93v-209q0 -61 28 -91.5t67 -30.5q56 0 84.5 59t28.5 164q0 63 -10 119.5t-21 81.5z" />
    <glyph glyph-name="omicrontonos" unicode="&#x3cc;" horiz-adv-x="499" 
d="M261 683h82l-75 -141h-55zM247 -10h-1q-91 0 -150.5 66.5t-59.5 182.5q0 121 61.5 188t155.5 67t152 -67t58 -182q0 -127 -64.5 -191t-151.5 -64zM249 54h1q57 0 92 55.5t35 133.5q0 44 -11.5 84.5t-41.5 71.5t-74 31q-64 0 -96 -57t-32 -132q0 -77 34.5 -132t92.5 -55z
" />
    <glyph glyph-name="upsilontonos" unicode="&#x3cd;" horiz-adv-x="480" 
d="M247 684h83l-74 -141h-56zM323 484h79q35 -70 35 -190q0 -47 -5.5 -88t-20 -81.5t-36.5 -69.5t-58 -47t-83 -18q-77 0 -124.5 46.5t-47.5 134.5v150q0 132 -10 163h81q13 -17 13 -93v-209q0 -61 28 -91.5t67 -30.5q56 0 84.5 59t28.5 164q0 63 -10 119.5t-21 81.5z" />
    <glyph glyph-name="omegatonos" unicode="&#x3ce;" horiz-adv-x="642" 
d="M333 683h82l-75 -141h-54zM360 354l-1 -190q-1 -42 20 -72.5t53 -30.5q38 0 64.5 50t26.5 141q0 72 -21.5 135t-54.5 99v2h79q33 -29 56.5 -93t23.5 -144q0 -124 -49.5 -192.5t-120.5 -68.5q-40 0 -70 22t-45 59h-3q-15 -37 -46 -59t-72 -22q-66 0 -114.5 63.5
t-48.5 188.5q0 80 24 146.5t57 99.5h78v-2q-34 -38 -55 -101.5t-21 -139.5q0 -91 27.5 -137.5t63.5 -46.5q31 0 51.5 30.5t19.5 71.5l-1 191h79z" />
    <glyph glyph-name="afii10023" unicode="&#x401;" horiz-adv-x="450" 
d="M388 387v-70h-233v-246h262v-71h-346v674h332v-71h-248v-216h233zM147 722h-1q-20 0 -33 14t-13 35t14 35.5t34 14.5t33 -14.5t13 -35.5t-13 -35t-34 -14zM325 722h-1q-20 0 -33 14t-13 35t13.5 35.5t33.5 14.5q21 0 34 -14.5t13 -35.5t-13 -35t-34 -14z" />
    <glyph glyph-name="afii10051" unicode="&#x402;" horiz-adv-x="611" 
d="M4 674h470v-72h-219v-193h2q58 36 120 36q97 0 153 -86q46 -72 46 -185q0 -151 -83 -231q-52 -64 -131 -79l-17 67q64 19 100 69q43 59 43 170q0 94 -32 145q-37 59 -103 59q-51 0 -98 -33v-341h-84v602h-167v72z" />
    <glyph glyph-name="afii10052" unicode="&#x403;" horiz-adv-x="405" 
d="M71 674h330v-71h-246v-603h-84v674zM265 824h102l-126 -114h-69z" />
    <glyph glyph-name="afii10053" unicode="&#x404;" horiz-adv-x="519" 
d="M487 656l-20 -68q-50 24 -111 24q-102 0 -163 -68.5t-69 -164.5h304v-69h-303q3 -101 64 -174t164 -73q69 0 122 24l15 -66q-58 -30 -150 -30q-137 0 -221 94.5t-84 251.5q0 91 35 168.5t109 127.5t173 50q73 0 135 -27z" />
    <glyph glyph-name="afii10054" unicode="&#x405;" horiz-adv-x="453" 
d="M38 30l21 71q60 -39 138 -39q62 0 97.5 31.5t35.5 83.5q0 45 -27.5 76t-88.5 59q-163 66 -163 190q0 79 57 130t149 51q82 0 132 -30l-22 -70q-48 29 -113 29q-59 0 -89 -30t-30 -69q0 -46 28 -74t96 -58q80 -38 117.5 -84.5t37.5 -113.5q0 -84 -58.5 -138t-163.5 -54
q-43 0 -86.5 11.5t-67.5 27.5z" />
    <glyph glyph-name="afii10055" unicode="&#x406;" horiz-adv-x="227" 
d="M71 674h84v-674h-84v674z" />
    <glyph glyph-name="afii10056" unicode="&#x407;" horiz-adv-x="227" 
d="M71 674h84v-674h-84v674zM25 722h-1q-20 0 -33 14.5t-13 35.5q0 20 14 34.5t34 14.5t33 -14t13 -35q0 -22 -13 -36t-34 -14zM203 722h-1q-20 0 -33 14.5t-13 35.5q0 20 13.5 34.5t33.5 14.5q21 0 34 -14t13 -35q0 -22 -13 -36t-34 -14z" />
    <glyph glyph-name="afii10057" unicode="&#x408;" horiz-adv-x="338" 
d="M190 218v456h84v-461q0 -121 -50 -172t-140 -51q-45 0 -80 13l11 69q27 -10 63 -10q57 0 84.5 33.5t27.5 122.5z" />
    <glyph glyph-name="afii10058" unicode="&#x409;" horiz-adv-x="807" 
d="M111 674h346v-258q38 4 73 4q105 0 173 -53t68 -154q0 -89 -54 -145q-70 -73 -219 -73q-78 0 -125 7v601h-181v-212q0 -146 -18 -237.5t-78 -133.5q-41 -28 -89 -28l-13 68q37 8 61 32q33 32 44.5 105t11.5 186v291zM457 349v-284q24 -4 61 -4q73 0 119.5 39.5
t46.5 110.5q0 70 -47 106t-120 36q-35 0 -60 -4z" />
    <glyph glyph-name="afii10059" unicode="&#x40a;" horiz-adv-x="829" 
d="M71 674h84v-272h239v272h84v-265q40 4 80 4q102 0 168 -51.5t66 -148.5q0 -90 -54 -146q-71 -72 -218 -72q-63 0 -126 7v328h-239v-330h-84v674zM478 342v-277q24 -4 61 -4q73 0 119.5 39t46.5 109q0 68 -46 102.5t-117 34.5q-40 0 -64 -4z" />
    <glyph glyph-name="afii10060" unicode="&#x40b;" horiz-adv-x="623" 
d="M4 674h459v-72h-210v-197h2q68 44 138 44q74 0 116 -45q48 -52 48 -149v-255h-84v244q0 71 -29 104q-28 31 -77 31q-62 0 -114 -39v-340h-84v602h-165v72z" />
    <glyph glyph-name="afii10061" unicode="&#x40c;" horiz-adv-x="496" 
d="M71 674h83v-302h23l205 302h98l-228 -312q71 -11 108 -53.5t62 -118.5q6 -17 19.5 -61t23.5 -73t22 -56h-88q-14 29 -55 162q-23 73 -59 110t-108 37h-23v-309h-83v674zM297 819h102l-127 -114h-68z" />
    <glyph glyph-name="afii10062" unicode="&#x40e;" horiz-adv-x="475" 
d="M3 674h94l118 -285q31 -85 43 -119h3q24 81 36 121l92 283h88l-123 -334q-75 -202 -117 -265q-62 -87 -145 -87q-29 0 -45 6l7 68q11 -3 29 -3q77 0 124 119q8 18 -2 40zM115 809h64q8 -60 60 -60q51 0 59 60h64q-9 -104 -125 -104q-113 0 -122 104z" />
    <glyph glyph-name="afii10145" unicode="&#x40f;" horiz-adv-x="582" 
d="M71 674h84v-603h273v603h84v-674h-180l-6 -165h-70l-6 165h-179v674z" />
    <glyph glyph-name="afii10017" unicode="&#x410;" horiz-adv-x="559" 
d="M384 209h-212l-62 -209h-86l207 674h99l206 -674h-88zM188 275h181l-58 187q-14 50 -32 132h-3q-18 -84 -31 -131z" />
    <glyph glyph-name="afii10018" unicode="&#x411;" horiz-adv-x="508" 
d="M71 674h350v-71h-266v-188q33 5 73 5q100 0 165 -47q78 -56 78 -160q0 -89 -54 -145q-70 -73 -221 -73q-62 0 -125 7v672zM155 349v-284q24 -4 63 -4q85 0 130 50q35 40 35 99q0 69 -49 107q-47 36 -119 36q-33 0 -60 -4z" />
    <glyph glyph-name="afii10019" unicode="&#x412;" horiz-adv-x="504" 
d="M71 2v663q65 14 145 14q118 0 174 -48q53 -43 53 -119q0 -50 -29.5 -89.5t-81.5 -58.5v-3q57 -14 96 -57.5t39 -111.5q0 -82 -55 -134q-63 -63 -216 -63q-62 0 -125 7zM155 608v-220h66q62 0 99.5 32.5t37.5 83.5q0 54 -35.5 82t-100.5 28q-41 0 -67 -6zM155 325v-260
q20 -4 63 -4q71 0 116 32.5t45 99.5q0 65 -46 98.5t-117 33.5h-61z" />
    <glyph glyph-name="afii10020" unicode="&#x413;" horiz-adv-x="405" 
d="M71 674h330v-71h-246v-603h-84v674z" />
    <glyph glyph-name="afii10021" unicode="&#x414;" horiz-adv-x="583" 
d="M151 674h345v-605l56 -1l-6 -224h-67l-5 156h-386l-6 -156h-65l-5 224l48 1q44 88 63 158q28 108 28 281v166zM229 603v-119q0 -165 -29 -273q-15 -59 -53 -141h265v533h-183z" />
    <glyph glyph-name="afii10022" unicode="&#x415;" horiz-adv-x="450" 
d="M388 387v-70h-233v-246h262v-71h-346v674h332v-71h-248v-216h233z" />
    <glyph glyph-name="afii10024" unicode="&#x416;" horiz-adv-x="737" 
d="M19 674h96l190 -301h23v301h81v-301h23l190 301h96l-219 -311q69 -8 106 -52t62 -123q7 -21 18 -60t20.5 -70t21.5 -58h-85q-9 19 -18 47t-18.5 63t-14.5 50q-24 76 -56.5 113t-101.5 37h-24v-310h-81v310h-24q-70 0 -103 -37t-57 -113q-1 -2 -19 -68t-31 -92h-84
q12 27 21.5 57t21.5 72t17 58q25 79 61.5 123t105.5 53z" />
    <glyph glyph-name="afii10025" unicode="&#x417;" horiz-adv-x="459" 
d="M66 573l-22 62q72 49 166 49q86 0 137 -44.5t51 -119.5q0 -58 -37.5 -103t-95.5 -60v-2q70 -8 113.5 -54t43.5 -116q0 -95 -66.5 -145t-165.5 -50q-96 0 -163 41l22 67q65 -38 138 -38q70 0 108.5 35t38.5 93q0 67 -50.5 99t-123.5 32h-34v65h32q63 0 108 36t45 88
q0 50 -31.5 78t-85.5 28q-62 0 -128 -41z" />
    <glyph glyph-name="afii10026" unicode="&#x418;" horiz-adv-x="600" 
d="M71 674h78v-271q0 -165 -8 -292l2 -1q44 100 114 226l189 338h82v-674h-78v271q0 189 8 287l-3 1q-35 -90 -112 -227l-185 -332h-87v674z" />
    <glyph glyph-name="afii10027" unicode="&#x419;" horiz-adv-x="600" 
d="M71 674h78v-271q0 -165 -8 -292l2 -1q44 100 114 226l189 338h82v-674h-78v271q0 189 8 287l-3 1q-35 -90 -112 -227l-185 -332h-87v674zM176 809h64q8 -60 60 -60t59 60h64q-9 -104 -125 -104q-114 0 -122 104z" />
    <glyph glyph-name="afii10028" unicode="&#x41a;" horiz-adv-x="496" 
d="M71 674h83v-302h23l205 302h98l-228 -312q71 -11 108 -53.5t62 -118.5q6 -17 19.5 -61t23.5 -73t22 -56h-88q-14 29 -55 162q-23 73 -59 110t-108 37h-23v-309h-83v674z" />
    <glyph glyph-name="afii10029" unicode="&#x41b;" horiz-adv-x="546" 
d="M110 674h364v-674h-84v603h-199v-212q0 -70 -2.5 -117t-11.5 -101.5t-29 -92.5t-52 -60q-43 -28 -91 -28l-12 68q35 6 60 31q34 32 45.5 105.5t11.5 186.5v291z" />
    <glyph glyph-name="afii10030" unicode="&#x41c;" horiz-adv-x="742" 
d="M607 0l-15 294q-11 202 -10 283h-3q-33 -122 -75 -250l-109 -323h-60l-101 315q-47 150 -70 258h-3q-4 -150 -12 -290l-16 -287h-79l45 674h103l104 -321q44 -142 64 -229h2q20 86 65 229l107 321h104l41 -674h-82z" />
    <glyph glyph-name="afii10031" unicode="&#x41d;" horiz-adv-x="596" 
d="M71 674h84v-284h285v284h84v-674h-84v316h-285v-316h-84v674z" />
    <glyph glyph-name="afii10032" unicode="&#x41e;" horiz-adv-x="616" 
d="M304 -10h-1q-120 0 -194 93.5t-74 249.5q0 160 77.5 255.5t200.5 95.5q122 0 194.5 -93.5t72.5 -247.5q0 -170 -78 -261.5t-198 -91.5zM307 60h1q88 0 136 81t48 199q0 110 -47.5 192t-136.5 82q-90 0 -137.5 -82t-47.5 -197q0 -112 48.5 -193.5t135.5 -81.5z" />
    <glyph glyph-name="afii10033" unicode="&#x41f;" horiz-adv-x="585" 
d="M71 674h443v-674h-84v603h-275v-603h-84v674z" />
    <glyph glyph-name="afii10034" unicode="&#x420;" horiz-adv-x="492" 
d="M71 0v666q72 13 151 13q118 0 177 -54q56 -51 56 -141t-49 -142q-64 -75 -192 -75q-38 0 -59 5v-272h-84zM155 606v-265q19 -6 60 -6q73 0 114.5 37.5t41.5 106.5q0 63 -38 98t-108 35q-42 0 -70 -6z" />
    <glyph glyph-name="afii10035" unicode="&#x421;" horiz-adv-x="518" 
d="M472 87l16 -68q-52 -28 -153 -28q-134 0 -217 88.5t-83 250.5q0 166 89.5 259.5t227.5 93.5q90 0 137 -26l-20 -69q-48 24 -115 24q-103 0 -167 -71.5t-64 -205.5q0 -131 61 -201.5t167 -70.5q71 0 121 24z" />
    <glyph glyph-name="afii10036" unicode="&#x422;" horiz-adv-x="454" 
d="M185 0v602h-181v72h446v-72h-181v-602h-84z" />
    <glyph glyph-name="afii10037" unicode="&#x423;" horiz-adv-x="475" 
d="M3 674h94l118 -285q31 -85 43 -119h3q24 81 36 121l92 283h88l-123 -334q-75 -202 -117 -265q-62 -87 -145 -87q-29 0 -45 6l7 68q11 -3 29 -3q77 0 124 119q8 18 -2 40z" />
    <glyph glyph-name="afii10038" unicode="&#x424;" horiz-adv-x="660" 
d="M291 698h80v-58q108 -6 181 -81t73 -221q0 -78 -21.5 -137t-59 -92.5t-81 -51t-94.5 -21.5v-61h-80v61q-51 4 -94 21t-80 50t-58.5 91t-21.5 136t23 138t61.5 94.5t81.5 52.5t90 21v58zM290 97v482q-69 -5 -119 -63.5t-50 -179.5q0 -113 48 -172t121 -67zM370 579v-482
q73 7 121 65.5t48 175.5q0 120 -49 178t-120 63z" />
    <glyph glyph-name="afii10039" unicode="&#x425;" horiz-adv-x="517" 
d="M496 0h-95l-79 153q-32 56 -67 128h-2q-29 -65 -63 -129l-74 -152h-94l186 342l-179 332h94l81 -158q30 -56 56 -112h2q24 55 54 113l80 157h94l-183 -328z" />
    <glyph glyph-name="afii10040" unicode="&#x426;" horiz-adv-x="597" 
d="M71 674h84v-603h272v603h84v-605l55 -1l-6 -224h-66l-5 156h-418v674z" />
    <glyph glyph-name="afii10041" unicode="&#x427;" horiz-adv-x="549" 
d="M66 674h84v-220q0 -65 31.5 -100.5t95.5 -35.5q63 0 117 33v323h84v-679h-84v290h-3q-66 -36 -143 -36q-36 0 -66.5 9.5t-57.5 30t-42.5 59t-15.5 92.5v234z" />
    <glyph glyph-name="afii10042" unicode="&#x428;" horiz-adv-x="783" 
d="M71 674h83v-603h196v603h83v-603h196v603h83v-674h-641v674z" />
    <glyph glyph-name="afii10043" unicode="&#x429;" horiz-adv-x="798" 
d="M71 674h83v-603h196v603h83v-603h196v603h83v-605l55 -1l-6 -224h-66l-5 156h-619v674z" />
    <glyph glyph-name="afii10044" unicode="&#x42a;" horiz-adv-x="596" 
d="M2 674h248v-256q36 4 72 4q102 0 170 -54t68 -154q0 -88 -51 -144q-71 -75 -219 -75q-61 0 -124 7v601h-164v71zM250 350v-285q23 -4 60 -4q73 0 117.5 39.5t44.5 110.5q0 70 -46 106.5t-116 36.5q-35 0 -60 -4z" />
    <glyph glyph-name="afii10045" unicode="&#x42b;" horiz-adv-x="698" 
d="M71 674h84v-257q32 5 71 5q106 0 174 -53t68 -155q0 -87 -51 -143q-70 -76 -222 -76q-61 0 -124 7v672zM155 350v-285q23 -4 60 -4q72 0 118.5 39.5t46.5 110.5q0 70 -47.5 106.5t-117.5 36.5q-38 0 -60 -4zM540 674h84v-674h-84v674z" />
    <glyph glyph-name="afii10046" unicode="&#x42c;" horiz-adv-x="507" 
d="M71 674h84v-257q30 5 73 5q106 0 174.5 -53t68.5 -154q0 -88 -51 -144q-70 -76 -224 -76q-62 0 -125 7v672zM155 350v-285q24 -4 61 -4q73 0 120 39.5t47 110.5q0 70 -47 106.5t-120 36.5q-37 0 -61 -4z" />
    <glyph glyph-name="afii10047" unicode="&#x42d;" horiz-adv-x="514" 
d="M108 310v70h281q-7 97 -60 164.5t-147 67.5q-60 0 -123 -28l-21 65q73 34 149 34q144 0 217.5 -99t73.5 -247q0 -154 -83.5 -250t-215.5 -96q-84 0 -153 31l18 68q57 -27 125 -27q101 0 158.5 72.5t61.5 174.5h-281z" />
    <glyph glyph-name="afii10048" unicode="&#x42e;" horiz-adv-x="788" 
d="M71 674h84v-290h93q11 141 80 220.5t176 79.5q115 0 182 -93t67 -248q0 -172 -72.5 -262.5t-185.5 -90.5q-109 0 -177 85.5t-72 236.5h-91v-312h-84v674zM498 60h1q54 0 93 40t57 102t18 138q0 110 -43 192t-125 82q-83 0 -126.5 -82t-43.5 -197q0 -113 44.5 -194
t124.5 -81z" />
    <glyph glyph-name="afii10049" unicode="&#x42f;" horiz-adv-x="502" 
d="M103 0h-89q15 29 26 63q6 19 17 58t18.5 63.5t22 54t32.5 48.5q23 25 55 34v2q-61 13 -99.5 56.5t-38.5 109.5q0 91 63 141q60 49 175 49q82 0 146 -14v-665h-84v292h-54q-61 0 -90 -32q-20 -21 -34 -55t-27.5 -86.5t-18.5 -66.5q-12 -36 -20 -52zM347 357v249
q-30 7 -70 7q-66 0 -106 -32t-40 -95q0 -60 44 -95t112 -35q45 0 60 1z" />
    <glyph glyph-name="afii10065" unicode="&#x430;" horiz-adv-x="447" 
d="M382 303v-189q0 -76 7 -114h-76l-7 58h-3q-46 -68 -133 -68q-63 0 -100 40.5t-37 98.5q0 87 70 133t195 45v12q0 21 -3.5 38t-13.5 35t-31 28t-52 10q-65 0 -112 -33l-19 58q60 39 145 39q170 0 170 -191zM300 160v88q-183 2 -183 -110q0 -42 21.5 -63t53.5 -21
q40 0 67.5 22t36.5 56q4 12 4 28z" />
    <glyph glyph-name="afii10066" unicode="&#x431;" horiz-adv-x="486" 
d="M407 714l-4 -71q-19 -7 -97 -22q-106 -18 -151 -87q-36 -58 -46 -150h3q20 46 61.5 73t89.5 27q83 0 134.5 -62t51.5 -177q0 -122 -53.5 -189t-149.5 -67q-57 0 -99 27.5t-64.5 74.5t-33 100t-10.5 114q0 173 66 271q58 88 187 112q91 17 115 26zM364 238v1q0 43 -9.5 81
t-38 69t-71.5 31q-66 0 -97 -63q-22 -41 -22 -103q0 -42 10.5 -85t39.5 -79.5t71 -36.5t69.5 30t37.5 69.5t10 85.5z" />
    <glyph glyph-name="afii10067" unicode="&#x432;" horiz-adv-x="468" 
d="M66 0v479q62 11 140 11q205 0 205 -121q0 -43 -28 -72.5t-72 -38.5v-2q55 -9 88 -39.5t33 -80.5q0 -43 -23.5 -73t-63 -44t-76.5 -19.5t-78 -5.5q-53 0 -125 6zM148 426v-146h56q50 0 87 20t37 58q0 72 -121 72q-23 0 -59 -4zM147 223v-167q30 -3 61 -3q56 0 97 19t41 65
q0 86 -144 86h-55z" />
    <glyph glyph-name="afii10068" unicode="&#x433;" horiz-adv-x="357" 
d="M66 484h276v-69h-192v-415h-84v484z" />
    <glyph glyph-name="afii10069" unicode="&#x434;" horiz-adv-x="496" 
d="M119 484h300v-420l47 -1l-4 -209h-66l-4 146h-310l-4 -146h-66l-4 209l38 1q32 47 47 100q26 85 26 190v130zM194 419v-77q0 -105 -24 -184q-12 -46 -39 -93h205v354h-142z" />
    <glyph glyph-name="afii10070" unicode="&#x435;" horiz-adv-x="460" 
d="M422 229h-304q1 -90 43 -131t107 -41q68 0 118 23l14 -61q-58 -28 -144 -28q-103 0 -161.5 66t-58.5 178q0 113 57 186t152 73q50 0 87 -21t56 -55.5t28 -71t9 -75.5q0 -27 -3 -42zM119 290h225q1 58 -25 100t-82 42q-53 0 -83 -43t-35 -99z" />
    <glyph glyph-name="afii10072" unicode="&#x436;" horiz-adv-x="628" 
d="M14 484h95l148 -211h17v211h81v-211h17l147 211h96l-177 -220q95 -12 135 -130q35 -108 49 -134h-85q-11 20 -41 110q-19 58 -50 82t-78 24h-13v-216h-81v216h-13q-52 0 -80.5 -24t-50.5 -84q-28 -85 -41 -108h-82q9 18 49 132q21 60 53 93t82 39z" />
    <glyph glyph-name="afii10073" unicode="&#x437;" horiz-adv-x="403" 
d="M105 222l-1 59h38q50 0 83 22.5t33 57.5q0 33 -24.5 52t-64.5 19q-55 0 -107 -32l-20 53q63 41 148 41q64 0 110 -31.5t46 -93.5q0 -42 -30.5 -71.5t-74.5 -40.5v-2q55 -5 91 -37.5t36 -83.5q0 -72 -59 -108t-141 -36q-81 0 -144 36l22 58q57 -31 116 -31q52 0 83.5 23.5
t31.5 60.5q0 45 -37.5 65t-95.5 20h-39z" />
    <glyph glyph-name="afii10074" unicode="&#x438;" horiz-adv-x="510" 
d="M65 484h80v-193q0 -98 -6 -206h3q49 109 76 161l130 238h96v-484h-80v192q0 101 7 209h-3q-32 -74 -74 -156q-19 -33 -65 -118.5t-69 -126.5h-95v484z" />
    <glyph glyph-name="afii10075" unicode="&#x439;" horiz-adv-x="510" 
d="M65 484h81v-193q0 -98 -6 -206h2q67 144 76 161l130 238h96v-484h-80v192q0 101 7 209h-3q-32 -74 -74 -156q-19 -33 -65 -118.5t-69 -126.5h-95v484zM130 677h62q2 -34 18 -54t45 -20q56 0 65 74h60q-4 -60 -37.5 -90t-89.5 -30q-113 0 -123 120z" />
    <glyph glyph-name="afii10076" unicode="&#x43a;" horiz-adv-x="445" 
d="M67 484h84v-211h18l165 211h100l-193 -219q54 -7 89 -43t61 -101q32 -90 48 -121h-88q-13 25 -42 103q-22 58 -55 84.5t-89 26.5h-14v-214h-84v484z" />
    <glyph glyph-name="afii10077" unicode="&#x43b;" horiz-adv-x="470" 
d="M92 484h312v-484h-84v417h-148v-133q0 -113 -16 -176t-62 -90q-33 -25 -83 -25l-10 67q28 5 46 21q28 22 36.5 68.5t8.5 133.5v201z" />
    <glyph glyph-name="afii10078" unicode="&#x43c;" horiz-adv-x="609" 
d="M41 0l36 484h102l81 -234q4 -13 20.5 -64t23.5 -76h1q23 77 53 163l73 211h103l34 -484h-80l-11 224q-6 111 -8 183h-3q-19 -75 -52 -166l-84 -238h-61l-80 232q-30 98 -48 171h-4q-1 -73 -7 -184l-11 -222h-78z" />
    <glyph glyph-name="afii10079" unicode="&#x43d;" horiz-adv-x="503" 
d="M66 484h84v-198h204v198h84v-484h-84v217h-204v-217h-84v484z" />
    <glyph glyph-name="afii10080" unicode="&#x43e;" horiz-adv-x="499" 
d="M247 -10h-1q-91 0 -150.5 66.5t-59.5 182.5q0 121 61.5 188t155.5 67t152 -67t58 -182q0 -127 -64.5 -191t-151.5 -64zM249 54h1q57 0 92 55.5t35 133.5q0 44 -11.5 84.5t-41.5 71.5t-74 31q-64 0 -96 -57t-32 -132q0 -77 34.5 -132t92.5 -55z" />
    <glyph glyph-name="afii10081" unicode="&#x43f;" horiz-adv-x="499" 
d="M66 484h367v-484h-84v416h-199v-416h-84v484z" />
    <glyph glyph-name="afii10082" unicode="&#x440;" horiz-adv-x="518" 
d="M67 -196v524q0 72 -4 156h75l5 -76h2q51 86 151 86q82 0 134 -67.5t52 -178.5q0 -125 -58 -191.5t-141 -66.5q-90 0 -130 70h-2v-256h-84zM151 287v-96q0 -21 4 -37q11 -46 42.5 -71t70.5 -25q62 0 95.5 51.5t33.5 134.5q0 78 -33.5 129.5t-93.5 51.5q-39 0 -71.5 -29
t-42.5 -73q-5 -18 -5 -36z" />
    <glyph glyph-name="afii10083" unicode="&#x441;" horiz-adv-x="404" 
d="M366 80l13 -64q-48 -25 -121 -25q-100 0 -161 67t-61 180q0 111 66 183.5t174 72.5q66 0 106 -23l-19 -65q-40 20 -88 20q-72 0 -112.5 -53t-40.5 -132q0 -83 42 -132t110 -49q46 0 92 20z" />
    <glyph glyph-name="afii10084" unicode="&#x442;" horiz-adv-x="383" 
d="M10 484h362v-68h-139v-416h-84v416h-139v68z" />
    <glyph glyph-name="afii10085" unicode="&#x443;" horiz-adv-x="434" 
d="M10 484h91l94 -284q17 -56 27 -99h3q10 42 27 101l85 282h88l-116 -334q-43 -124 -77 -194.5t-75 -111.5q-50 -49 -102 -62l-24 71q41 17 75 48q41 41 64 94q7 17 7 22q0 6 -5 21z" />
    <glyph glyph-name="afii10086" unicode="&#x444;" horiz-adv-x="592" 
d="M257 702h78v-209q100 -9 160.5 -73.5t60.5 -176.5q0 -114 -61 -179t-160 -73v-187h-78l1 187q-100 7 -160.5 71.5t-60.5 176.5q0 115 61 179.5t160 73.5zM258 49v386q-66 -11 -102.5 -65.5t-36.5 -128.5t37 -128t102 -64zM335 435v-386q65 11 101.5 65.5t36.5 128.5
t-36 127t-102 65z" />
    <glyph glyph-name="afii10087" unicode="&#x445;" horiz-adv-x="426" 
d="M16 484h93l62 -103q28 -49 44 -81h2q24 46 44 81l60 103h91l-150 -235l153 -249h-95l-64 109q-12 20 -46 84h-2q-9 -20 -45 -84l-62 -109h-92l155 246z" />
    <glyph glyph-name="afii10088" unicode="&#x446;" horiz-adv-x="508" 
d="M66 484h84v-417h197v417h84v-420l47 -1l-4 -209h-66l-4 146h-338v484z" />
    <glyph glyph-name="afii10089" unicode="&#x447;" horiz-adv-x="478" 
d="M60 484h84v-169q0 -47 20.5 -72.5t70.5 -25.5q52 0 94 30v237h84v-489h-84v191h-2q-49 -33 -120 -33q-67 0 -107 38t-40 113v180z" />
    <glyph glyph-name="afii10090" unicode="&#x448;" horiz-adv-x="694" 
d="M65 484h84v-416h156v416h84v-416h155v416h84v-484h-563v484z" />
    <glyph glyph-name="afii10091" unicode="&#x449;" horiz-adv-x="705" 
d="M65 484h84v-417h156v417h84v-417h155v417h84v-420l47 -1l-4 -209h-66l-4 146h-536v484z" />
    <glyph glyph-name="afii10092" unicode="&#x44a;" horiz-adv-x="545" 
d="M14 484h219v-166q44 4 73 4q84 0 144.5 -39t60.5 -122q0 -71 -52 -113q-62 -53 -189 -53q-60 0 -121 7v415h-135v67zM233 256v-195q32 -4 57 -4q58 0 97 24.5t39 76.5q0 54 -40.5 78t-99.5 24q-19 0 -53 -4z" />
    <glyph glyph-name="afii10093" unicode="&#x44b;" horiz-adv-x="624" 
d="M65 484h84v-167q40 5 69 5q84 0 141.5 -40t57.5 -120q0 -72 -52 -114q-63 -53 -179 -53q-60 0 -121 7v482zM149 256v-195q21 -4 53 -4q54 0 92 25.5t38 76.5q0 52 -37 76.5t-91 24.5q-23 0 -55 -4zM475 484h83v-484h-83v484z" />
    <glyph glyph-name="afii10094" unicode="&#x44c;" horiz-adv-x="465" 
d="M65 484h84v-167q35 5 70 5q58 0 103.5 -14t77.5 -51.5t32 -95.5q0 -71 -52 -113q-63 -53 -194 -53q-60 0 -121 7v482zM149 256v-196q24 -3 56 -3q58 0 100 24.5t42 77.5q0 54 -42.5 77.5t-101.5 23.5q-20 0 -54 -4z" />
    <glyph glyph-name="afii10095" unicode="&#x44d;" horiz-adv-x="422" 
d="M80 217v59h219q-5 66 -42.5 109t-108.5 43q-49 0 -100 -23l-17 56q55 33 131 33q103 0 163 -69q60 -68 60 -184q0 -107 -63 -178.5t-174 -71.5q-73 0 -125 29l16 61q51 -23 105 -23q66 0 108 43.5t47 115.5h-219z" />
    <glyph glyph-name="afii10096" unicode="&#x44e;" horiz-adv-x="650" 
d="M65 484h83v-203h76q10 100 63.5 156.5t132.5 56.5q87 0 140.5 -66.5t53.5 -181.5q0 -120 -57.5 -188t-141.5 -68q-80 0 -132.5 60t-59.5 165h-75v-215h-83v484zM417 54h1q55 0 83.5 57.5t28.5 132.5q0 73 -28.5 129.5t-83.5 56.5t-84.5 -57t-29.5 -133q0 -75 29 -130.5
t84 -55.5z" />
    <glyph glyph-name="afii10097" unicode="&#x44f;" horiz-adv-x="461" 
d="M396 480v-480h-83v205h-52q-50 0 -78 -26q-12 -10 -22.5 -28t-15.5 -32.5t-13.5 -41.5t-12.5 -38q-7 -21 -18 -39h-90q15 22 27 53q5 12 13 37.5t14 42t18 36t26 32.5q23 23 56 29v3q-51 7 -86.5 37.5t-35.5 81.5q0 67 60 104q53 34 153 34q78 0 140 -10zM313 262v166
q-30 5 -61 5q-51 0 -86.5 -20t-35.5 -65q0 -42 38 -64.5t83 -22.5q16 0 36 0.5t26 0.5z" />
    <glyph glyph-name="afii10071" unicode="&#x451;" horiz-adv-x="460" 
d="M422 229h-304q1 -90 43 -131t107 -41q68 0 118 23l14 -61q-58 -28 -144 -28q-103 0 -161.5 66t-58.5 178q0 113 57 186t152 73q50 0 87 -21t56 -55.5t28 -71t9 -75.5q0 -27 -3 -42zM119 290h225q1 58 -25 100t-81 42q-53 0 -83.5 -43t-35.5 -99zM160 569h-1
q-21 0 -34.5 14t-13.5 35q0 20 14.5 34.5t34.5 14.5t33.5 -14t13.5 -35t-13 -35t-34 -14zM336 569h-2q-20 0 -33.5 14.5t-13.5 34.5t14 34.5t35 14.5q20 0 33.5 -14t13.5 -35t-13 -35t-34 -14z" />
    <glyph glyph-name="afii10099" unicode="&#x452;" horiz-adv-x="514" 
d="M9 621h73v84h84v-84h212v-60h-212v-137h2q55 66 134 66q84 0 127 -78q46 -72 46 -206q0 -199 -90 -286q-52 -50 -117 -58l-17 67q53 12 84 49q56 69 56 223q0 105 -33 166q-29 54 -83 54q-52 0 -91 -51q-18 -26 -18 -63v-307h-84v561h-73v60z" />
    <glyph glyph-name="afii10100" unicode="&#x453;" horiz-adv-x="357" 
d="M66 484h276v-69h-192v-415h-84v484zM236 690h91l-117 -141h-59z" />
    <glyph glyph-name="afii10101" unicode="&#x454;" horiz-adv-x="421" 
d="M397 465l-20 -60q-48 24 -96 24q-71 0 -111.5 -44.5t-46.5 -108.5h222v-59h-222q5 -73 47.5 -116.5t109.5 -43.5q54 0 100 22l17 -60q-52 -28 -130 -28q-108 0 -169.5 70.5t-61.5 177.5q0 112 67 183.5t179 71.5q68 0 115 -29z" />
    <glyph glyph-name="afii10102" unicode="&#x455;" horiz-adv-x="364" 
d="M34 23l21 64q49 -32 105 -32q42 0 64.5 19.5t22.5 52.5q0 30 -18.5 50t-63.5 40q-119 51 -119 138q0 60 43.5 99.5t113.5 39.5q62 0 109 -28l-21 -62q-41 26 -89 26q-35 0 -55 -18.5t-20 -46.5q0 -27 18 -44.5t64 -38.5q119 -51 119 -146q0 -67 -46 -106t-124 -39
q-73 0 -124 32z" />
    <glyph glyph-name="afii10103" unicode="&#x456;" horiz-adv-x="219" 
d="M152 0h-84v484h84v-484zM109 564h-1q-22 0 -36.5 15t-14.5 38t15 38.5t37 15.5q23 0 37.5 -15.5t14.5 -38.5t-14 -38t-38 -15z" />
    <glyph glyph-name="afii10104" unicode="&#x457;" horiz-adv-x="219" 
d="M152 0h-84v484h84v-484zM22 569h-1q-21 0 -34.5 14t-13.5 35q0 20 14.5 34.5t34.5 14.5t34 -14t14 -35t-13.5 -35t-34.5 -14zM199 569h-2q-20 0 -33.5 14.5t-13.5 34.5t14 34.5t35 14.5q20 0 33.5 -14t13.5 -35t-13 -35t-34 -14z" />
    <glyph glyph-name="afii10105" unicode="&#x458;" horiz-adv-x="227" 
d="M-31 -208l-9 67q61 7 86 37q17 21 24 58t7 116v414h84v-445q0 -137 -55 -195q-50 -50 -137 -52zM119 564h-1q-23 0 -37 15.5t-14 37.5q0 23 15 38.5t38 15.5t37 -15t14 -39q0 -22 -14.5 -37.5t-37.5 -15.5z" />
    <glyph glyph-name="afii10106" unicode="&#x459;" horiz-adv-x="719" 
d="M96 484h309v-166q42 4 70 4q89 0 150 -39t61 -122q0 -70 -50 -112q-63 -54 -194 -54q-60 0 -121 7v415h-146v-133q0 -111 -17.5 -174.5t-63.5 -91.5q-35 -25 -82 -25l-10 67q27 5 46 20q28 22 38 70t10 132v202zM405 256v-195q21 -4 56 -4q56 0 98 24.5t42 76.5
q0 38 -22.5 62t-51.5 32t-64 8q-22 0 -58 -4z" />
    <glyph glyph-name="afii10107" unicode="&#x45a;" horiz-adv-x="728" 
d="M66 484h84v-183h183v183h84v-171q35 5 72 5q84 0 144.5 -39t60.5 -120q0 -69 -50 -112q-62 -52 -190 -52q-60 0 -121 7v233h-183v-235h-84v484zM417 252v-192q48 -3 57 -3q55 0 95 24t40 76q0 53 -39.5 76t-96.5 23q-22 0 -56 -4z" />
    <glyph glyph-name="afii10108" unicode="&#x45b;" horiz-adv-x="524" 
d="M9 621h73v84h84v-84h195v-60h-195v-147h2q21 32 54 53q38 23 85 23q69 0 110.5 -50t41.5 -145v-295h-84v285q0 60 -23.5 97.5t-74.5 37.5q-39 0 -67 -24.5t-39 -60.5q-5 -18 -5 -44v-291h-84v561h-73v60z" />
    <glyph glyph-name="afii10109" unicode="&#x45c;" horiz-adv-x="445" 
d="M67 484h84v-211h18l165 211h100l-193 -219q54 -7 89 -43t61 -101q32 -90 48 -121h-88q-13 25 -42 103q-22 58 -55 84.5t-89 26.5h-14v-214h-84v484zM263 690h91l-117 -141h-59z" />
    <glyph glyph-name="afii10110" unicode="&#x45e;" horiz-adv-x="434" 
d="M10 484h91l93 -284q16 -49 28 -99h3q10 42 27 101l85 282h88l-117 -334q-42 -123 -76 -194t-76 -112q-49 -49 -101 -62l-24 71q41 17 75 48q41 41 64 94q6 15 6 22q0 10 -5 21zM92 677h61q2 -34 18.5 -54t44.5 -20q56 0 65 74h60q-4 -60 -37.5 -90t-89.5 -30
q-58 0 -88 32t-34 88z" />
    <glyph glyph-name="afii10193" unicode="&#x45f;" horiz-adv-x="497" 
d="M66 484h84v-416h197v416h84v-484h-143l-6 -149h-67l-6 149h-143v484z" />
    <glyph glyph-name="afii10050" unicode="&#x490;" horiz-adv-x="413" 
d="M71 674h264l15 119h62l-11 -190h-246v-603h-84v674z" />
    <glyph glyph-name="afii10098" unicode="&#x491;" horiz-adv-x="361" 
d="M66 484h209l12 105h60l-6 -173h-191v-416h-84v484z" />
    <glyph glyph-name="afii10846" unicode="&#x4d9;" horiz-adv-x="460" 
d="M73 404l-14 60q60 30 145 30q102 0 160.5 -66.5t58.5 -178.5q0 -114 -56.5 -186t-151.5 -72q-50 0 -87 21t-56.5 55.5t-28.5 71t-9 75.5q0 28 3 41h304q-1 91 -41.5 132t-107.5 41q-64 0 -119 -24zM340 194h-225q-1 -57 25.5 -99t81.5 -42q54 0 83.5 43t34.5 98z" />
    <glyph glyph-name="Wgrave" unicode="&#x1e80;" horiz-adv-x="788" 
d="M261 0h-86l-158 674h88l74 -336q26 -121 44 -236h3q8 55 50 237l82 335h83l76 -334q34 -151 45 -237h3q16 97 48 237l79 334h85l-173 -674h-86l-79 344q-31 132 -42 221h-2q-13 -94 -47 -222zM249 824h101l93 -114h-68z" />
    <glyph glyph-name="wgrave" unicode="&#x1e81;" horiz-adv-x="685" 
d="M16 484h87l59 -242q24 -102 33 -155h3q13 62 40 153l72 244h69l69 -239q30 -112 39 -158h3q9 53 34 157l62 240h84l-146 -484h-75l-68 232q-25 82 -38 156h-2q-12 -64 -40 -157l-71 -231h-76zM216 690h92l84 -141h-59z" />
    <glyph glyph-name="Wacute" unicode="&#x1e82;" horiz-adv-x="788" 
d="M261 0h-86l-158 674h88l74 -336q26 -121 44 -236h3q8 55 50 237l82 335h83l76 -334q34 -151 45 -237h3q16 97 48 237l79 334h85l-173 -674h-86l-79 344q-31 132 -42 221h-2q-13 -94 -47 -222zM448 824h102l-127 -114h-68z" />
    <glyph glyph-name="wacute" unicode="&#x1e83;" horiz-adv-x="685" 
d="M16 484h87l59 -242q24 -102 33 -155h3q13 62 40 153l72 244h69l69 -239q30 -112 39 -158h3q9 53 34 157l62 240h84l-146 -484h-75l-68 232q-25 82 -38 156h-2q-12 -64 -40 -157l-71 -231h-76zM386 690h91l-117 -141h-59z" />
    <glyph glyph-name="Wdieresis" unicode="&#x1e84;" horiz-adv-x="788" 
d="M260 0h-86l-158 674h88l74 -336q26 -121 44 -236h3q9 65 51 237l82 335h83l76 -334q34 -151 45 -237h2q11 68 48 237l79 334h86l-174 -674h-86l-78 344q-29 118 -42 221h-2q-15 -97 -48 -222zM308 722h-1q-20 0 -33 14.5t-13 35.5q0 20 14 34.5t34 14.5t33 -14t13 -35
q0 -22 -13 -36t-34 -14zM487 722h-1q-20 0 -33 14.5t-13 35.5q0 20 13.5 34.5t33.5 14.5q21 0 34 -14t13 -35q0 -22 -13 -36t-34 -14z" />
    <glyph glyph-name="wdieresis" unicode="&#x1e85;" horiz-adv-x="685" 
d="M16 484h87l59 -242q24 -102 33 -155h3q13 62 40 153l72 244h70l68 -239q24 -85 40 -158h2q10 61 35 157l62 240h83l-145 -484h-75l-69 232q-24 85 -38 156h-2q-15 -79 -40 -157l-71 -231h-76zM255 569h-1q-21 0 -34.5 14t-13.5 35q0 20 14.5 34.5t34.5 14.5t33.5 -14
t13.5 -35t-13 -35t-34 -14zM432 569h-2q-20 0 -33.5 14.5t-13.5 34.5t14 34.5t35 14.5q20 0 33.5 -14t13.5 -35t-13 -35t-34 -14z" />
    <glyph glyph-name="Ygrave" unicode="&#x1ef2;" horiz-adv-x="497" 
d="M290 0h-84v286l-194 388h94l84 -181q42 -91 62 -143h2q19 53 62 144l85 180h93l-204 -387v-287zM111 817h102l93 -114h-68z" />
    <glyph glyph-name="ygrave" unicode="&#x1ef3;" horiz-adv-x="434" 
d="M10 484h91l94 -284q17 -56 27 -99h3q10 42 27 101l85 282h88l-116 -334q-43 -124 -77 -194.5t-75 -111.5q-50 -49 -102 -62l-24 71q41 17 75 48q41 41 64 94q7 17 7 22q0 6 -5 21zM94 690h91l85 -141h-59z" />
    <glyph glyph-name="endash" unicode="&#x2013;" horiz-adv-x="500" 
d="M30 285h440v-58h-440v58z" />
    <glyph glyph-name="emdash" unicode="&#x2014;" horiz-adv-x="1000" 
d="M30 285h940v-58h-940v58z" />
    <glyph glyph-name="quoteleft" unicode="&#x2018;" horiz-adv-x="198" 
d="M118 458l-87 -10q17 62 44.5 131.5t47.5 103.5l53 7q-41 -114 -58 -232z" />
    <glyph glyph-name="quoteright" unicode="&#x2019;" horiz-adv-x="198" 
d="M88 680l87 10q-42 -150 -92 -236l-53 -6q41 114 58 232z" />
    <glyph glyph-name="quotesinglbase" unicode="&#x201a;" horiz-adv-x="198" 
d="M74 -111l-53 -7q41 114 58 232l87 10q-17 -62 -44.5 -131.5t-47.5 -103.5z" />
    <glyph glyph-name="quotedblleft" unicode="&#x201c;" horiz-adv-x="340" 
d="M117 458l-87 -10q17 61 44.5 131t48.5 104l52 7q-41 -114 -58 -232zM260 458l-86 -10q16 61 43.5 130.5t48.5 104.5l53 7q-40 -111 -59 -232z" />
    <glyph glyph-name="quotedblright" unicode="&#x201d;" horiz-adv-x="340" 
d="M88 680l86 10q-16 -61 -43.5 -130.5t-48.5 -105.5l-53 -6q40 111 59 232zM231 680l87 10q-17 -61 -44.5 -131t-48.5 -105l-52 -6q41 114 58 232z" />
    <glyph glyph-name="quotedblbase" unicode="&#x201e;" horiz-adv-x="341" 
d="M73 -111l-53 -7q40 111 59 232l86 10q-16 -61 -43.5 -130.5t-48.5 -104.5zM216 -111l-52 -7q41 114 58 232l87 10q-17 -61 -44.5 -131t-48.5 -104z" />
    <glyph glyph-name="dagger" unicode="&#x2020;" horiz-adv-x="464" 
d="M193 674h79l-8 -208l161 7v-71l-161 8l8 -460h-79l8 460l-161 -8v71l161 -7z" />
    <glyph glyph-name="daggerdbl" unicode="&#x2021;" horiz-adv-x="464" 
d="M193 674h78l-6 -199l160 7v-71l-160 8v-208l160 8v-71l-160 7l6 -205h-78l6 205l-160 -7v71l160 -8v208l-160 -8v71l160 -7z" />
    <glyph glyph-name="bullet" unicode="&#x2022;" horiz-adv-x="274" 
d="M137 158h-1q-42 0 -71.5 29.5t-29.5 72.5q-1 43 29.5 73t72.5 30t72 -30t30 -73t-29.5 -72.5t-72.5 -29.5z" />
    <glyph glyph-name="ellipsis" unicode="&#x2026;" horiz-adv-x="1000" 
d="M167 -10h-1q-24 0 -40 17.5t-16 43.5q0 27 16 44.5t41 17.5q26 0 41.5 -17t15.5 -45q0 -27 -15.5 -44t-41.5 -17zM500 -10h-1q-24 0 -40 17.5t-16 43.5q0 27 16 44.5t41 17.5q26 0 41.5 -17t15.5 -45q0 -27 -15.5 -44t-41.5 -17zM833 -10h-1q-24 0 -40 17.5t-16 43.5
q0 27 16 44.5t41 17.5q26 0 41.5 -17t15.5 -45q0 -27 -15.5 -44t-41.5 -17z" />
    <glyph glyph-name="perthousand" unicode="&#x2030;" horiz-adv-x="1090" 
d="M177 660h1q64 0 102.5 -51.5t38.5 -142.5q0 -98 -42 -150.5t-104 -52.5q-61 0 -101.5 51.5t-41.5 143.5q0 94 41.5 148t105.5 54zM175 609h-1q-38 0 -58 -43t-20 -105q-1 -62 19.5 -104.5t59.5 -42.5q40 0 59 41.5t19 106.5q0 64 -18.5 105.5t-59.5 41.5zM214 -13h-54
l371 675h54zM575 390h1q64 0 102.5 -51.5t38.5 -142.5q0 -98 -41.5 -150.5t-103.5 -52.5q-61 0 -101.5 51.5t-41.5 143.5q0 94 41.5 148t104.5 54zM573 339h-1q-37 0 -57 -43t-20 -105q-1 -62 19.5 -104.5t58.5 -42.5q40 0 59 41.5t19 106.5q0 64 -18.5 105.5t-59.5 41.5z
M917 390h1q64 0 102.5 -51.5t38.5 -142.5q0 -98 -41.5 -150.5t-103.5 -52.5q-61 0 -101.5 51.5t-41.5 143.5q0 94 41.5 148t104.5 54zM915 339h-1q-37 0 -57 -43t-20 -105q-1 -62 19.5 -104.5t58.5 -42.5q40 0 59 41.5t19 106.5q0 64 -18.5 105.5t-59.5 41.5z" />
    <glyph glyph-name="guilsinglleft" unicode="&#x2039;" horiz-adv-x="242" 
d="M220 433l-125 -181l125 -181h-69l-123 181l123 181h69z" />
    <glyph glyph-name="guilsinglright" unicode="&#x203a;" horiz-adv-x="242" 
d="M147 252l-125 181h68l124 -181l-123 -181h-69z" />
    <glyph glyph-name="fraction" unicode="&#x2044;" horiz-adv-x="165" 
d="M-74 -10h-54l368 670h54z" />
    <glyph glyph-name="zerosuperior" unicode="&#x2070;" horiz-adv-x="315" 
d="M155 430h-1q-62 0 -97.5 53.5t-35.5 145.5q0 93 37 147t101 54q65 0 99.5 -53t34.5 -144q0 -96 -36 -149.5t-102 -53.5zM157 481h1q68 0 68 150q0 148 -69 148q-32 0 -50.5 -39.5t-18.5 -108.5q0 -71 18.5 -110.5t50.5 -39.5z" />
    <glyph glyph-name="foursuperior" unicode="&#x2074;" horiz-adv-x="324" 
d="M254 434h-64v104h-177v39l168 249h73v-239h53v-49h-53v-104zM190 587v111q0 10 3 67h-2q-21 -42 -34 -62l-77 -114v-2h110z" />
    <glyph glyph-name="fivesuperior" unicode="&#x2075;" horiz-adv-x="290" 
d="M253 823v-54h-144l-12 -86q7 1 27 1q54 0 88 -23q50 -32 50 -98q0 -58 -41.5 -96t-106.5 -38q-59 0 -97 22l14 50q36 -20 81 -20q35 0 59.5 20.5t24.5 55.5q0 80 -107 80q-25 0 -51 -4l25 190h190z" />
    <glyph glyph-name="sixsuperior" unicode="&#x2076;" horiz-adv-x="312" 
d="M252 829l1 -52q-24 0 -38 -2q-54 -8 -86.5 -42t-40.5 -81h2q31 40 87 40q51 0 82.5 -34t31.5 -91q0 -58 -36.5 -97.5t-93.5 -39.5q-65 0 -102 45.5t-37 119.5q0 108 64 174q49 49 128 58q32 2 38 2zM160 479h1q29 0 46.5 23.5t17.5 61.5q0 37 -18.5 59t-50.5 22
q-45 0 -65 -43q-5 -8 -5 -23q0 -44 19.5 -72t54.5 -28z" />
    <glyph glyph-name="sevensuperior" unicode="&#x2077;" horiz-adv-x="275" 
d="M16 823h248v-41l-161 -347h-68l160 333v1h-179v54z" />
    <glyph glyph-name="eightsuperior" unicode="&#x2078;" horiz-adv-x="309" 
d="M158 830h1q53 0 83.5 -28.5t30.5 -67.5q0 -60 -61 -89v-2q75 -31 75 -99q0 -51 -37.5 -82.5t-96.5 -31.5q-61 0 -96 31t-35 74q0 68 73 102v2q-59 29 -59 87q0 47 34.5 75.5t87.5 28.5zM154 476h1q30 0 48 17.5t18 45.5q0 54 -73 78q-61 -20 -61 -74q0 -29 18 -48t49 -19
zM156 785h-1q-27 0 -42.5 -16t-15.5 -40q0 -46 65 -66q50 18 50 64q0 24 -14.5 41t-41.5 17z" />
    <glyph glyph-name="ninesuperior" unicode="&#x2079;" horiz-adv-x="307" 
d="M54 430v52q25 0 40 2q44 5 76 32q40 35 50 93l-2 1q-31 -36 -83 -36q-50 0 -82 33t-32 85q0 57 37.5 97.5t96.5 40.5q62 0 96.5 -45.5t34.5 -118.5q0 -117 -66 -181q-46 -45 -122 -53q-17 -2 -44 -2zM152 781h-1q-28 0 -46.5 -23.5t-18.5 -61.5q0 -34 18 -55t48 -21
q45 0 64 35q5 8 5 22q0 47 -17.5 75.5t-51.5 28.5z" />
    <glyph glyph-name="parenleftsuperior" unicode="&#x207d;" horiz-adv-x="174" 
d="M113 861h50q-70 -101 -70 -243q0 -135 70 -242h-50q-74 101 -74 242q0 142 74 243z" />
    <glyph glyph-name="parenrightsuperior" unicode="&#x207e;" horiz-adv-x="174" 
d="M60 376h-49q70 107 70 243q0 140 -70 242h49q75 -101 75 -242t-75 -243z" />
    <glyph glyph-name="zeroinferior" unicode="&#x2080;" horiz-adv-x="315" 
d="M155 -152h-1q-62 0 -97.5 53.5t-35.5 145.5q0 93 37 147t101 54q65 0 99.5 -53t34.5 -144q0 -96 -36 -149.5t-102 -53.5zM157 -101h1q68 0 68 150q0 148 -69 148q-32 0 -50.5 -39.5t-18.5 -108.5q0 -71 18.5 -110.5t50.5 -39.5z" />
    <glyph glyph-name="oneinferior" unicode="&#x2081;" horiz-adv-x="235" 
d="M171 -147h-67v330h-2l-72 -36l-11 51l93 45h59v-390z" />
    <glyph glyph-name="twoinferior" unicode="&#x2082;" horiz-adv-x="291" 
d="M9 -147v35l57 55q62 62 91.5 103t29.5 79q0 31 -18.5 49.5t-52.5 18.5q-42 0 -78 -30l-20 45q46 40 115 40q62 0 93.5 -32.5t31.5 -78.5q0 -50 -32 -95.5t-92 -101.5l-30 -31v-2h161v-54h-256z" />
    <glyph glyph-name="threeinferior" unicode="&#x2083;" horiz-adv-x="284" 
d="M41 172l-17 46q47 30 107 30q57 0 86.5 -27t29.5 -66q0 -62 -72 -90v-2q38 -5 62.5 -32t24.5 -65q0 -50 -40.5 -84t-110.5 -34q-63 0 -104 26l16 49q36 -24 86 -24q39 0 61 20t22 48q0 36 -29 54t-73 18h-21v45h21q32 0 60 16t28 47q0 22 -15.5 36t-44.5 14
q-43 0 -77 -25z" />
    <glyph glyph-name="fourinferior" unicode="&#x2084;" horiz-adv-x="324" 
d="M254 -147h-64v104h-177v39l168 248h73v-238h53v-49h-53v-104zM190 6v111q0 9 3 66h-2q-21 -42 -34 -62l-77 -113v-2h110z" />
    <glyph glyph-name="fiveinferior" unicode="&#x2085;" horiz-adv-x="290" 
d="M253 242v-54h-144l-12 -87q7 1 27 1q54 0 88 -23q50 -32 50 -98q0 -58 -41.5 -96t-106.5 -38q-59 0 -97 22l14 50q36 -20 81 -20q35 0 59.5 20.5t24.5 55.5q0 80 -107 80q-25 0 -51 -4l25 191h190z" />
    <glyph glyph-name="sixinferior" unicode="&#x2086;" horiz-adv-x="312" 
d="M252 248l1 -52q-24 0 -38 -2q-54 -8 -86.5 -42.5t-40.5 -81.5h2q31 40 87 40q51 0 82.5 -34t31.5 -91q0 -58 -36.5 -97.5t-93.5 -39.5q-65 0 -102 45.5t-37 119.5q0 109 64 175q49 49 128 58q32 2 38 2zM160 -103h1q29 0 46.5 23.5t17.5 61.5q0 37 -18.5 59t-50.5 22
q-45 0 -65 -43q-5 -8 -5 -23q0 -44 19.5 -72t54.5 -28z" />
    <glyph glyph-name="seveninferior" unicode="&#x2087;" horiz-adv-x="275" 
d="M16 242h248v-41l-161 -348h-68l160 334v1h-179v54z" />
    <glyph glyph-name="eightinferior" unicode="&#x2088;" horiz-adv-x="309" 
d="M158 248h1q53 0 83.5 -28.5t30.5 -67.5q0 -60 -61 -89v-2q75 -31 75 -99q0 -51 -37.5 -82.5t-96.5 -31.5q-61 0 -96 31t-35 74q0 68 73 102v2q-59 29 -59 87q0 47 34.5 75.5t87.5 28.5zM154 -106h1q30 0 48 17.5t18 45.5q0 55 -73 78q-61 -20 -61 -74q0 -28 18.5 -47.5
t48.5 -19.5zM156 203h-1q-27 0 -42.5 -16t-15.5 -40q0 -46 65 -66q50 20 50 64q0 24 -14.5 41t-41.5 17z" />
    <glyph glyph-name="nineinferior" unicode="&#x2089;" horiz-adv-x="307" 
d="M54 -152v52q25 0 40 2q44 5 76 32q40 35 50 93l-2 1q-31 -36 -83 -36q-50 0 -82 33t-32 85q0 57 37.5 97.5t96.5 40.5q62 0 96.5 -45.5t34.5 -118.5q0 -117 -66 -181q-46 -45 -122 -53q-17 -2 -44 -2zM152 199h-1q-28 0 -46.5 -23.5t-18.5 -61.5q0 -34 18 -55t48 -21
q45 0 64 35q5 8 5 22q0 47 -17.5 75.5t-51.5 28.5z" />
    <glyph glyph-name="parenleftinferior" unicode="&#x208d;" horiz-adv-x="174" 
d="M113 280h50q-70 -101 -70 -244q0 -134 70 -241h-50q-74 101 -74 241q0 143 74 244z" />
    <glyph glyph-name="parenrightinferior" unicode="&#x208e;" horiz-adv-x="174" 
d="M60 -205h-49q70 107 70 243q0 138 -70 242h49q75 -103 75 -242q0 -141 -75 -243z" />
    <glyph glyph-name="Euro" unicode="&#x20ac;" horiz-adv-x="475" 
d="M443 90l16 -62q-54 -38 -134 -38q-115 0 -184 82q-58 64 -71 179h-58v49h54v15q0 18 2 44h-55v49h61q17 109 79 174q72 78 180 78q63 0 119 -29l-19 -66q-44 26 -99 26q-72 0 -117 -49q-45 -46 -58 -134h246v-49h-253q-2 -12 -2 -41v-18h255v-49h-249q10 -88 51 -135
q47 -55 127 -55q58 0 109 29z" />
    <glyph glyph-name="afii61289" unicode="&#x2113;" horiz-adv-x="472" 
d="M185 509v-203q120 131 120 258q0 87 -56 87q-28 0 -46 -34.5t-18 -107.5zM404 139l41 -39q-64 -110 -184 -110q-74 0 -112 45.5t-44 124.5v9q-8 -6 -16.5 -12t-18.5 -13t-16 -11l-26 46q33 24 76 59v258q0 112 40.5 164.5t107.5 52.5q55 0 88.5 -39.5t33.5 -107.5
q0 -167 -189 -342v-21q1 -141 96 -141q66 0 123 77z" />
    <glyph glyph-name="afii61352" unicode="&#x2116;" horiz-adv-x="852" 
d="M678 644h1q67 0 105 -45t38 -124q0 -87 -42.5 -130t-103.5 -43q-65 0 -106 44.5t-41 124.5q0 81 42.5 127t106.5 46zM676 596h-1q-37 0 -57 -37.5t-20 -86.5q0 -51 22 -86.5t56 -35.5q37 0 57.5 35t20.5 88q0 49 -19 86t-59 37zM799 209h-247v50h247v-50zM145 0h-75v658
h89l154 -321q61 -132 96 -222l1 1q-9 122 -9 283v259h75v-658h-84l-156 326q-57 120 -95 222h-2q6 -129 6 -290v-258z" />
    <glyph glyph-name="trademark" unicode="&#x2122;" horiz-adv-x="586" 
d="M29 674h212v-44h-80v-228h-52v228h-80v44zM571 402h-52l-10 160q0 18 -2 76h-2q-7 -25 -21 -81l-46 -151h-54l-44 155q-16 66 -18 77h-3q0 -26 -2 -76l-10 -160h-50l19 272h79l43 -132q5 -17 16 -69h1l17 68l44 133h75z" />
    <glyph glyph-name="Omega" unicode="&#x2126;" horiz-adv-x="635" 
d="M472 71v-3h132v-68h-230v54q57 45 94 125.5t37 174.5q0 63 -19 120.5t-63 98.5t-104 41q-88 0 -138.5 -78.5t-50.5 -181.5q0 -90 38 -175t93 -125v-54h-230v68h131v3q-52 50 -86 125.5t-34 165.5q0 143 79.5 232.5t201.5 89.5t195.5 -88.5t73.5 -225.5q0 -95 -34.5 -172
t-85.5 -127z" />
    <glyph glyph-name="estimated" unicode="&#x212e;" horiz-adv-x="817" 
d="M782 316h-605q-5 0 -5 -4v-183q0 -10 9 -21q93 -99 229 -99q145 0 240 111h55q-52 -61 -130 -96t-166 -35q-155 0 -264.5 98.5t-109.5 237.5t109.5 237.5t264.5 98.5t264 -98.5t109 -237.5v-9zM646 340v184q0 12 -10 22q-95 95 -226 95q-133 0 -228 -98q-10 -10 -10 -23
v-180q0 -5 5 -5h464q5 0 5 5z" />
    <glyph glyph-name="partialdiff" unicode="&#x2202;" horiz-adv-x="492" 
d="M81 619l-26 57q71 51 159 51q102 0 173.5 -92t71.5 -259q0 -186 -73 -286t-177 -100q-86 0 -133.5 59t-47.5 149q0 104 59.5 174.5t145.5 70.5q50 0 87.5 -23t55.5 -55h1q1 9 1 30q0 124 -51 192.5t-122 68.5q-75 0 -124 -37zM217 60h1q58 0 100 66.5t51 160.5
q-14 38 -47 63t-75 25q-56 0 -95.5 -50.5t-39.5 -124.5q0 -68 29 -104t76 -36z" />
    <glyph glyph-name="Delta" unicode="&#x2206;" horiz-adv-x="522" 
d="M499 0h-475v48l193 608h92l190 -608v-48zM411 70l-106 343q-25 84 -44 161h-3q-10 -47 -40 -152l-110 -352h303z" />
    <glyph glyph-name="product" unicode="&#x220f;" horiz-adv-x="565" 
d="M556 579h-83v-669h-80v669h-222v-669h-80v669h-83v71h548v-71z" />
    <glyph glyph-name="summation" unicode="&#x2211;" horiz-adv-x="469" 
d="M473 -90h-464v52l232 316l-220 315v57h424v-71h-317v-3l204 -294l-217 -297v-4h358v-71z" />
    <glyph glyph-name="minus" unicode="&#x2212;" horiz-adv-x="596" 
d="M40 296h516v-58h-516v58z" />
    <glyph glyph-name="uni2215" unicode="&#x2215;" horiz-adv-x="398" 
d="M42 -10h-54l368 670h54z" />
    <glyph glyph-name="uni2219" unicode="&#x2219;" horiz-adv-x="203" 
d="M101 201h-1q-24 0 -40 17.5t-16 43.5t16.5 43.5t40.5 17.5q25 0 41 -17t16 -44q0 -26 -16 -43.5t-41 -17.5z" />
    <glyph glyph-name="radical" unicode="&#x221a;" horiz-adv-x="552" 
d="M560 827l-220 -921h-61l-151 427l-73 -29l-18 46l135 54l114 -340q15 -45 19 -69h1q8 43 13 69l177 763h64z" />
    <glyph glyph-name="infinity" unicode="&#x221e;" horiz-adv-x="727" 
d="M541 117h-1q-11 0 -22 2t-20 4t-20 8t-18 9.5t-18.5 12.5t-16 12.5t-17 14.5t-15.5 14l-15.5 15.5l-14.5 14.5q-29 -29 -40.5 -39.5t-38 -31t-52 -28.5t-54.5 -8q-62 0 -102 41.5t-40 106.5q0 60 43 103t107 43q12 0 24 -2t23.5 -6.5t20.5 -8t21.5 -12.5t18.5 -13t19 -16
t17 -15.5t17.5 -17t16.5 -15.5q62 61 93 79q44 27 92 27q62 0 102 -41t40 -105q0 -61 -43 -104.5t-107 -43.5zM541 175h1q37 0 62.5 26.5t25.5 63.5q0 38 -24.5 63t-61.5 25q-20 0 -39.5 -7t-40 -23.5t-30.5 -26.5l-31 -31l23 -23t26.5 -25.5t25 -20t31 -16.5t32.5 -5z
M183 175h1q26 0 54.5 16t44 30.5t41.5 42.5q-5 5 -23 22.5t-27 25.5t-25 19.5t-31 16.5t-32 5q-38 0 -63.5 -26t-25.5 -62q0 -39 24.5 -64.5t61.5 -25.5z" />
    <glyph glyph-name="integral" unicode="&#x222b;" horiz-adv-x="315" 
d="M301 787l-11 -55q-18 4 -29 4q-29 0 -45 -22q-28 -35 -28 -158q0 -72 5.5 -233t5.5 -237q0 -135 -42 -189q-32 -47 -93 -47q-30 0 -50 9l12 56q20 -5 33 -5q27 0 42 21q30 37 30 154q0 77 -5.5 240.5t-5.5 236.5q0 141 51 196q33 36 87 36q26 0 43 -7z" />
    <glyph glyph-name="approxequal" unicode="&#x2248;" horiz-adv-x="596" 
d="M535 415l34 -41q-25 -31 -66 -53t-85 -22q-21 0 -42 4.5t-30 7.5t-32 13.5t-24 10.5q-6 2 -23 10t-27.5 12t-28.5 8t-36 4q-62 0 -118 -58l-33 42q27 31 67.5 52.5t84.5 21.5q21 0 42 -4.5t30 -7.5t32 -13.5t24 -10.5q6 -2 22.5 -10t27.5 -12t29 -8t35 -4q59 0 117 58z
M540 217l34 -40q-26 -32 -67 -54t-85 -22q-17 0 -32 2t-29.5 7t-23 8t-23.5 10t-20 9q-6 2 -23 10t-27.5 12t-28.5 8t-36 4q-62 0 -118 -58l-33 43q27 30 68 51.5t84 21.5q21 0 42 -4.5t30 -7.5t32 -13.5t24 -10.5q6 -2 22.5 -10t27.5 -12t29 -8t35 -4q64 0 118 58z" />
    <glyph glyph-name="notequal" unicode="&#x2260;" horiz-adv-x="596" 
d="M556 141h-309l-77 -123h-64l79 123h-145v58h182l89 140h-271v58h309l77 123h63l-79 -123h146v-58h-183l-89 -140h272v-58z" />
    <glyph glyph-name="lessequal" unicode="&#x2264;" horiz-adv-x="596" 
d="M530 98l-464 194v57l463 193v-65l-383 -156v-2l384 -156v-65zM529 0h-461v56h461v-56z" />
    <glyph glyph-name="greaterequal" unicode="&#x2265;" horiz-adv-x="596" 
d="M530 292l-463 -194v65l383 156v2l-383 156v65l463 -193v-57zM528 0h-461v56h461v-56z" />
    <glyph glyph-name="lozenge" unicode="&#x25ca;" horiz-adv-x="507" 
d="M461 325l-175 -351h-65l-175 351l175 351h65zM388 323l-125 262q-6 12 -10 24h-2q-2 -7 -10 -24l-122 -258l125 -262q4 -8 10 -24h2q2 8 10 24z" />
    <glyph glyph-name="uniEFED" unicode="&#xefed;" 
d="M151 723h-1q-20 0 -34 14.5t-14 34.5t14.5 34t34.5 14t33.5 -14t13.5 -34t-13.5 -34.5t-33.5 -14.5z" />
    <glyph glyph-name="uniEFEE" unicode="&#xefee;" 
d="M31 825h50q10 -47 68 -47q61 0 70 47h49q-1 -46 -31 -74.5t-88 -28.5t-87.5 28t-30.5 75z" />
    <glyph glyph-name="uniEFF1" unicode="&#xeff1;" 
d="M123 5h56q-50 -70 -50 -101q0 -23 13.5 -36t34.5 -13q22 0 45 9l12 -44q-29 -23 -77 -23q-42 0 -66.5 22t-24.5 63q0 56 57 123z" />
    <glyph glyph-name="uniEFF2" unicode="&#xeff2;" 
d="M138 3h53l-31 -53q29 -6 49 -25.5t20 -48.5q0 -40 -29 -60t-70 -20q-39 0 -70 17l15 44q26 -14 54 -14q40 0 40 31q0 34 -75 43z" />
    <glyph glyph-name="uniEFF3" unicode="&#xeff3;" horiz-adv-x="400" 
d="M202 874h1q44 0 70 -25.5t26 -63.5q0 -37 -27 -62.5t-70 -25.5q-44 0 -71 25t-27 62q0 38 27 64t71 26zM201 838h-1q-21 0 -33.5 -16t-12.5 -38q0 -20 13.5 -35t33.5 -15q21 0 34.5 15t13.5 37t-13.5 37t-34.5 15z" />
    <glyph glyph-name="uniEFF5" unicode="&#xeff5;" 
d="M76 716h-45q-1 45 16.5 72t48.5 27q22 0 56 -19q32 -18 46 -18q13 0 19 8.5t8 30.5h44q2 -95 -65 -95q-24 0 -58 18q-36 18 -44 18q-21 0 -26 -42z" />
    <glyph glyph-name="uniEFF7" unicode="&#xeff7;" 
d="M116 819h66l100 -109h-72l-60 65h-2l-60 -65h-70z" />
    <glyph glyph-name="uniF629" unicode="&#xf629;" horiz-adv-x="293" 
d="M193 -7h-44v60q-51 7 -83 42q-33 38 -33 100q0 57 31.5 97.5t84.5 49.5v59h44v-57q33 0 59 -13l-12 -49q-24 13 -57 13q-39 0 -62 -28t-23 -70q0 -44 24 -70t60 -26q33 0 63 12l9 -45q-22 -13 -61 -16v-59z" />
    <glyph glyph-name="uniF62A" unicode="&#xf62a;" horiz-adv-x="296" 
d="M167 -50h-44v59q-56 2 -90 24l15 50q39 -25 86 -25q29 0 46.5 14.5t17.5 37.5q0 21 -14.5 35.5t-49.5 29.5q-49 20 -73 43.5t-24 61.5q0 37 24.5 63.5t65.5 34.5v59h44v-56q45 -1 77 -20l-15 -48q-37 20 -75 20q-30 0 -43.5 -13.5t-13.5 -32.5q0 -20 15 -33t55 -29
q47 -20 69 -46t22 -64t-25.5 -67t-69.5 -36v-62z" />
    <glyph glyph-name="uniF62B" unicode="&#xf62b;" horiz-adv-x="184" 
d="M18 208h148v-47h-148v47z" />
    <glyph glyph-name="uniF62C" unicode="&#xf62c;" horiz-adv-x="174" 
d="M113 426h50q-70 -101 -70 -243q0 -135 70 -242h-50q-74 101 -74 242q0 142 74 243z" />
    <glyph glyph-name="uniF62D" unicode="&#xf62d;" horiz-adv-x="174" 
d="M60 -59h-49q70 107 70 243q0 140 -70 242h49q75 -101 75 -242t-75 -243z" />
    <glyph glyph-name="uniF62E" unicode="&#xf62e;" horiz-adv-x="293" 
d="M193 259h-44v59q-51 7 -83 42q-33 38 -33 101q0 56 31.5 96.5t84.5 49.5v59h44v-57q33 0 59 -13l-12 -49q-24 13 -57 13q-39 0 -62 -27.5t-23 -69.5q0 -45 23.5 -70.5t60.5 -25.5q33 0 63 12l9 -46q-22 -13 -61 -16v-58z" />
    <glyph glyph-name="uniF62F" unicode="&#xf62f;" horiz-adv-x="296" 
d="M167 215h-44v59q-56 2 -90 24l15 50q39 -25 86 -25q29 0 46.5 14.5t17.5 37.5q0 21 -14.5 35.5t-49.5 29.5q-49 20 -73 43.5t-24 61.5q0 37 24.5 63.5t65.5 34.5v59h44v-56q45 -1 77 -20l-15 -48q-37 20 -75 20q-30 0 -43.5 -13.5t-13.5 -32.5q0 -20 15 -33t55 -29
q47 -20 69 -46t22 -64t-25.5 -67t-69.5 -36v-62z" />
    <glyph glyph-name="uniF630" unicode="&#xf630;" horiz-adv-x="184" 
d="M18 473h148v-47h-148v47z" />
    <glyph glyph-name="uniF631" unicode="&#xf631;" horiz-adv-x="174" 
d="M113 691h50q-70 -101 -70 -243q0 -135 70 -242h-50q-74 101 -74 242q0 142 74 243z" />
    <glyph glyph-name="uniF632" unicode="&#xf632;" horiz-adv-x="174" 
d="M60 206h-49q70 107 70 243q0 140 -70 242h49q75 -101 75 -242t-75 -243z" />
    <glyph glyph-name="uniF633" unicode="&#xf633;" horiz-adv-x="693" 
d="M418 341l24 122q-18 7 -44 7q-63 0 -108 -57t-45 -132q0 -33 15.5 -52.5t43.5 -19.5q38 0 71.5 41.5t42.5 90.5zM478 68l15 -41q-72 -39 -169 -39q-120 0 -202 82.5t-82 223.5q0 162 98.5 276.5t252.5 114.5q120 0 193 -77t73 -197q0 -117 -49 -185.5t-121 -68.5
q-32 0 -52 21.5t-18 64.5h-3q-49 -86 -133 -86q-42 0 -70.5 32.5t-28.5 88.5q0 95 64.5 168.5t165.5 73.5q56 0 97 -19l-36 -187q-22 -110 27 -110q40 -1 72 54t32 142q0 110 -57.5 175.5t-163.5 65.5q-121 0 -205 -95.5t-84 -247.5q0 -123 66.5 -194t174.5 -71q81 0 143 35
z" />
    <glyph glyph-name="uniF634" unicode="&#xf634;" 
d="M96 -219l-17 40q72 14 72 64q0 35 -34 61l64 13q38 -24 38 -72q0 -49 -36 -75.5t-87 -30.5z" />
    <glyph glyph-name="uniF638" unicode="&#xf638;" horiz-adv-x="475" 
d="M137 170l182 372q-29 50 -81 50q-57 0 -89.5 -72t-33.5 -193q0 -94 22 -157zM341 480l-183 -374q31 -48 78 -48q61 0 92.5 71.5t31.5 197.5q0 90 -19 153zM436 651l-45 -79q51 -86 51 -242q0 -166 -55 -253t-153 -87q-68 0 -116 48l-32 -60l-43 27l43 74q-53 86 -53 244
q-1 162 56.5 249.5t153.5 87.5q68 0 116 -46l35 63z" />
    <glyph glyph-name="uniF639" unicode="&#xf639;" horiz-adv-x="475" 
d="M234 -10h-1q-91 0 -145 87t-55 246q0 160 57 248.5t153 88.5q95 0 147 -87t52 -243q0 -166 -55 -253t-153 -87zM237 58h1q59 0 89 71.5t30 197.5q0 124 -29.5 194.5t-89.5 70.5q-56 0 -88 -72t-32 -193q-2 -124 30 -196.5t89 -72.5z" />
    <glyph glyph-name="uniF63A" unicode="&#xf63a;" horiz-adv-x="414" 
d="M386 0h-384v52l65 69q117 121 168.5 196t51.5 148q0 56 -28 90t-89 34t-125 -49l-26 60q71 60 167 60q91 0 138 -54t47 -132q0 -84 -50 -162.5t-154 -186.5l-49 -52v-2h268v-71z" />
    <glyph glyph-name="uniF63B" unicode="&#xf63b;" horiz-adv-x="415" 
d="M6 30l21 65q62 -36 129 -36q69 0 103.5 37.5t33.5 89.5q-1 63 -45.5 97t-111.5 34h-39v64h39q50 0 93 29t43 82q0 45 -26.5 72t-79.5 27q-59 0 -115 -39l-21 62q62 46 154 46q83 0 128.5 -44.5t45.5 -109.5q0 -50 -29.5 -90.5t-84.5 -61.5v-2q59 -13 97.5 -57t38.5 -111
q0 -82 -59 -138t-163 -56q-92 0 -152 40z" />
    <glyph glyph-name="uniF63C" unicode="&#xf63c;" horiz-adv-x="465" 
d="M366 0h-79v178h-276v56l266 416h89v-405h85v-67h-85v-178zM95 245h192v207q0 36 4 110h-3q-27 -56 -55 -104l-138 -211v-2z" />
    <glyph glyph-name="uniF63D" unicode="&#xf63d;" horiz-adv-x="428" 
d="M379 650v-72h-226l-25 -168q18 3 44 3q77 0 135 -40q81 -54 81 -161q0 -96 -64.5 -159t-163.5 -63q-92 0 -147 37l21 65q55 -33 125 -33q60 0 102 39t42 105q0 68 -44.5 106t-130.5 38q-48 0 -78 -6l42 309h287z" />
    <glyph glyph-name="uniF63E" unicode="&#xf63e;" horiz-adv-x="476" 
d="M388 659l1 -70q-31 0 -61 -5q-91 -17 -143.5 -81t-64.5 -150h3q51 71 143 71q80 0 130 -56.5t50 -150.5t-54.5 -160.5t-145.5 -66.5q-97 0 -154.5 75t-57.5 198q0 181 102 293q74 80 193 98q31 5 59 5zM246 55h1q51 0 82 41.5t31 115.5q0 70 -32.5 109t-87.5 39
q-35 0 -66 -20.5t-48 -56.5q-8 -18 -8 -39q1 -87 35 -138t93 -51z" />
    <glyph glyph-name="uniF63F" unicode="&#xf63f;" horiz-adv-x="382" 
d="M1 650h381v-54l-261 -596h-86l259 577v2h-293v71z" />
    <glyph glyph-name="uniF640" unicode="&#xf640;" horiz-adv-x="475" 
d="M244 660h1q82 0 128 -46.5t46 -110.5q0 -100 -101 -153v-3q122 -56 122 -171q0 -82 -58 -134t-147 -52q-92 0 -146 50.5t-54 122.5q0 119 122 178l-1 3q-48 25 -73 64t-25 83q0 75 53.5 122t132.5 47zM237 52h1q52 0 84.5 31.5t32.5 84.5q0 55 -32.5 88.5t-95.5 56.5
q-51 -19 -79 -55.5t-28 -82.5q-2 -52 30.5 -87.5t86.5 -35.5zM240 599h-1q-46 0 -73 -29t-27 -73q0 -86 111 -122q40 17 64 47.5t24 71.5q0 44 -24.5 74.5t-73.5 30.5z" />
    <glyph glyph-name="uniF641" unicode="&#xf641;" horiz-adv-x="478" 
d="M87 -9v70q28 -2 64 4q73 11 122 59q66 63 83 176h-2q-54 -65 -140 -65q-79 0 -128 56t-49 142q0 93 57.5 160t147.5 67q93 0 146 -74.5t53 -196.5q0 -192 -104 -303q-71 -76 -178 -90q-45 -6 -72 -5zM236 595h-1q-49 0 -81.5 -42.5t-32.5 -114.5q0 -64 31 -101.5
t83 -37.5q37 0 67.5 18t46.5 47q7 16 7 35q0 91 -30.5 143.5t-89.5 52.5z" />
    <glyph glyph-name="uniF642" unicode="&#xf642;" horiz-adv-x="774" 
d="M175 604h1q64 0 102.5 -52t38.5 -143q0 -97 -42 -149.5t-104 -52.5q-61 0 -102 51.5t-41 143.5q0 94 41.5 148t105.5 54zM173 553h-1q-38 0 -58 -43t-20 -105q-1 -62 19.5 -104.5t59.5 -42.5q40 0 59 41.5t19 106.5q0 64 -18.5 105.5t-59.5 41.5zM243 -13h-55l342 622h54
zM603 390h1q64 0 102.5 -51.5t38.5 -142.5q0 -98 -41.5 -150.5t-103.5 -52.5q-61 0 -102 52t-41 144q0 93 41.5 147t104.5 54zM601 339h-1q-37 0 -57 -43t-20 -104q-1 -62 20 -105t58 -43q40 0 59 41.5t19 107.5q0 63 -18.5 104.5t-59.5 41.5z" />
    <glyph glyph-name="uniF643" unicode="&#xf643;" horiz-adv-x="487" 
d="M244 -10h-1q-88 0 -146.5 66.5t-58.5 186.5q0 119 59 186t147 67t147 -66.5t59 -186.5q0 -119 -59 -186t-147 -67zM244 55h1q59 0 91.5 53.5t32.5 134.5q0 82 -33 135t-92 53t-92 -53t-33 -135q0 -81 33 -134.5t92 -53.5z" />
    <glyph glyph-name="uniF644" unicode="&#xf644;" horiz-adv-x="487" 
d="M338 0h-82v413h-2l-173 -76l-14 64l202 85h69v-486z" />
    <glyph glyph-name="uniF645" unicode="&#xf645;" horiz-adv-x="487" 
d="M423 0h-364v47l47 37q104 75 153.5 133t49.5 117q0 47 -27.5 71.5t-72.5 24.5q-60 0 -121 -43l-23 55q75 57 166 57q72 0 117 -41t45 -112q0 -64 -40.5 -119t-121.5 -120l-49 -40v-2q33 3 79 3h162v-68z" />
    <glyph glyph-name="uniF646" unicode="&#xf646;" horiz-adv-x="487" 
d="M56 -95l10 63q39 -13 94 -13q70 0 115 34t45 87q0 47 -38.5 75t-102.5 28q-28 0 -50 -2l-2 64l18 1q66 5 108 33.5t42 73.5q0 38 -25.5 58.5t-71.5 20.5q-55 0 -110 -30l-17 58q58 40 145 40q73 0 118 -36.5t45 -95.5q0 -51 -31.5 -87.5t-81.5 -51.5v-3q60 -9 100 -46.5
t40 -97.5q0 -84 -70 -137t-169 -53q-71 0 -111 17z" />
    <glyph glyph-name="uniF647" unicode="&#xf647;" horiz-adv-x="487" 
d="M458 52h-85v-168h-78v168h-266v55l255 385h89v-375h85v-65zM295 117v192q0 67 3 102h-3q-32 -65 -54 -102l-130 -189l1 -3h183z" />
    <glyph glyph-name="uniF648" unicode="&#xf648;" horiz-adv-x="487" 
d="M70 -97l10 62q37 -11 88 -11q63 0 109 35t46 94q0 47 -32 77q-52 50 -204 42l50 284h264l-11 -70h-196l-29 -152q136 0 199 -60q45 -45 45 -113q0 -91 -67.5 -147t-173.5 -56q-63 0 -98 15z" />
    <glyph glyph-name="uniF649" unicode="&#xf649;" horiz-adv-x="487" 
d="M405 605l8 -63q-119 -11 -187 -70.5t-86 -149.5h3q20 29 55 49t78 20q71 0 121 -51.5t50 -138.5q0 -95 -57.5 -153t-136.5 -58q-92 0 -148 66t-56 177q0 155 95.5 257t260.5 115zM254 54h1q44 0 76 37t32 105q0 62 -30 98t-79 36q-53 0 -87 -38q-33 -34 -33 -88
q0 -66 33.5 -108t86.5 -42z" />
    <glyph glyph-name="uniF64A" unicode="&#xf64a;" horiz-adv-x="487" 
d="M420 486v-52q-39 -113 -114.5 -269.5t-147.5 -275.5l-79 14q62 96 141.5 255t112.5 254v3h-269v71h356z" />
    <glyph glyph-name="uniF64B" unicode="&#xf64b;" horiz-adv-x="487" 
d="M322 320v-3q53 -22 86.5 -61.5t33.5 -91.5q0 -78 -57.5 -126t-143.5 -48q-89 0 -143.5 47t-54.5 117q0 100 118 160v2q-97 47 -97 131q0 71 53 115.5t132 44.5q75 0 123.5 -42t48.5 -107q0 -85 -99 -138zM247 549h-1q-42 0 -71 -26t-29 -69q0 -73 110 -110q86 34 86 110
q0 46 -28 70.5t-67 24.5zM242 51h1q48 0 81 29t33 76q0 90 -128 131q-47 -18 -74.5 -51t-27.5 -74q0 -49 31.5 -80t83.5 -31z" />
    <glyph glyph-name="uniF64C" unicode="&#xf64c;" horiz-adv-x="487" 
d="M79 -113l-7 63q115 7 185.5 63t89.5 145h-2q-15 -26 -50 -44t-78 -18q-72 0 -121.5 51.5t-49.5 139.5q0 92 57 151.5t142 59.5t140.5 -64t55.5 -172q0 -165 -98.5 -266t-263.5 -109zM240 156h1q29 0 55.5 15t39.5 37q21 26 21 73q0 67 -33.5 109.5t-82.5 42.5
q-45 0 -78 -35.5t-33 -103.5q0 -69 31.5 -103.5t78.5 -34.5z" />
    <glyph glyph-name="uniF64E" unicode="&#xf64e;" horiz-adv-x="487" 
d="M430 80l12 -60q-47 -30 -123 -30q-99 0 -163 64q-48 46 -63 125h-56v48h50q0 6 -0.5 13.5t-0.5 9.5q0 13 2 35h-51v47h58q15 74 64 123q69 69 172 69q61 0 109 -25l-18 -62q-40 21 -92 21q-66 0 -109 -43q-33 -33 -42 -83h223v-47h-231q-2 -20 -2 -29q0 -18 1 -29h232
v-48h-223q9 -48 39 -78q44 -44 113 -44q55 0 99 23z" />
    <glyph glyph-name="uniF64F" unicode="&#xf64f;" horiz-adv-x="487" 
d="M111 284v59h94l6 55q5 40 16 74.5t31 66.5t54.5 50t79.5 18q40 0 65 -14l-15 -62q-27 9 -50 9q-83 0 -98 -136l-8 -61h112v-59h-118l-24 -191q-12 -104 -49 -157.5t-117 -53.5q-46 0 -73 17l16 60q24 -11 52 -11q41 0 62 37t31 118l20 181h-87z" />
    <glyph glyph-name="uniF650" unicode="&#xf650;" horiz-adv-x="487" 
d="M187 223h96l18 148h-96zM156 -6h-57l22 172h-77v57h86l19 148h-82v56h90l22 168h56l-22 -168h97l22 168h57l-22 -168h76v-56h-84l-19 -148h81v-56h-90l-22 -173h-58l23 173h-96z" />
    <glyph glyph-name="uniF651" unicode="&#xf651;" horiz-adv-x="487" 
d="M441 0h-388v49q48 20 75 53t27 72q0 20 -5 47h-90v54h80q-9 41 -9 68q0 85 50.5 136.5t129.5 51.5q58 0 100 -23l-18 -64q-32 19 -81 19t-75 -31.5t-26 -89.5q0 -27 9 -67h137v-54h-127q3 -19 3 -36q-1 -75 -61 -114v-2h269v-69z" />
    <glyph glyph-name="uniF652" unicode="&#xf652;" horiz-adv-x="487" 
d="M281 0h-79v116h-143v48h143v58h-143v48h120l-141 244h90l79 -153q29 -62 37 -81h2q2 4 40 83l83 151h87l-151 -244h120v-48h-144v-58h144v-48h-144v-116z" />
    <glyph glyph-name="uniF653" unicode="&#xf653;" horiz-adv-x="487" 
d="M271 -77h-56v76q-83 2 -137 38l23 59q48 -34 124 -34q43 0 72 20t29 53q0 28 -22.5 48t-73.5 39q-74 26 -108.5 57t-34.5 79t37 82t97 43v83h56v-80q68 -3 115 -30l-23 -58q-44 28 -105 28q-41 0 -67.5 -17.5t-26.5 -45.5q0 -26 22.5 -44t82.5 -39q136 -48 136 -140
q0 -51 -38 -89.5t-102 -48.5v-79z" />
    <glyph glyph-name="uniF654" unicode="&#xf654;" horiz-adv-x="487" 
d="M371 129l12 -57q-37 -21 -90 -22v-71h-54v72q-77 11 -121.5 63t-44.5 133q0 79 46 134t120 67v68h54v-65q51 -1 88 -19l-16 -58q-29 16 -84 16q-58 0 -93 -39.5t-35 -101.5q0 -65 35.5 -101.5t90.5 -36.5q50 0 92 18z" />
    <glyph glyph-name="uniF655" unicode="&#xf655;" horiz-adv-x="315" 
d="M155 -5h-1q-62 0 -97.5 53.5t-35.5 145.5q0 93 37 147t101 54q65 0 99.5 -53t34.5 -144q0 -96 -36 -149.5t-102 -53.5zM157 46h1q68 0 68 150q0 148 -69 148q-32 0 -50.5 -39.5t-18.5 -108.5q0 -71 18.5 -110.5t50.5 -39.5z" />
    <glyph glyph-name="uniF656" unicode="&#xf656;" horiz-adv-x="235" 
d="M171 0h-67v330h-2l-72 -36l-11 51l93 45h59v-390z" />
    <glyph glyph-name="uniF657" unicode="&#xf657;" horiz-adv-x="291" 
d="M9 0v35l57 55q62 62 91.5 103t29.5 79q0 31 -18.5 49.5t-52.5 18.5q-42 0 -78 -30l-20 45q46 40 115 40q62 0 93.5 -32.5t31.5 -78.5q0 -50 -32 -95.5t-92 -101.5l-30 -31v-2h161v-54h-256z" />
    <glyph glyph-name="uniF658" unicode="&#xf658;" horiz-adv-x="284" 
d="M41 319l-17 46q47 30 107 30q57 0 86.5 -27t29.5 -66q0 -62 -72 -90v-2q38 -5 62.5 -32t24.5 -65q0 -50 -40.5 -84t-110.5 -34q-63 0 -104 26l16 49q36 -24 86 -24q39 0 61 20t22 48q0 36 -29 54t-73 18h-21v45h21q32 0 60 16t28 47q0 22 -15.5 36t-44.5 14
q-43 0 -77 -25z" />
    <glyph glyph-name="uniF659" unicode="&#xf659;" horiz-adv-x="324" 
d="M254 0h-64v104h-177v39l168 248h73v-238h53v-49h-53v-104zM190 153v111q0 9 3 66h-2q-21 -42 -34 -62l-77 -113v-2h110z" />
    <glyph glyph-name="uniF65A" unicode="&#xf65a;" horiz-adv-x="290" 
d="M253 388v-54h-144l-12 -86q7 1 27 1q54 0 88 -23q50 -32 50 -98q0 -58 -41.5 -96t-106.5 -38q-59 0 -97 22l14 50q36 -20 81 -20q35 0 59.5 20.5t24.5 55.5q0 80 -107 80q-25 0 -51 -4l25 190h190z" />
    <glyph glyph-name="uniF65B" unicode="&#xf65b;" horiz-adv-x="312" 
d="M252 395l1 -52q-24 0 -38 -2q-54 -8 -86.5 -42.5t-40.5 -81.5h2q31 40 87 40q51 0 82.5 -34t31.5 -91q0 -58 -36.5 -97.5t-93.5 -39.5q-65 0 -102 45.5t-37 119.5q0 109 64 175q49 49 128 58q32 2 38 2zM160 44h1q29 0 46.5 23.5t17.5 61.5q0 37 -18.5 59t-50.5 22
q-45 0 -65 -43q-5 -8 -5 -23q0 -44 19.5 -72t54.5 -28z" />
    <glyph glyph-name="uniF65C" unicode="&#xf65c;" horiz-adv-x="275" 
d="M16 388h248v-41l-161 -347h-68l160 333v1h-179v54z" />
    <glyph glyph-name="uniF65D" unicode="&#xf65d;" horiz-adv-x="309" 
d="M158 395h1q53 0 83.5 -28.5t30.5 -67.5q0 -60 -61 -89v-2q75 -31 75 -99q0 -51 -37.5 -82.5t-96.5 -31.5q-61 0 -96 31t-35 74q0 68 73 102v2q-59 30 -59 87q0 47 34.5 75.5t87.5 28.5zM154 41h1q30 0 48 17.5t18 45.5q0 55 -73 78q-61 -20 -61 -74q0 -28 18.5 -47.5
t48.5 -19.5zM156 350h-1q-27 0 -42.5 -16t-15.5 -40q0 -46 65 -66q50 20 50 64q0 24 -14.5 41t-41.5 17z" />
    <glyph glyph-name="uniF65E" unicode="&#xf65e;" horiz-adv-x="307" 
d="M54 -5v52q25 0 40 2q44 5 76 32q40 35 50 93l-2 1q-31 -36 -83 -36q-50 0 -82 33t-32 85q0 57 37.5 97.5t96.5 40.5q62 0 96.5 -45.5t34.5 -118.5q0 -117 -66 -181q-46 -45 -122 -53q-17 -2 -44 -2zM152 346h-1q-28 0 -46.5 -23.5t-18.5 -61.5q0 -34 18 -55t48 -21
q45 0 64 35q5 8 5 22q0 47 -17.5 75.5t-51.5 28.5z" />
    <glyph glyph-name="uniF65F" unicode="&#xf65f;" horiz-adv-x="130" 
d="M47 -68l-46 -4q24 64 39 153l71 6q-29 -98 -64 -155z" />
    <glyph glyph-name="uniF660" unicode="&#xf660;" horiz-adv-x="130" 
d="M65 -6h-1q-18 0 -29.5 12.5t-11.5 31.5q0 20 12 32.5t30 12.5q19 0 30.5 -12.5t11.5 -32.5q0 -19 -11.5 -31.5t-30.5 -12.5z" />
    <glyph glyph-name="uniF661" unicode="&#xf661;" horiz-adv-x="315" 
d="M155 260h-1q-62 0 -97.5 53.5t-35.5 145.5q0 93 37 147t101 54q65 0 99.5 -53t34.5 -144q0 -96 -36 -149.5t-102 -53.5zM157 311h1q68 0 68 150q0 148 -69 148q-32 0 -50.5 -39.5t-18.5 -108.5q0 -71 18.5 -110.5t50.5 -39.5z" />
    <glyph glyph-name="uniF662" unicode="&#xf662;" horiz-adv-x="235" 
d="M171 265h-67v330h-2l-72 -36l-11 51l93 45h59v-390z" />
    <glyph glyph-name="uniF663" unicode="&#xf663;" horiz-adv-x="291" 
d="M9 265v35l57 55q62 62 91.5 103t29.5 79q0 31 -18.5 49.5t-52.5 18.5q-42 0 -78 -30l-20 45q46 40 115 40q62 0 93.5 -32.5t31.5 -78.5q0 -50 -32 -95.5t-92 -101.5l-30 -31v-2h161v-54h-256z" />
    <glyph glyph-name="uniF664" unicode="&#xf664;" horiz-adv-x="284" 
d="M41 584l-17 46q47 30 107 30q57 0 86.5 -27t29.5 -66q0 -62 -72 -90v-2q38 -5 62.5 -32t24.5 -65q0 -50 -40.5 -84t-110.5 -34q-63 0 -104 26l16 49q36 -24 86 -24q39 0 61 20t22 48q0 36 -29 54t-73 18h-21v45h21q32 0 60 16t28 47q0 22 -15.5 36t-44.5 14
q-43 0 -77 -25z" />
    <glyph glyph-name="uniF665" unicode="&#xf665;" horiz-adv-x="324" 
d="M254 265h-64v104h-177v39l168 248h73v-238h53v-49h-53v-104zM190 418v111q0 9 3 66h-2q-21 -42 -34 -62l-77 -113v-2h110z" />
    <glyph glyph-name="uniF666" unicode="&#xf666;" horiz-adv-x="290" 
d="M253 654v-54h-144l-12 -87q7 1 27 1q54 0 88 -23q50 -32 50 -98q0 -58 -41.5 -96t-106.5 -38q-59 0 -97 22l14 50q36 -20 81 -20q35 0 59.5 20.5t24.5 55.5q0 80 -107 80q-25 0 -51 -4l25 191h190z" />
    <glyph glyph-name="uniF667" unicode="&#xf667;" horiz-adv-x="312" 
d="M252 660l1 -52q-24 0 -38 -2q-54 -8 -86.5 -42.5t-40.5 -81.5h2q31 40 87 40q51 0 82.5 -34t31.5 -91q0 -58 -36.5 -97.5t-93.5 -39.5q-65 0 -102 45.5t-37 119.5q0 109 64 175q49 49 128 58q32 2 38 2zM160 309h1q29 0 46.5 23.5t17.5 61.5q0 37 -18.5 59t-50.5 22
q-45 0 -65 -43q-5 -8 -5 -23q0 -44 19.5 -72t54.5 -28z" />
    <glyph glyph-name="uniF668" unicode="&#xf668;" horiz-adv-x="275" 
d="M16 654h248v-41l-161 -348h-68l160 334v1h-179v54z" />
    <glyph glyph-name="uniF669" unicode="&#xf669;" horiz-adv-x="309" 
d="M158 660h1q53 0 83.5 -28.5t30.5 -67.5q0 -59 -61 -88v-2q75 -31 75 -100q0 -51 -37.5 -82.5t-96.5 -31.5q-61 0 -96 31t-35 74q0 69 73 103v2q-59 30 -59 86q0 47 34.5 75.5t87.5 28.5zM154 306h1q30 0 48 17.5t18 45.5q0 55 -73 78q-61 -20 -61 -74q0 -28 18.5 -47.5
t48.5 -19.5zM156 615h-1q-27 0 -42.5 -16t-15.5 -39q0 -46 65 -66q50 18 50 64q0 24 -14.5 40.5t-41.5 16.5z" />
    <glyph glyph-name="uniF66A" unicode="&#xf66a;" horiz-adv-x="307" 
d="M54 260v52q25 0 40 2q44 5 76 32q40 35 50 93l-2 1q-31 -36 -83 -36q-50 0 -82 33t-32 85q0 57 37.5 97.5t96.5 40.5q62 0 96.5 -45.5t34.5 -118.5q0 -117 -66 -181q-46 -45 -122 -53q-17 -2 -44 -2zM152 611h-1q-28 0 -46.5 -23.5t-18.5 -61.5q0 -34 18 -55t48 -21
q45 0 64 35q5 8 5 22q0 47 -17.5 75.5t-51.5 28.5z" />
    <glyph glyph-name="uniF66B" unicode="&#xf66b;" horiz-adv-x="130" 
d="M47 197l-46 -4q24 64 39 153l71 6q-29 -98 -64 -155z" />
    <glyph glyph-name="uniF66C" unicode="&#xf66c;" horiz-adv-x="130" 
d="M65 259h-1q-18 0 -29.5 12.5t-11.5 31.5q0 20 12 32.5t30 12.5q19 0 30.5 -12.5t11.5 -32.5q0 -19 -11.5 -31.5t-30.5 -12.5z" />
    <glyph glyph-name="uniF6AE" unicode="&#xf6ae;" horiz-adv-x="275" 
d="M187 734h66q-119 -168 -119 -409q0 -233 119 -405h-66q-124 167 -124 406q1 242 124 408z" />
    <glyph glyph-name="uniF6AF" unicode="&#xf6af;" horiz-adv-x="275" 
d="M88 -80h-66q119 171 119 408q0 234 -119 406h66q124 -165 124 -407q-1 -239 -124 -407z" />
    <glyph glyph-name="uniF6B0" unicode="&#xf6b0;" horiz-adv-x="275" 
d="M252 -72h-173v798h173v-54h-106v-690h106v-54z" />
    <glyph glyph-name="uniF6B1" unicode="&#xf6b1;" horiz-adv-x="275" 
d="M23 726h173v-798h-173v54h106v690h-106v54z" />
    <glyph glyph-name="uniF6B2" unicode="&#xf6b2;" horiz-adv-x="275" 
d="M28 302v51q77 0 77 73q0 1 -6 85q-8 56 -8 85q0 66 37.5 98t101.5 32h18v-54h-17q-39 -1 -56 -22t-17 -61q0 -25 6 -73q7 -44 7 -76q1 -91 -71 -111v-2q72 -20 71 -112q0 -26 -6 -76q-7 -44 -7 -73q0 -80 74 -84h16v-54h-18q-63 0 -101 32t-38 102q0 19 7 84t7 83
q0 73 -77 73z" />
    <glyph glyph-name="uniF6B3" unicode="&#xf6b3;" horiz-adv-x="275" 
d="M246 353v-51q-77 0 -77 -73q0 -27 8 -83q7 -65 7 -84q0 -70 -38 -102t-101 -32h-18v54h16q74 4 74 84q0 29 -7 73t-7 76q-1 92 71 112v2q-72 20 -71 111q0 32 7 76q7 42 7 73q0 40 -17 61t-56 22h-17v54h18q64 0 101.5 -32t37.5 -98q0 -29 -8 -85q-7 -65 -7 -85
q0 -73 77 -73z" />
    <glyph glyph-name="uniF6B4" unicode="&#xf6b4;" horiz-adv-x="222" 
d="M157 0h-92l13 480h66zM111 683h1q25 0 40 -17t15 -43t-15 -43t-41 -17q-25 0 -40.5 17t-15.5 43t16 43t40 17z" />
    <glyph glyph-name="uniF6B5" unicode="&#xf6b5;" horiz-adv-x="377" 
d="M219 683h1q24 0 39.5 -17t15.5 -44q0 -26 -15.5 -43t-40.5 -17q-26 0 -41.5 17t-15.5 43q0 27 16 44t41 17zM179 484h75l2 -23q11 -89 -56 -178q-35 -46 -50.5 -77t-15.5 -64q0 -40 23 -62t66 -22q52 0 91 27l22 -62q-52 -36 -130 -36t-118.5 42t-40.5 103q0 32 13.5 66
t27.5 54t42 57q56 74 50 152z" />
    <glyph glyph-name="uniF6B6" unicode="&#xf6b6;" horiz-adv-x="400" 
d="M219 508l-125 -181l125 -181h-69l-123 181l124 181h68zM377 508l-125 -181l125 -181h-69l-123 181l123 181h69z" />
    <glyph glyph-name="uniF6B7" unicode="&#xf6b7;" horiz-adv-x="400" 
d="M148 327l-125 181h68l124 -181l-123 -181h-69zM305 327l-125 181h68l124 -181l-123 -181h-69z" />
    <glyph glyph-name="uniF6B8" unicode="&#xf6b8;" horiz-adv-x="242" 
d="M220 508l-125 -181l125 -181h-69l-123 181l123 181h69z" />
    <glyph glyph-name="uniF6B9" unicode="&#xf6b9;" horiz-adv-x="242" 
d="M147 327l-125 181h68l124 -181l-123 -181h-69z" />
    <glyph glyph-name="uniF6BA" unicode="&#xf6ba;" horiz-adv-x="298" 
d="M30 374h238v-63h-238v63z" />
    <glyph glyph-name="uniF6BB" unicode="&#xf6bb;" horiz-adv-x="500" 
d="M30 360h440v-58h-440v58z" />
    <glyph glyph-name="uniF6BC" unicode="&#xf6bc;" horiz-adv-x="1000" 
d="M30 360h940v-58h-940v58z" />
    <glyph glyph-name="uniF6BD" unicode="&#xf6bd;" horiz-adv-x="203" 
d="M101 276h-1q-24 0 -40 17.5t-16 43.5t16.5 43.5t40.5 17.5q25 0 41 -17t16 -44q0 -26 -16 -43.5t-41 -17.5z" />
    <glyph glyph-name="uniF6C1" unicode="&#xf6c1;" horiz-adv-x="453" 
d="M38 30l21 71q60 -39 137 -39q62 0 98 31.5t36 83.5q0 45 -27.5 76t-89.5 59q-162 66 -162 190q0 79 57 130t149 51q82 0 132 -30l-22 -70q-48 29 -113 29q-59 0 -89 -30t-30 -69q0 -46 28 -74t96 -58q80 -38 117.5 -84.5t37.5 -113.5q0 -70 -42 -120.5t-119 -65.5
l-28 -47q29 -4 49 -23.5t20 -47.5q0 -39 -29 -59t-71 -20t-68 18l15 42q25 -15 53 -15q40 0 40 31q0 36 -75 43l39 72h-8q-40 0 -83.5 11t-68.5 28z" />
    <glyph glyph-name="uniF6C2" unicode="&#xf6c2;" horiz-adv-x="364" 
d="M34 23l21 64q49 -32 105 -32q42 0 64.5 19.5t22.5 52.5q0 30 -18 50t-63 40q-120 50 -120 138q0 60 43.5 99.5t114.5 39.5q61 0 108 -28l-21 -62q-41 26 -89 26q-35 0 -55 -18.5t-20 -46.5q0 -27 18 -44.5t65 -38.5q118 -51 118 -146q0 -54 -31.5 -91t-86.5 -49l-28 -46
q29 -4 49 -23t20 -47q0 -41 -28.5 -60.5t-72.5 -19.5q-39 0 -67 18l15 42q24 -15 53 -15q41 0 41 31q0 36 -76 43l39 72h-4q-64 0 -117 32z" />
    <glyph glyph-name="commaaccent" unicode="&#xf6c3;" 
d="M96 -219l-17 40q72 14 72 64q0 35 -34 61l64 13q38 -24 38 -72q0 -49 -36 -75.5t-87 -30.5z" />
    <glyph glyph-name="Acute" unicode="&#xf6c9;" 
d="M199 824h102l-127 -114h-68z" />
    <glyph glyph-name="Caron" unicode="&#xf6ca;" 
d="M183 710h-66l-100 109h72l60 -66h2l60 66h70z" />
    <glyph glyph-name="Dieresis" unicode="&#xf6cb;" 
d="M61 722h-1q-20 0 -33 14.5t-13 35.5q0 20 14 34.5t34 14.5t33 -14t13 -35q0 -22 -13 -36t-34 -14zM239 722h-1q-20 0 -33 14.5t-13 35.5q0 20 13.5 34.5t33.5 14.5q21 0 34 -14t13 -35q0 -22 -13 -36t-34 -14z" />
    <glyph glyph-name="DieresisAcute" unicode="&#xf6cc;" 
d="M20 722h-1q-19 0 -31.5 14t-12.5 34t13.5 34t32.5 14t32 -14t13 -34q0 -21 -13 -34.5t-33 -13.5zM282 722h-1q-18 0 -30.5 14t-12.5 34t13.5 34t32.5 14t32 -14t13 -34q0 -21 -13 -34.5t-34 -13.5zM144 826h97l-113 -116h-64z" />
    <glyph glyph-name="DieresisGrave" unicode="&#xf6cd;" 
d="M19 722h-1q-19 0 -31.5 14t-12.5 34t13.5 34t32.5 14t32 -14t13 -34q0 -21 -13 -34.5t-33 -13.5zM282 722h-1q-18 0 -30.5 14t-12.5 34t13.5 34t32.5 14t32 -14t13 -34q0 -21 -13 -34.5t-34 -13.5zM60 826h97l81 -116h-64z" />
    <glyph glyph-name="Grave" unicode="&#xf6ce;" 
d="M3 824h102l93 -114h-68z" />
    <glyph glyph-name="Hungarumlaut" unicode="&#xf6cf;" 
d="M112 824h91l-108 -108h-61zM253 824h91l-108 -108h-61z" />
    <glyph glyph-name="Macron" unicode="&#xf6d0;" 
d="M35 789h232v-55h-232v55z" />
    <glyph glyph-name="cyrBreve" unicode="&#xf6d1;" 
d="M27 827h64q8 -60 60 -60q51 0 59 60h64q-9 -104 -125 -104q-114 0 -122 104z" />
    <glyph glyph-name="cyrFlex" unicode="&#xf6d2;" 
d="M274 723h-64q-8 58 -59 58q-52 0 -60 -58h-64q10 102 125 102q57 0 87.5 -27t34.5 -75z" />
    <glyph glyph-name="dblGrave" unicode="&#xf6d3;" 
d="M-41 826h98l93 -116h-63zM127 826h98l93 -116h-64z" />
    <glyph glyph-name="cyrbreve" unicode="&#xf6d4;" 
d="M26 677h61q2 -34 18.5 -54t44.5 -20q56 0 65 74h60q-4 -60 -37.5 -90t-89.5 -30q-58 0 -88 32t-34 88z" />
    <glyph glyph-name="cyrflex" unicode="&#xf6d5;" 
d="M85 562h-60q4 60 37 90.5t90 30.5q114 0 122 -121h-61q-7 74 -63 74q-58 0 -65 -74z" />
    <glyph glyph-name="dblgrave" unicode="&#xf6d6;" 
d="M-9 681h87l82 -139h-53zM138 681h87l82 -139h-54z" />
    <glyph glyph-name="dieresisacute" unicode="&#xf6d7;" horiz-adv-x="301" 
d="M27 571h-1q-19 0 -32 14t-13 34t14 33.5t34 13.5q19 0 32 -13.5t13 -33.5q0 -21 -13 -34.5t-34 -13.5zM269 571h-1q-19 0 -32 14t-13 34q0 19 13.5 33t33.5 14t33 -13.5t13 -33.5q0 -21 -13 -34.5t-34 -13.5zM154 696h87l-109 -141h-55z" />
    <glyph glyph-name="dieresisgrave" unicode="&#xf6d8;" horiz-adv-x="301" 
d="M30 571h-1q-19 0 -32 14t-13 34t14 33.5t34 13.5q19 0 32 -13.5t13 -33.5q0 -21 -13 -34.5t-34 -13.5zM268 571h-1q-19 0 -32 14t-13 34q0 19 14 33t33 14q20 0 33 -13.5t13 -33.5q0 -21 -13 -34.5t-34 -13.5zM59 696h88l77 -141h-55z" />
    <glyph glyph-name="uniF6DC" unicode="&#xf6dc;" horiz-adv-x="309" 
d="M143 0v569h-2l-111 -61l-17 65l141 77h71v-650h-82z" />
    <glyph glyph-name="centinferior" unicode="&#xf6df;" horiz-adv-x="293" 
d="M193 -153h-44v59q-51 7 -83 42q-33 38 -33 101q0 56 31.5 96.5t84.5 49.5v59h44v-57q33 0 59 -13l-12 -49q-24 13 -57 13q-39 0 -62 -27.5t-23 -69.5q0 -45 23.5 -70.5t60.5 -25.5q33 0 63 12l9 -46q-22 -13 -61 -16v-58z" />
    <glyph glyph-name="centsuperior" unicode="&#xf6e0;" horiz-adv-x="293" 
d="M193 428h-44v59q-51 7 -83 42q-33 38 -33 101q0 57 31.5 97.5t84.5 49.5v59h44v-57q33 0 59 -13l-12 -49q-24 13 -57 13q-39 0 -62 -28t-23 -70q0 -44 24 -70t60 -26q33 0 63 12l9 -46q-22 -13 -61 -16v-58z" />
    <glyph glyph-name="commainferior" unicode="&#xf6e1;" horiz-adv-x="130" 
d="M47 -215l-46 -4q24 64 39 153l71 6q-29 -98 -64 -155z" />
    <glyph glyph-name="commasuperior" unicode="&#xf6e2;" horiz-adv-x="130" 
d="M47 366l-46 -4q24 64 39 153l71 6q-29 -98 -64 -155z" />
    <glyph glyph-name="dollarinferior" unicode="&#xf6e3;" horiz-adv-x="296" 
d="M167 -197h-44v59q-56 2 -90 24l15 50q39 -25 86 -25q29 0 46.5 14.5t17.5 37.5q0 21 -14.5 35.5t-49.5 29.5q-49 20 -73 43.5t-24 61.5q0 37 24.5 63.5t65.5 34.5v59h44v-56q45 -1 77 -20l-15 -48q-37 20 -75 20q-30 0 -43.5 -13.5t-13.5 -32.5q0 -20 15 -33t55 -29
q47 -20 69 -46t22 -64t-25.5 -67t-69.5 -36v-62z" />
    <glyph glyph-name="dollarsuperior" unicode="&#xf6e4;" horiz-adv-x="296" 
d="M167 384l-44 1v59q-56 2 -90 24l15 50q39 -25 86 -25q29 0 46.5 14.5t17.5 37.5q0 21 -14.5 35.5t-49.5 29.5q-49 20 -73 43.5t-24 61.5q0 37 24.5 63.5t65.5 34.5v59h44v-56q45 -1 77 -20l-15 -48q-37 20 -75 20q-30 0 -43.5 -13.5t-13.5 -32.5q0 -20 15 -33t55 -29
q47 -20 69 -46t22 -64t-25.5 -67t-69.5 -37v-62z" />
    <glyph glyph-name="hypheninferior" unicode="&#xf6e5;" horiz-adv-x="184" 
d="M18 61h148v-47h-148v47z" />
    <glyph glyph-name="hyphensuperior" unicode="&#xf6e6;" horiz-adv-x="184" 
d="M18 643h148v-47h-148v47z" />
    <glyph glyph-name="periodinferior" unicode="&#xf6e7;" horiz-adv-x="130" 
d="M65 -153h-1q-18 0 -29.5 12.5t-11.5 31.5q0 20 12 32.5t30 12.5q19 0 30.5 -12.5t11.5 -32.5q0 -19 -11.5 -31.5t-30.5 -12.5z" />
    <glyph glyph-name="periodsuperior" unicode="&#xf6e8;" horiz-adv-x="130" 
d="M65 429h-1q-18 0 -29.5 12.5t-11.5 31.5q0 20 12 32.5t30 12.5q19 0 30.5 -12.5t11.5 -32.5q0 -19 -11.5 -31.5t-30.5 -12.5z" />
    <glyph glyph-name="zerooldstyle" unicode="&#xf730;" horiz-adv-x="487" 
d="M244 -10h-1q-88 0 -146.5 66.5t-58.5 186.5q0 119 59 186t147 67t147 -66.5t59 -186.5q0 -119 -59 -186t-147 -67zM244 55h1q59 0 91.5 53.5t32.5 134.5q0 82 -33 135t-92 53t-92 -53t-33 -135q0 -81 33 -134.5t92 -53.5z" />
    <glyph glyph-name="oneoldstyle" unicode="&#xf731;" horiz-adv-x="333" 
d="M244 0h-82v410h-2l-123 -58l-16 63l154 71h69v-486z" />
    <glyph glyph-name="twooldstyle" unicode="&#xf732;" horiz-adv-x="414" 
d="M385 0h-364v47l47 37q104 75 153.5 133t49.5 117q0 47 -27.5 71.5t-72.5 24.5q-60 0 -121 -43l-23 55q75 57 166 57q72 0 117 -41t45 -112q0 -64 -40.5 -119t-121.5 -120l-49 -40v-2q33 3 79 3h162v-68z" />
    <glyph glyph-name="threeoldstyle" unicode="&#xf733;" horiz-adv-x="402" 
d="M17 -95l10 63q39 -13 94 -13q70 0 115 34t45 87q0 47 -38.5 75t-102.5 28q-28 0 -50 -2l-2 64l18 1q66 5 108 33.5t42 73.5q0 38 -25.5 58.5t-71.5 20.5q-55 0 -110 -30l-17 58q58 40 145 40q73 0 118 -36.5t45 -95.5q0 -51 -31.5 -87.5t-81.5 -51.5v-3q60 -9 100 -46.5
t40 -97.5q0 -84 -70 -137t-169 -53q-71 0 -111 17z" />
    <glyph glyph-name="fouroldstyle" unicode="&#xf734;" horiz-adv-x="463" 
d="M446 52h-85v-168h-78v168h-267v55l256 385h89v-375h85v-65zM283 117v192q0 67 3 102h-3q-32 -65 -54 -102l-131 -189l1 -3h184z" />
    <glyph glyph-name="fiveoldstyle" unicode="&#xf735;" horiz-adv-x="408" 
d="M33 -97l10 62q37 -11 88 -11q63 0 109 35t46 94q0 47 -32 77q-52 50 -204 42l50 284h264l-11 -70h-196l-29 -152q136 0 199 -60q45 -45 45 -113q0 -91 -67.5 -147t-173.5 -56q-63 0 -98 15z" />
    <glyph glyph-name="sixoldstyle" unicode="&#xf736;" horiz-adv-x="480" 
d="M398 605l8 -63q-119 -11 -187 -70.5t-86 -149.5h3q20 29 55 49t78 20q71 0 121 -51.5t50 -138.5q0 -95 -58 -153t-136 -58q-92 0 -148 66t-56 177q0 155 95.5 257t260.5 115zM247 54h1q44 0 76 37t32 105q0 62 -30 98t-79 36q-53 0 -87 -38q-33 -34 -33 -88
q0 -66 33.5 -108t86.5 -42z" />
    <glyph glyph-name="sevenoldstyle" unicode="&#xf737;" horiz-adv-x="398" 
d="M376 486v-52q-39 -113 -114.5 -269.5t-147.5 -275.5l-79 14q62 96 141.5 255t112.5 254v3h-269v71h356z" />
    <glyph glyph-name="eightoldstyle" unicode="&#xf738;" horiz-adv-x="477" 
d="M318 320v-3q53 -22 86.5 -61.5t33.5 -91.5q0 -78 -57.5 -126t-143.5 -48q-89 0 -143.5 47t-54.5 117q0 100 119 160v2q-97 47 -97 131q0 71 53 115.5t131 44.5q75 0 123.5 -42t48.5 -107q0 -85 -99 -138zM244 549h-1q-43 0 -71.5 -26t-28.5 -69q0 -73 109 -110
q86 34 86 110q0 46 -28 70.5t-66 24.5zM238 51h1q48 0 81 29t33 76q0 90 -128 131q-47 -18 -74.5 -51t-27.5 -74q0 -49 31.5 -80t83.5 -31z" />
    <glyph glyph-name="nineoldstyle" unicode="&#xf739;" horiz-adv-x="480" 
d="M72 -113l-7 63q116 7 186 62.5t90 145.5h-2q-15 -26 -50 -44t-78 -18q-72 0 -122 51.5t-50 139.5q0 92 57 151.5t142 59.5t141 -64t56 -172q0 -165 -99 -266t-264 -109zM234 156h1q29 0 55.5 15t39.5 37q21 26 21 73q0 67 -33.5 109.5t-83.5 42.5q-44 0 -77.5 -35.5
t-33.5 -103.5q0 -69 31.5 -103.5t79.5 -34.5z" />
    </font>
</defs>
</svg>
